<?xml version="1.0" standalone="no"?>
<!DOCTYPE svg PUBLIC "-//W3C//DTD SVG 20010904//EN"
 "http://www.w3.org/TR/2001/REC-SVG-20010904/DTD/svg10.dtd">
<svg version="1.0" xmlns="http://www.w3.org/2000/svg"
 width="1024.000000pt" height="1024.000000pt" viewBox="0 0 1024.000000 1024.000000"
 preserveAspectRatio="xMidYMid meet">

<g transform="translate(0.000000,1024.000000) scale(0.100000,-0.100000)"
fill="#000000" stroke="none">
<path d="M5052 8686 c-24 -8 -69 -34 -100 -58 -195 -150 -316 -178 -528 -122
-136 36 -190 43 -253 33 -71 -11 -112 -40 -158 -114 -74 -117 -159 -183 -276
-215 -46 -12 -108 -11 -269 6 -145 16 -228 -44 -292 -209 -53 -138 -105 -202
-217 -272 -68 -42 -116 -60 -234 -86 -126 -28 -166 -50 -210 -113 -34 -49 -37
-61 -46 -161 -21 -227 -98 -334 -300 -419 -160 -68 -185 -103 -180 -246 2 -52
4 -144 5 -205 1 -104 -1 -113 -28 -163 -40 -71 -70 -101 -169 -166 -67 -44
-90 -65 -105 -99 -42 -87 -38 -137 28 -322 28 -77 32 -99 28 -160 -6 -93 -31
-145 -112 -234 -80 -86 -98 -125 -99 -206 0 -82 21 -124 103 -209 89 -92 113
-144 114 -251 0 -82 -5 -104 -55 -239 -37 -97 -40 -175 -10 -232 28 -54 46
-72 121 -126 158 -112 200 -206 184 -408 -16 -211 -9 -255 49 -315 26 -26 76
-60 131 -86 102 -50 162 -99 210 -172 51 -77 66 -121 81 -238 17 -129 24 -147
76 -203 45 -50 68 -60 242 -107 85 -23 133 -42 175 -70 95 -63 97 -66 81 -86
-7 -10 -9 -15 -5 -11 5 4 16 2 25 -5 14 -11 15 -10 2 8 -7 11 5 0 28 -25 25
-28 53 -75 72 -125 58 -145 97 -194 184 -231 44 -18 85 -18 202 2 95 16 98 16
222 -11 33 -8 111 -49 144 -77 15 -13 57 -66 95 -118 82 -116 123 -143 215
-142 47 0 84 8 152 35 117 46 193 59 270 48 97 -15 193 -56 250 -106 17 -14
50 -40 74 -57 33 -24 40 -33 30 -40 -11 -8 -10 -9 3 -5 9 3 36 0 60 -7 72 -22
159 -2 239 55 17 12 33 19 35 16 3 -3 -4 -10 -15 -17 -12 -6 -19 -15 -16 -21
4 -5 -1 -9 -9 -9 -8 0 -18 -5 -22 -12 -4 -7 -3 -8 4 -4 7 4 12 1 12 -8 0 -8
-5 -18 -12 -22 -7 -5 -8 -3 -3 6 10 16 -35 4 -50 -14 -5 -6 -19 -10 -30 -8
-17 3 -18 1 -5 -8 20 -14 -52 -3 -99 16 -18 8 -38 11 -44 7 -6 -3 -7 -1 -3 5
7 11 -25 17 -74 14 -11 0 -10 3 4 14 18 13 15 19 -7 15 -9 -1 -38 25 -37 34 0
3 -3 5 -7 6 -5 1 -15 5 -24 10 -12 6 -21 3 -30 -9 -7 -9 -10 -14 -5 -10 5 4
17 -4 28 -17 11 -14 25 -25 31 -25 7 1 1 10 -12 21 -13 11 -21 22 -17 26 7 7
42 -38 38 -49 -3 -12 67 -55 117 -73 56 -19 110 -19 162 1 30 13 37 19 27 26
-9 7 -4 8 15 3 29 -6 79 23 167 99 41 35 169 96 187 89 7 -3 13 0 13 6 0 14
-11 14 -47 0 -15 -6 -40 -11 -56 -11 -15 0 -25 -4 -22 -9 6 -9 -8 -13 -32 -10
-7 1 -13 -3 -13 -9 0 -6 -11 -8 -27 -4 -23 4 -25 3 -13 -6 13 -10 13 -11 -1
-7 -9 3 -27 -2 -40 -10 -12 -9 -19 -11 -15 -5 15 24 98 74 159 95 47 16 85 21
157 21 83 0 108 -4 200 -36 139 -48 162 -52 223 -37 41 9 63 23 105 66 29 29
58 53 63 53 6 0 8 4 5 9 -8 12 3 41 15 41 6 0 5 -9 -1 -20 -8 -15 -8 -20 1
-20 8 0 6 -7 -4 -18 -10 -10 -17 -22 -17 -27 0 -4 9 4 21 19 11 14 17 31 13
37 -5 9 0 10 14 7 17 -5 26 2 42 27 46 75 175 130 278 120 36 -3 62 -2 62 4 0
5 -44 8 -102 7 -88 -2 -109 -6 -143 -26 -32 -19 -37 -20 -25 -6 13 17 13 18
-5 14 -11 -2 -19 -10 -17 -16 1 -7 -1 -11 -5 -11 -21 3 -26 -2 -13 -12 13 -9
12 -10 -2 -5 -20 6 -35 -10 -16 -17 7 -2 9 -8 5 -13 -4 -5 -12 -2 -16 5 -7 11
-14 9 -32 -8 -23 -22 -24 -23 -5 -37 11 -7 18 -16 15 -18 -2 -2 -14 4 -26 14
l-22 17 52 52 c62 62 130 97 214 112 51 9 77 8 145 -6 223 -47 318 2 397 205
45 116 75 161 148 223 75 64 130 91 254 122 121 31 157 45 202 79 54 42 83
107 100 230 28 197 109 315 272 394 97 48 148 89 178 146 23 44 26 97 17 321
-2 63 1 115 9 141 24 74 82 145 183 221 113 85 133 117 132 213 0 50 -10 94
-43 190 -39 114 -43 131 -39 205 5 100 23 139 106 224 79 82 112 146 112 221
0 74 -26 126 -102 207 -89 95 -112 146 -111 248 0 66 6 97 35 175 43 115 53
183 38 238 -14 54 -46 90 -140 162 -92 70 -125 107 -159 180 -24 51 -26 63
-22 170 7 225 6 242 -17 286 -29 57 -62 82 -183 141 -184 91 -248 183 -269
390 -11 108 -28 155 -73 201 -46 48 -93 70 -218 98 -146 33 -229 75 -302 154
-63 67 -91 117 -128 225 -18 52 -36 82 -69 116 -57 57 -111 74 -212 65 -193
-17 -231 -18 -276 -6 -106 29 -187 91 -247 191 -38 61 -92 114 -132 130 -14 5
-54 11 -88 14 -52 4 -81 -1 -162 -27 -86 -28 -112 -32 -213 -33 -112 0 -117 1
-190 36 -41 20 -101 57 -133 83 -101 83 -204 112 -295 82z m348 -406 c600 -52
1225 -311 1715 -711 279 -228 558 -568 746 -910 273 -499 400 -981 403 -1524
1 -430 -93 -886 -268 -1295 -70 -164 -221 -423 -344 -590 -236 -320 -554 -615
-892 -828 -230 -146 -540 -275 -840 -351 -441 -112 -855 -128 -1316 -51 -464
77 -831 220 -1199 465 -192 129 -285 204 -463 380 -354 347 -634 806 -801
1313 -196 595 -217 1113 -70 1709 63 259 141 456 281 718 264 490 657 919
1098 1195 416 261 922 435 1395 479 130 12 421 12 555 1z m-287 -6787 c-7 -2
-21 -2 -30 0 -10 3 -4 5 12 5 17 0 24 -2 18 -5z"/>
<path d="M4960 8143 c-384 -11 -935 -177 -1335 -403 -98 -55 -328 -215 -410
-285 -176 -149 -393 -380 -485 -515 -30 -44 -42 -52 -53 -37 -5 7 -6 4 -2 -9
3 -13 -2 -30 -13 -45 -65 -85 -234 -382 -274 -484 -9 -22 -32 -74 -51 -115
-90 -195 -173 -535 -202 -835 -46 -457 25 -975 190 -1385 120 -298 222 -473
446 -770 160 -212 452 -482 699 -647 373 -249 840 -418 1320 -478 165 -20 514
-20 680 0 677 84 1286 376 1760 846 478 474 735 973 851 1649 49 285 55 682
15 933 -43 262 -141 614 -228 811 -137 314 -388 672 -634 906 -436 415 -946
685 -1539 815 -169 37 -462 56 -735 48z m422 -138 c10 -4 12 -50 10 -233 l-4
-228 64 -12 c34 -6 99 -16 143 -22 96 -13 202 -35 253 -54 20 -7 64 -21 97
-31 205 -59 501 -228 720 -410 214 -178 452 -470 565 -694 30 -61 33 -94 4
-70 -7 6 -12 15 -9 19 3 5 0 12 -6 16 -7 4 -9 3 -5 -4 3 -6 2 -13 -4 -17 -6
-4 -8 -10 -5 -15 3 -5 -3 -14 -14 -20 -16 -8 -22 -6 -31 10 -6 11 -20 20 -31
20 -19 0 -19 -1 -2 -24 10 -13 21 -22 26 -19 4 2 6 -1 5 -8 -2 -7 2 -13 9 -14
19 0 23 -11 5 -12 -16 -1 -71 59 -62 68 3 3 -1 11 -8 19 -7 8 -37 56 -68 105
-111 180 -256 355 -293 355 -20 0 -51 -35 -51 -57 0 -7 28 -45 63 -85 79 -92
143 -175 196 -257 44 -69 50 -87 25 -77 -9 3 -12 2 -9 -5 4 -6 13 -8 21 -5 9
4 18 -4 24 -20 14 -35 13 -44 -5 -44 -8 0 -15 5 -15 11 0 5 5 7 10 4 6 -3 10
-1 10 4 0 6 -6 11 -14 11 -8 0 -17 6 -20 13 -3 6 -3 1 0 -13 5 -24 4 -24 -10
-6 -9 10 -13 23 -10 27 3 5 -2 9 -11 9 -9 0 -13 4 -10 10 3 5 -1 20 -9 32 -9
12 -16 17 -16 11 0 -7 5 -15 10 -18 14 -9 2 -25 -14 -19 -7 3 -13 -1 -13 -8 0
-7 -2 -17 -3 -23 -5 -20 0 -36 10 -30 6 4 8 11 5 16 -4 5 -1 9 4 9 6 0 11 -7
11 -15 0 -8 -5 -15 -11 -15 -6 0 -8 -8 -5 -17 5 -15 3 -14 -10 2 -8 11 -20 19
-25 17 -7 -1 -8 7 -3 20 7 23 6 23 -14 4 -12 -10 -19 -23 -15 -29 3 -6 1 -7
-6 -3 -9 6 -9 11 0 22 6 8 9 18 5 21 -4 4 -11 2 -15 -6 -6 -9 -14 -5 -30 17
-20 29 -20 31 -4 42 16 10 16 10 -4 5 -17 -5 -31 7 -78 67 -85 111 -204 228
-229 228 -30 0 -46 -18 -46 -52 0 -20 12 -37 46 -65 66 -55 258 -285 215 -259
-6 4 -11 2 -11 -3 0 -6 8 -11 17 -11 21 0 8 -13 -17 -17 -14 -2 -18 1 -13 14
4 10 2 14 -4 10 -6 -4 -22 5 -37 19 -26 26 -56 27 -56 2 0 -10 3 -9 9 1 8 12
11 12 25 -1 17 -17 11 -29 -10 -21 -8 3 -14 0 -14 -6 0 -6 -4 -11 -10 -11 -5
0 -10 9 -10 20 0 11 -5 20 -12 20 -14 0 -60 50 -119 128 -31 41 -46 52 -67 52
-32 0 -52 -16 -52 -41 0 -9 26 -48 58 -86 62 -76 134 -173 127 -173 -2 0 -12
-3 -22 -6 -15 -5 -16 -4 -3 6 12 9 10 11 -11 6 -25 -5 -27 -3 -25 25 1 16 -2
32 -6 35 -5 3 -8 2 -7 -3 1 -4 1 -15 0 -23 -1 -12 -4 -12 -15 2 -12 17 -14 17
-31 -2 -13 -14 -14 -20 -5 -20 7 0 11 -3 7 -6 -3 -3 -11 -3 -17 1 -8 5 -6 14
5 31 9 15 11 24 4 24 -6 0 -13 -8 -16 -18 -3 -13 -13 -18 -31 -17 -35 2 -72
14 -72 23 0 4 -14 22 -30 40 -24 26 -35 32 -53 26 -12 -4 -25 -12 -29 -18 -13
-19 -9 -53 8 -67 14 -12 14 -14 -3 -27 -17 -13 -17 -14 4 -8 18 6 20 4 16 -14
-3 -11 -10 -20 -15 -20 -5 0 -6 5 -2 12 5 7 2 9 -9 5 -10 -4 -18 1 -22 14 -6
17 -12 21 -31 18 -4 0 -11 5 -16 13 -5 8 -7 4 -4 -14 6 -33 -11 -38 -17 -5 -4
19 -4 18 -6 -5 0 -16 -6 -28 -12 -28 -5 0 -8 4 -5 9 4 5 -2 7 -12 4 -13 -3
-18 2 -20 20 -2 27 -31 99 -32 79 0 -7 -5 -10 -11 -7 -6 4 -8 14 -4 22 4 13 3
14 -10 3 -8 -7 -13 -16 -10 -20 3 -4 -1 -10 -9 -13 -11 -4 -23 -48 -28 -104
-1 -7 -5 -10 -9 -7 -5 2 -5 12 -2 22 6 15 5 15 -10 3 -20 -16 -22 -8 -6 21 8
15 8 23 -2 32 -9 8 -10 8 -5 -1 3 -6 2 -14 -4 -18 -6 -4 -10 6 -10 22 0 16 -6
37 -13 47 -13 18 -14 18 -21 1 -5 -15 -9 -15 -24 -4 -9 7 -14 10 -10 5 4 -5 1
-15 -7 -23 -8 -8 -15 -23 -15 -34 0 -10 -6 -19 -12 -20 -7 0 -4 -4 7 -9 14 -6
15 -9 5 -10 -8 -1 -23 -3 -32 -5 -19 -3 -24 10 -8 20 6 3 10 11 10 16 0 6 -5
7 -12 3 -8 -5 -9 -2 -5 9 4 12 1 17 -11 17 -14 0 -15 2 -2 10 12 7 12 12 -4
29 -11 12 -24 21 -29 21 -6 0 -2 -9 9 -21 14 -15 15 -20 4 -17 -8 2 -20 10
-27 18 -10 13 -11 11 -6 -8 4 -18 2 -21 -11 -16 -12 4 -16 0 -16 -16 0 -11 -4
-18 -10 -15 -5 3 -10 1 -10 -4 0 -6 5 -11 10 -11 19 0 10 -28 -11 -33 -14 -4
-20 -11 -16 -21 4 -9 1 -13 -6 -10 -11 4 -16 24 -21 89 -1 11 -6 28 -12 39
-14 22 -50 18 -46 -7 2 -11 -2 -15 -11 -11 -11 4 -16 -7 -21 -40 -4 -25 -12
-49 -18 -52 -7 -5 -8 -2 -3 6 6 10 4 12 -8 7 -21 -8 -22 0 -2 19 8 9 15 21 14
27 0 9 -2 8 -6 0 -8 -22 -24 -14 -34 16 -7 21 -15 28 -26 24 -12 -5 -14 -1 -8
16 6 21 5 22 -17 10 -14 -7 -18 -14 -10 -17 6 -2 12 -11 11 -20 0 -11 -2 -12
-6 -4 -2 6 -9 12 -14 12 -6 0 -7 -4 -4 -10 3 -5 1 -10 -4 -10 -6 0 -11 -7 -11
-16 0 -11 -6 -14 -17 -10 -15 5 -15 4 1 -9 18 -14 18 -15 2 -21 -22 -8 -36 11
-36 49 0 17 -5 27 -15 27 -9 0 -12 6 -8 18 5 14 3 14 -11 -3 -17 -20 -17 -20
-13 3 6 25 -5 29 -23 7 -9 -11 -9 -15 -1 -15 7 0 9 -5 6 -10 -4 -6 -11 -8 -16
-4 -6 3 -8 -5 -5 -20 3 -14 0 -26 -6 -26 -5 0 -7 -7 -4 -16 3 -8 2 -12 -3 -9
-6 3 -14 -3 -20 -12 -9 -16 -10 -16 -11 -1 0 9 5 20 10 23 6 4 8 11 5 16 -4 5
-1 9 4 9 6 0 11 4 11 10 0 13 -28 2 -33 -13 -2 -7 -2 -2 0 11 4 27 -21 68 -48
75 -14 4 -21 -1 -25 -20 -5 -18 -9 -21 -15 -11 -7 10 -9 9 -9 -5 0 -12 -4 -16
-12 -11 -9 5 -9 2 1 -9 10 -13 10 -17 1 -17 -9 0 -9 -4 1 -17 13 -15 12 -15
-7 -5 -14 8 -24 8 -31 1 -7 -7 -10 -2 -10 16 0 19 2 23 8 14 5 -8 9 -9 9 -3 0
16 -25 35 -35 26 -5 -4 -5 -1 0 7 7 13 -9 31 -30 31 -5 0 -4 -4 4 -9 10 -7 11
-13 2 -27 -9 -17 -10 -17 -11 -2 0 9 -4 20 -10 23 -6 4 -7 -1 -3 -11 4 -12 3
-15 -5 -10 -8 5 -12 -1 -12 -15 0 -18 -2 -19 -15 -9 -9 7 -18 10 -22 6 -3 -3
0 -6 8 -6 12 -1 11 -3 -1 -13 -20 -16 -22 -34 -4 -34 9 0 13 6 9 16 -5 12 -3
13 6 4 9 -9 8 -17 -5 -34 -9 -13 -16 -18 -16 -11 0 7 -4 11 -9 8 -4 -3 -8 7
-9 22 0 63 -1 65 -25 60 -16 -3 -24 0 -24 9 0 8 6 12 14 9 7 -3 13 -1 13 5 0
6 -10 9 -22 7 -15 -2 -22 -9 -20 -20 2 -12 -2 -16 -13 -12 -10 4 -15 0 -15
-12 0 -11 -5 -36 -11 -58 -9 -33 -13 -37 -24 -25 -8 8 -16 33 -17 56 -2 22 -6
39 -10 36 -5 -2 -8 1 -8 7 0 7 -7 10 -15 6 -18 -7 -20 5 -2 23 10 10 8 12 -8
9 -15 -3 -19 -10 -17 -33 2 -21 0 -26 -7 -16 -11 18 -31 5 -31 -20 0 -10 -4
-19 -10 -19 -5 0 -10 -6 -10 -14 0 -8 -7 -16 -15 -20 -17 -6 -21 9 -5 19 6 3
10 12 10 18 0 8 -3 8 -9 -1 -6 -11 -9 -9 -13 6 -3 11 -1 25 5 31 8 8 5 11 -12
11 -18 0 -22 4 -17 18 5 14 3 13 -10 -3 -16 -20 -16 -20 -11 3 6 24 6 25 -18
16 -12 -5 -13 -9 -5 -14 8 -5 7 -11 -4 -23 -9 -8 -16 -23 -16 -31 0 -25 -17
-19 -40 15 -12 16 -24 28 -27 25 -3 -2 4 -15 16 -27 11 -12 18 -25 16 -29 -3
-4 4 -10 15 -13 13 -3 18 -11 14 -20 -8 -21 -41 -28 -48 -10 -4 9 -2 12 7 7 9
-6 9 -4 1 7 -6 8 -14 26 -18 41 -14 60 -59 71 -71 17 -7 -31 -15 -35 -31 -19
-7 7 -10 -1 -9 -25 0 -23 -3 -34 -11 -31 -6 2 -17 -1 -23 -7 -9 -9 -10 -8 -5
7 5 13 4 17 -4 12 -7 -4 -12 -1 -12 9 0 11 5 15 15 11 17 -6 19 2 6 22 -7 11
-9 10 -15 -3 -3 -9 -10 -13 -16 -10 -6 3 -7 -1 -4 -9 8 -22 -8 -20 -28 3 -28
33 -64 15 -58 -29 1 -10 -3 -9 -13 5 -9 11 -12 22 -8 25 16 11 41 55 41 72 0
23 -36 41 -66 34 -14 -4 -39 -28 -60 -61 -20 -30 -39 -55 -41 -55 -2 0 0 12 3
27 7 26 6 27 -9 11 -9 -9 -17 -21 -17 -27 0 -6 -7 -8 -15 -5 -8 4 -22 1 -29
-5 -10 -8 -16 -9 -21 -1 -3 6 -11 7 -17 4 -7 -4 -8 -2 -4 5 6 9 11 9 21 1 9
-7 15 -7 19 -1 4 5 -2 14 -11 20 -16 9 -16 10 4 11 12 0 24 6 27 13 5 10 7 10
12 0 3 -7 9 -13 14 -13 4 0 3 11 -3 24 -11 23 -12 23 -28 5 -22 -25 -32 -24
-24 4 4 15 4 18 -3 8 -5 -7 -15 -10 -21 -6 -8 5 -10 -1 -5 -19 4 -16 2 -26 -5
-26 -6 0 -11 6 -12 13 0 10 -2 10 -6 0 -2 -7 -14 -13 -25 -13 -16 0 -18 -3 -9
-14 8 -10 9 -16 1 -21 -5 -3 -10 0 -10 7 0 10 -3 9 -9 -2 -6 -8 -7 -18 -4 -24
3 -5 1 -6 -5 -2 -9 5 -9 13 -2 27 24 43 72 108 129 172 53 58 60 71 50 88 -5
11 -21 25 -35 31 -30 14 -35 10 -134 -116 -71 -90 -97 -115 -84 -81 4 8 1 15
-6 15 -7 0 -10 -13 -8 -32 3 -28 0 -32 -17 -30 -11 2 -22 7 -25 10 -8 12 -30
13 -30 2 0 -5 5 -10 10 -10 6 0 10 -4 10 -10 0 -20 -29 3 -35 28 -4 15 -11 29
-16 33 -15 9 60 102 168 212 98 98 98 98 83 125 -11 18 -25 28 -45 29 -27 3
-41 -10 -127 -105 -53 -59 -118 -136 -145 -172 -27 -36 -54 -65 -60 -65 -7 0
-18 -6 -24 -12 -8 -8 -9 -13 -3 -13 15 0 13 -28 -2 -34 -8 -3 -11 0 -7 10 3 7
0 14 -6 14 -6 0 -11 -6 -11 -14 0 -7 -8 -20 -17 -27 -10 -7 -15 -10 -11 -5 12
14 -15 35 -29 24 -10 -8 -13 -6 -13 6 0 10 5 14 11 10 8 -4 9 1 3 17 -4 13 -8
32 -8 41 0 12 -4 14 -10 8 -14 -14 -26 -12 -26 4 0 8 8 17 18 19 12 3 10 5 -7
6 -21 1 -23 -2 -17 -31 3 -19 2 -27 -2 -20 -5 8 -16 10 -27 6 -14 -6 -16 -4
-10 7 78 128 217 318 274 374 46 44 50 66 21 95 -28 28 -44 25 -83 -17 -49
-52 -184 -234 -242 -327 -27 -42 -51 -73 -54 -69 -11 14 -40 11 -34 -3 3 -8
12 -14 20 -14 13 0 13 -3 3 -15 -9 -11 -16 -12 -25 -5 -9 8 -14 5 -18 -12 -8
-27 1 -38 13 -18 6 8 10 11 10 5 0 -5 -4 -16 -8 -23 -7 -10 -13 -8 -26 7 -11
13 -14 21 -6 26 5 3 8 11 4 17 -3 5 -17 -8 -30 -29 -13 -21 -24 -32 -24 -25 0
7 -7 20 -15 29 -9 8 -13 18 -10 21 3 3 12 -3 20 -14 12 -16 14 -17 15 -3 0 19
-23 31 -45 23 -20 -8 45 107 151 267 81 121 202 258 389 439 88 86 134 121
276 211 248 156 480 247 779 304 74 14 168 33 208 42 67 15 71 17 57 33 -12
14 -17 57 -22 212 -3 108 -3 203 0 212 6 14 35 16 256 16 137 0 255 -2 263 -5z
m-797 -114 c-7 -22 27 -35 44 -18 16 16 23 3 8 -16 -6 -10 -21 -19 -32 -21
-11 -2 -74 -18 -140 -36 -351 -93 -623 -213 -888 -391 -62 -42 -77 -48 -57
-24 9 10 9 15 1 15 -10 0 -15 -13 -12 -32 0 -4 -22 -24 -49 -45 -27 -21 -49
-41 -50 -44 0 -4 14 -12 31 -20 37 -15 20 -23 206 103 164 110 302 183 481
253 224 87 486 155 597 155 l47 0 -7 -52 c-9 -62 -11 -68 -32 -68 -29 0 -259
-61 -383 -101 -341 -112 -565 -232 -810 -435 -91 -75 -275 -263 -352 -359
-113 -142 -296 -445 -344 -570 -13 -35 -22 -45 -40 -45 -12 0 -29 6 -36 14
-12 11 -17 11 -36 -4 -11 -10 -18 -21 -14 -25 4 -5 1 -5 -7 0 -9 5 -19 2 -28
-10 -20 -28 -16 -13 23 93 100 270 351 642 593 877 28 27 51 52 51 56 0 3 -18
13 -40 22 -39 15 -41 15 -51 -5 -6 -12 -46 -58 -88 -102 -42 -45 -98 -108
-126 -141 -27 -33 -55 -65 -62 -72 -6 -7 -21 -28 -33 -48 -12 -19 -26 -32 -32
-29 -16 10 -78 -70 -64 -84 3 -3 6 -1 6 5 0 5 9 20 19 32 11 13 22 28 24 34 2
7 8 9 12 5 4 -4 -22 -51 -57 -105 -81 -122 -139 -222 -178 -306 -25 -54 -33
-64 -50 -60 -11 3 -20 10 -20 15 0 5 10 6 23 3 17 -6 19 -4 11 5 -6 6 -19 12
-28 14 -18 2 -19 7 -9 32 3 8 1 20 -6 27 -14 14 -15 40 -1 32 6 -4 8 -11 5
-16 -4 -5 -2 -9 3 -9 10 0 22 23 22 42 0 6 -7 8 -15 4 -8 -3 -15 -1 -15 3 0 5
7 11 15 15 8 3 15 1 15 -5 0 -6 4 -7 10 -4 5 3 7 20 5 38 -3 21 -2 25 3 12 4
-11 16 -21 26 -23 18 -3 18 -2 2 13 -21 22 -20 28 4 22 11 -3 23 -1 26 4 3 5
0 8 -8 7 -7 -2 -14 7 -16 20 -2 12 -7 20 -12 17 -4 -3 -13 1 -19 9 -10 12 -6
13 24 6 32 -7 35 -6 30 11 -4 11 0 26 9 35 15 14 16 14 16 0 0 -9 5 -16 10
-16 6 0 10 9 10 20 0 11 -4 20 -9 20 -5 0 -12 7 -15 16 -5 14 -4 15 9 4 9 -7
19 -10 23 -6 4 4 -1 14 -12 21 -17 13 -17 14 5 12 13 0 27 -6 31 -12 5 -6 8
-4 8 5 0 13 1 13 10 0 8 -13 10 -12 10 3 0 9 -5 17 -11 17 -5 0 -7 5 -3 12 4
6 -1 17 -11 24 -16 12 -16 13 4 11 11 -1 21 -8 21 -17 1 -12 4 -11 15 4 16 21
12 37 -8 32 -7 -1 -9 -1 -4 1 4 3 7 11 7 19 0 8 5 14 11 14 6 0 8 -7 5 -17 -4
-10 -4 -14 0 -10 4 4 13 2 20 -4 9 -8 11 -6 7 9 -3 12 1 22 11 25 9 4 16 12
16 19 0 9 -3 10 -8 2 -4 -6 -15 -11 -25 -11 -16 0 -16 2 0 19 10 12 24 16 37
13 21 -6 21 -6 2 9 -20 16 -20 16 0 16 14 0 16 2 6 9 -10 6 -9 10 7 14 16 4
19 10 14 24 -6 16 -5 16 10 5 18 -15 37 -8 37 13 0 7 7 16 16 19 8 3 12 10 9
16 -3 5 -2 10 4 10 6 0 7 7 4 17 -4 11 -3 14 6 9 7 -5 10 -15 7 -23 -3 -8 -1
-13 5 -11 6 2 9 6 8 8 -1 3 4 16 11 30 12 23 14 23 20 5 5 -15 8 -9 13 23 5
27 12 42 22 42 10 0 12 -6 8 -17 -6 -16 -5 -16 10 -4 10 8 15 21 12 31 -4 11
3 20 20 28 17 8 23 16 18 28 -4 12 -3 15 5 10 19 -12 35 3 21 20 -9 11 -9 13
2 9 8 -2 19 -1 25 3 22 15 62 85 57 101 -4 12 -3 13 5 3 14 -20 55 26 49 55
l-4 22 29 -20 c15 -11 26 -25 23 -30 -7 -11 -3 -11 19 -3 15 6 15 8 -1 19 -15
11 -15 13 5 24 12 6 22 9 22 6 0 -3 6 0 14 7 10 9 11 17 4 26 -7 8 -7 12 1 12
6 0 16 11 21 25 8 22 12 24 29 13 10 -6 17 -18 14 -25 -3 -7 0 -13 6 -13 6 0
11 5 11 11 0 5 4 7 10 4 6 -3 7 1 4 9 -6 14 5 21 29 17 10 -1 9 7 -4 32 -12
21 -11 22 8 4 18 -15 22 -16 32 -3 7 8 10 20 6 26 -3 5 -1 10 4 10 6 0 11 -7
11 -16 0 -13 2 -14 14 -1 9 8 12 24 9 36 -3 13 -1 21 7 21 7 0 10 -6 7 -14 -4
-10 0 -14 14 -13 23 2 24 10 4 27 -8 7 -15 18 -15 24 0 6 7 3 15 -8 8 -10 19
-15 26 -10 7 4 10 3 5 -4 -3 -6 -2 -13 4 -17 5 -3 15 3 22 15 15 24 28 26 28
5 0 -8 7 -15 15 -15 13 0 11 5 -5 23 -20 20 -22 21 -34 5 -11 -15 -13 -15 -26
5 -12 20 -12 21 3 8 13 -10 17 -10 17 -1 0 14 53 5 58 -11 7 -18 24 -8 19 11
-4 14 0 20 11 20 15 1 15 2 -1 11 -9 5 -21 8 -26 5 -5 -3 -11 0 -14 8 -5 11 0
12 25 5 18 -5 36 -14 41 -21 6 -9 7 -7 3 5 -3 10 -6 23 -6 28 0 4 -8 6 -17 3
-17 -5 -17 -5 0 6 9 6 15 15 12 21 -4 5 -1 9 4 9 6 0 11 -4 11 -10 0 -12 22
-9 31 4 8 10 29 -1 29 -16 0 -5 -7 -8 -15 -4 -8 3 -15 1 -15 -4 0 -18 35 -10
48 10 7 12 8 20 2 20 -5 0 -10 5 -10 12 0 9 3 9 12 0 17 -17 29 -15 22 3 -4
10 0 15 11 15 10 0 15 -5 12 -13 -2 -6 2 -18 10 -26 13 -12 14 -11 9 5 -3 10
-1 26 4 34 8 13 11 12 24 -5 14 -19 15 -19 21 -2 6 14 10 15 21 6 11 -9 14 -8
14 4 0 8 -6 18 -12 20 -9 4 -8 6 3 6 8 1 20 -4 27 -11 8 -8 12 -9 12 -1 0 6 8
10 18 8 23 -3 52 13 48 28 -1 6 -1 9 1 5 8 -14 23 -9 23 7 0 8 4 15 10 15 5 0
7 -8 4 -17 -4 -13 0 -11 15 6 19 21 26 20 22 -2 -1 -5 4 -7 11 -4 7 2 12 13
10 23 -2 14 0 15 6 6 5 -8 16 -10 28 -5 17 6 18 5 4 -12 -14 -17 -14 -18 9 -5
23 12 24 13 6 26 -10 7 -22 11 -28 7 -6 -3 -7 -1 -3 5 7 11 31 6 54 -11 8 -7
12 -5 12 7 0 9 5 16 11 16 5 0 7 -5 3 -12 -5 -8 -2 -9 12 -3 10 4 27 7 36 7
18 -1 32 24 21 40 -4 7 -1 8 6 4 7 -5 10 -14 7 -22 -3 -8 1 -14 10 -14 10 0
14 6 10 15 -3 8 -1 15 4 15 6 0 10 -5 10 -11 0 -6 6 -9 13 -6 6 2 11 9 10 14
-1 6 11 9 26 7 22 -3 30 1 34 16 3 11 8 20 12 20 3 0 4 -8 0 -19z m120 -1 c3
-5 1 -10 -4 -10 -6 0 -11 5 -11 10 0 6 2 10 4 10 3 0 8 -4 11 -10z m880 0 c-3
-5 -12 -10 -18 -10 -7 0 -6 4 3 10 19 12 23 12 15 0z m85 -25 c-13 -16 -10
-18 14 -9 9 3 14 10 11 14 -2 4 5 7 17 6 12 0 23 -7 26 -14 2 -8 -3 -10 -15
-6 -10 3 -5 -2 11 -11 20 -12 31 -14 39 -6 8 8 6 11 -8 11 -10 0 -16 3 -12 6
8 8 48 -6 42 -15 -2 -5 7 -6 20 -3 14 2 23 8 20 12 -3 5 9 15 27 24 33 16 33
16 11 -3 -24 -20 -30 -41 -13 -41 5 0 13 8 19 18 8 14 12 15 23 4 11 -11 11
-13 -1 -10 -7 2 -16 -4 -19 -12 -2 -8 -1 -12 3 -8 4 4 16 3 26 -2 11 -6 20 -6
23 -1 4 5 1 11 -5 13 -7 2 4 4 23 4 26 0 34 -4 31 -14 -3 -7 -12 -11 -19 -8
-7 3 -16 0 -20 -6 -5 -7 2 -9 20 -6 18 4 29 1 33 -8 3 -8 13 -14 22 -14 9 0
21 -4 27 -10 5 -5 18 -11 29 -13 11 -1 25 -5 30 -9 9 -5 110 -4 110 2 0 1 10
4 22 5 19 2 21 -1 12 -16 -7 -15 -6 -19 6 -19 8 0 14 3 14 8 -3 16 2 23 11 17
8 -5 7 -11 -1 -21 -16 -20 1 -17 24 3 18 17 18 17 6 -10 -7 -15 -16 -27 -21
-27 -4 0 -8 -4 -8 -10 0 -19 17 -10 28 15 10 21 15 24 31 16 10 -6 21 -8 24
-5 3 3 4 -2 3 -13 -3 -13 -11 -17 -30 -16 -14 1 -26 -2 -26 -8 0 -5 7 -9 15
-9 8 0 15 -5 15 -12 0 -6 3 -8 7 -5 3 4 12 2 20 -4 9 -9 13 -8 13 0 0 6 4 11
10 11 5 0 7 -7 4 -15 -4 -9 0 -15 10 -15 9 0 16 -5 16 -11 0 -5 4 -8 9 -4 5 3
12 1 16 -5 4 -6 11 -5 19 3 8 6 12 16 9 21 -3 4 -9 2 -14 -5 -4 -7 -11 -10
-15 -6 -4 3 -2 13 4 20 7 8 11 16 9 18 -1 2 4 -2 11 -10 6 -8 12 -11 12 -7 0
4 5 4 10 1 8 -5 7 -12 -2 -22 -20 -25 -18 -41 5 -35 12 3 18 1 14 -5 -8 -13
76 -38 99 -29 14 5 15 4 5 -8 -8 -9 -8 -16 -2 -20 5 -4 15 2 21 11 10 16 11
15 6 -5 -3 -18 -1 -22 10 -18 8 3 17 -1 21 -9 3 -10 12 -13 25 -9 18 5 18 4 8
-16 -6 -12 -9 -24 -7 -27 3 -2 10 5 17 16 6 12 15 19 21 15 7 -4 6 -10 -1 -19
-7 -9 -6 -16 5 -25 9 -7 14 -19 11 -25 -3 -8 4 -10 20 -7 13 2 24 0 24 -7 0
-5 6 -8 14 -5 8 3 17 0 21 -5 3 -6 11 -9 16 -5 5 3 9 2 8 -3 -3 -19 2 -25 14
-15 13 10 33 -3 34 -23 0 -5 9 -15 20 -20 11 -6 18 -17 16 -25 -3 -10 2 -8 14
5 25 27 54 34 32 8 -29 -33 -31 -42 -8 -36 19 5 21 3 17 -25 -6 -40 -3 -40 22
1 l20 32 0 -27 c0 -15 -7 -34 -16 -42 -8 -9 -11 -16 -5 -16 5 0 14 8 20 17 5
10 13 15 17 11 4 -4 2 -14 -5 -21 -9 -12 -5 -14 24 -10 21 2 35 -1 35 -7 0 -6
-4 -9 -9 -5 -6 3 -15 -3 -21 -12 -8 -13 -13 -14 -16 -5 -3 6 -10 12 -15 12 -5
0 -4 -9 3 -20 7 -11 18 -20 25 -20 6 0 13 -6 16 -12 2 -7 8 -9 13 -5 5 4 2 12
-5 16 -7 5 -10 14 -7 20 10 16 26 14 26 -3 0 -8 12 -23 27 -34 27 -20 27 -20
9 -41 -11 -12 -15 -21 -9 -21 11 0 37 28 47 50 9 21 0 -30 -9 -55 -7 -19 -7
-19 7 -1 13 17 15 17 21 2 4 -9 13 -16 22 -16 20 0 19 -24 -1 -45 -14 -13 -14
-19 -4 -28 8 -7 10 -8 7 -1 -4 6 5 21 19 33 21 18 29 20 38 10 8 -9 8 -10 -1
-5 -17 10 -16 -6 2 -30 19 -25 19 -64 1 -64 -8 0 -17 -4 -20 -9 -9 -14 32 -1
44 14 8 10 8 20 0 36 -10 17 -9 20 2 17 8 -3 12 -18 11 -42 -2 -22 1 -34 7
-31 6 4 8 10 5 15 -3 4 2 13 9 19 10 8 16 9 21 1 3 -5 1 -10 -5 -10 -6 0 -9
-4 -5 -9 3 -5 -2 -16 -11 -25 -8 -9 -12 -21 -9 -26 4 -6 15 0 27 15 10 14 25
25 31 25 9 0 9 -2 0 -8 -6 -4 -13 -16 -15 -27 -2 -15 2 -19 15 -17 17 3 17 2
1 -23 l-17 -26 31 6 c25 4 30 2 26 -10 -4 -8 1 -31 11 -51 14 -31 19 -33 33
-22 13 11 15 11 7 -2 -4 -8 -17 -28 -28 -44 l-20 -28 21 11 c12 7 22 17 22 23
0 7 4 7 14 -1 11 -9 15 -9 20 1 3 7 4 1 1 -14 -6 -30 3 -36 24 -15 11 10 11 8
2 -11 -7 -12 -9 -28 -5 -34 4 -6 3 -8 -3 -5 -6 4 -19 0 -29 -8 -18 -13 -18
-14 6 -8 24 5 24 5 6 -9 -15 -12 -16 -17 -6 -23 9 -6 11 -4 5 5 -5 8 -3 11 6
8 8 -3 18 4 24 15 5 11 17 23 25 25 8 3 0 -13 -18 -35 -24 -30 -28 -43 -20
-51 7 -7 16 -12 22 -12 5 0 1 7 -10 15 -10 8 -14 15 -9 15 6 1 20 3 33 6 22 4
31 -10 12 -21 -13 -8 -1 -35 16 -35 14 0 18 11 15 40 -1 12 1 12 9 -2 7 -11 7
-25 0 -44 -6 -15 -9 -33 -6 -41 3 -7 -1 -13 -9 -13 -19 0 -28 17 -13 23 8 3 6
6 -4 6 -10 1 -18 -6 -18 -14 0 -8 5 -15 11 -15 5 0 7 -4 4 -10 -4 -6 2 -7 17
-1 16 6 22 15 20 30 -2 11 1 21 6 21 14 0 5 -72 -10 -82 -10 -8 -9 -9 4 -5 22
8 32 -21 14 -39 -13 -12 -13 -18 -1 -41 8 -15 12 -29 10 -32 -7 -6 -7 -7 -74
125 -116 229 -302 487 -490 677 -151 154 -229 218 -490 401 -184 129 -520 271
-796 336 -27 6 -74 18 -102 26 l-53 15 18 24 c9 13 19 21 21 19 2 -2 -2 -10
-9 -19z m155 5 c-3 -5 -12 -10 -18 -10 -7 0 -6 4 3 10 19 12 23 12 15 0z
m-1430 -10 c5 -8 11 -7 21 1 8 7 14 7 14 1 0 -18 -33 -23 -49 -7 -9 9 -11 15
-4 15 7 0 15 -5 18 -10z m295 0 c0 -5 -10 -10 -22 -10 -19 0 -20 2 -8 10 19
13 30 13 30 0z m30 6 c0 -3 -4 -8 -10 -11 -5 -3 -10 -1 -10 4 0 6 5 11 10 11
6 0 10 -2 10 -4z m1323 -28 c-24 -39 -3 -58 27 -26 15 17 19 18 15 6 -5 -12
-1 -20 9 -24 9 -3 13 -10 10 -15 -3 -5 0 -9 5 -9 15 0 14 27 -1 33 -10 4 -10
6 -1 6 17 1 25 -16 18 -39 -4 -12 -11 -17 -18 -13 -7 4 -16 8 -22 9 -42 8
-115 54 -86 54 6 0 11 -5 11 -12 0 -12 15 -2 15 10 0 10 15 32 21 32 3 0 2 -6
-3 -12z m-1893 -48 c8 -5 11 -10 5 -10 -5 0 -17 5 -25 10 -8 5 -10 10 -5 10 6
0 17 -5 25 -10z m2022 -7 c-6 -2 -10 -9 -7 -14 4 -5 -1 -6 -10 -2 -13 5 -14 7
-3 14 7 5 18 8 23 8 6 0 4 -3 -3 -6z m-2062 -13 c0 -5 -4 -10 -10 -10 -5 0
-10 5 -10 10 0 6 5 10 10 10 6 0 10 -4 10 -10z m1598 -26 c526 -108 1042 -405
1398 -803 46 -51 81 -98 77 -104 -3 -5 -1 -7 5 -4 23 15 186 -221 281 -406 55
-107 141 -312 141 -336 0 -6 -8 -11 -17 -11 -14 0 -15 2 -5 9 11 7 11 9 -2 14
-8 3 -17 1 -20 -6 -3 -7 -5 -6 -5 3 2 31 -1 41 -13 34 -7 -5 -9 -2 -5 8 9 24
-4 30 -30 13 -21 -14 -24 -14 -35 5 -17 27 -27 25 -22 -2 3 -13 -22 30 -56 96
-119 234 -208 366 -383 570 -211 246 -450 435 -724 574 -234 118 -455 194
-673 230 -82 14 -106 21 -108 35 -2 11 6 21 25 29 25 10 26 12 8 16 -29 6 -45
22 -45 43 0 27 53 25 208 -7z m497 16 c-3 -5 -11 -10 -16 -10 -6 0 -7 5 -4 10
3 6 11 10 16 10 6 0 7 -4 4 -10z m-2155 -10 c0 -5 -2 -10 -4 -10 -3 0 -8 5
-11 10 -3 6 -1 10 4 10 6 0 11 -4 11 -10z m2346 -69 c-3 -5 3 -11 14 -14 10
-3 21 0 24 7 3 6 3 0 2 -13 -2 -14 -9 -27 -17 -29 -12 -3 -12 -2 0 6 17 13 3
20 -31 16 -31 -3 -34 0 -15 21 13 16 32 20 23 6z m119 -80 c-3 -6 -11 -11 -16
-11 -5 0 -4 6 3 14 14 16 24 13 13 -3z m30 -10 c-4 -14 0 -21 12 -24 12 -3 13
-5 3 -6 -8 0 -21 3 -29 8 -12 8 -12 12 -2 25 18 21 24 20 16 -3z m42 -27 c2
-13 1 -15 -4 -4 -3 8 -11 19 -17 23 -7 6 -6 7 4 4 8 -2 16 -12 17 -23z m-3002
-55 c11 -16 1 -19 -13 -3 -7 8 -8 14 -3 14 5 0 13 -5 16 -11z m-35 -40 c0 -6
-7 -9 -15 -5 -8 3 -15 1 -15 -4 0 -6 -5 -10 -11 -10 -8 0 -8 4 1 15 6 8 9 19
5 26 -6 8 -2 8 14 0 11 -7 21 -17 21 -22z m3202 -31 c-8 -8 -9 -4 -5 13 4 13
8 18 11 10 2 -7 -1 -18 -6 -23z m35 -8 c-1 -20 -9 -25 -20 -13 -4 3 -2 12 4
20 15 18 18 17 16 -7z m-3362 -40 c3 -5 2 -10 -4 -10 -5 0 -13 5 -16 10 -3 6
-2 10 4 10 5 0 13 -4 16 -10z m-28 -15 c4 -4 2 -5 -4 -1 -7 4 -13 2 -13 -4 0
-6 -4 -8 -10 -5 -5 3 -10 10 -10 15 0 10 27 7 37 -5z m-97 -55 c0 -5 -2 -10
-4 -10 -3 0 -8 5 -11 10 -3 6 -1 10 4 10 6 0 11 -4 11 -10z m-45 -40 c3 -5 1
-10 -4 -10 -6 0 -11 5 -11 10 0 6 2 10 4 10 3 0 8 -4 11 -10z m-35 -64 c0 -26
-6 -18 -14 19 -5 22 -4 26 4 15 5 -8 10 -24 10 -34z m-84 -65 c0 -11 -4 -17
-8 -15 -4 3 -8 12 -8 20 0 8 4 14 8 14 4 0 8 -9 8 -19z m4007 -11 c-3 -12 -8
-19 -11 -16 -5 6 5 36 12 36 2 0 2 -9 -1 -20z m-4033 -30 c0 -5 -2 -10 -4 -10
-3 0 -8 5 -11 10 -3 6 -1 10 4 10 6 0 11 -4 11 -10z m-83 -52 c-3 -8 -6 -5 -6
6 -1 11 2 17 5 13 3 -3 4 -12 1 -19z m4190 0 c-3 -8 -6 -5 -6 6 -1 11 2 17 5
13 3 -3 4 -12 1 -19z m-4250 -80 c-3 -8 -6 -5 -6 6 -1 11 2 17 5 13 3 -3 4
-12 1 -19z m-17 -29 c0 -6 -4 -7 -10 -4 -5 3 -10 11 -10 16 0 6 5 7 10 4 6 -3
10 -11 10 -16z m4490 -128 c0 -5 -7 -12 -16 -15 -14 -5 -15 -4 -4 9 14 17 20
19 20 6z m-4660 -100 c0 -6 -4 -13 -10 -16 -5 -3 -10 1 -10 9 0 9 5 16 10 16
6 0 10 -4 10 -9z m4820 -146 c0 -8 -7 -15 -15 -15 -8 0 -15 -5 -15 -12 0 -6
-3 -8 -7 -5 -3 4 2 16 12 27 22 24 25 25 25 5z m-4940 -45 c0 -5 -2 -10 -4
-10 -3 0 -8 5 -11 10 -3 6 -1 10 4 10 6 0 11 -4 11 -10z m4940 -26 c0 -8 -5
-12 -10 -9 -6 4 -8 11 -5 16 9 14 15 11 15 -7z m67 -64 c-3 -13 0 -20 8 -20
11 0 11 -6 -3 -29 -11 -19 -19 -26 -24 -18 -4 6 -3 16 2 22 5 6 7 20 6 30 -4
21 1 35 11 35 3 0 3 -9 0 -20z m30 -65 c0 -8 -4 -12 -9 -9 -5 3 -6 10 -3 15 9
13 12 11 12 -6z m-5107 -15 c0 -5 -4 -10 -9 -10 -6 0 -13 5 -16 10 -3 6 1 10
9 10 9 0 16 -4 16 -10z m5092 -18 c-7 -2 -17 -13 -24 -25 -10 -20 -10 -21 5
-8 10 8 17 9 17 3 0 -6 -5 -14 -10 -17 -6 -4 -8 -12 -4 -18 3 -7 -2 -3 -10 7
-9 11 -16 23 -16 28 0 14 35 45 45 40 5 -3 4 -7 -3 -10z m30 -9 c-5 -10 -7
-25 -5 -33 4 -12 3 -12 -5 -1 -11 15 -4 51 10 51 5 0 5 -7 0 -17z m-5102 -63
c0 -5 -4 -10 -10 -10 -5 0 -10 5 -10 10 0 6 5 10 10 10 6 0 10 -4 10 -10z
m420 -32 c0 -12 -3 -18 -7 -14 -11 10 -12 36 -2 36 5 0 9 -10 9 -22z m4200 3
c7 -15 7 -22 -2 -27 -7 -4 -10 -4 -6 1 4 4 3 16 -3 26 -5 11 -7 19 -5 19 3 0
10 -9 16 -19z m460 -16 c0 -5 -5 -3 -10 5 -5 8 -10 20 -10 25 0 6 5 3 10 -5 5
-8 10 -19 10 -25z m-4364 -19 c-8 -15 -16 -23 -20 -18 -5 9 23 56 30 49 2 -2
-2 -16 -10 -31z m-736 20 c0 -3 -4 -8 -10 -11 -5 -3 -10 -1 -10 4 0 6 5 11 10
11 6 0 10 -2 10 -4z m515 -6 c3 -5 1 -10 -4 -10 -6 0 -11 5 -11 10 0 6 2 10 4
10 3 0 8 -4 11 -10z m185 -5 c0 -8 -2 -15 -4 -15 -2 0 -6 7 -10 15 -3 8 -1 15
4 15 6 0 10 -7 10 -15z m-290 -5 c0 -5 -5 -10 -11 -10 -5 0 -7 5 -4 10 3 6 8
10 11 10 2 0 4 -4 4 -10z m267 -16 c2 -13 1 -15 -4 -4 -3 8 -11 19 -17 23 -7
6 -6 7 4 4 8 -2 16 -12 17 -23z m3979 -2 c-17 -16 -18 -16 -5 5 7 12 15 20 18
17 3 -2 -3 -12 -13 -22z m-2156 3 c7 -9 10 -18 6 -22 -3 -3 -6 -1 -6 6 0 7 -4
10 -9 7 -5 -3 -11 1 -15 9 -7 19 8 19 24 0z m-2005 -5 c3 -5 1 -10 -4 -10 -6
0 -11 5 -11 10 0 6 2 10 4 10 3 0 8 -4 11 -10z m45 6 c0 -2 -7 -7 -16 -10 -8
-3 -12 -2 -9 4 6 10 25 14 25 6z m460 -6 c0 -5 -2 -10 -4 -10 -3 0 -8 5 -11
10 -3 6 -1 10 4 10 6 0 11 -4 11 -10z m2235 -10 c3 -5 1 -10 -4 -10 -6 0 -11
5 -11 10 0 6 2 10 4 10 3 0 8 -4 11 -10z m-2235 -15 c0 -12 -19 -12 -23 0 -4
9 -1 12 9 8 7 -3 14 -7 14 -8z m1950 5 c0 -5 -2 -10 -4 -10 -3 0 -8 5 -11 10
-3 6 -1 10 4 10 6 0 11 -4 11 -10z m1101 3 c-11 -5 -11 -7 0 -14 10 -6 6 -8
-11 -5 -14 3 -27 5 -30 6 -7 2 33 19 45 19 6 -1 4 -3 -4 -6z m-3089 -35 c-7
-7 -12 -8 -12 -2 0 14 12 26 19 19 2 -3 -1 -11 -7 -17z m3138 12 c0 -5 -5 -10
-11 -10 -5 0 -7 5 -4 10 3 6 8 10 11 10 2 0 4 -4 4 -10z m-3914 -16 c18 -14
18 -14 -6 -3 -31 14 -36 19 -24 19 6 0 19 -7 30 -16z m555 -17 c-10 -9 -11 -8
-5 6 3 10 9 15 12 12 3 -3 0 -11 -7 -18z m859 -29 c0 -4 -5 -8 -11 -8 -5 0 -7
4 -4 10 4 6 -3 9 -16 7 -12 -1 -24 4 -27 12 -3 8 0 11 7 7 6 -4 11 -2 11 5 0
7 8 5 20 -6 11 -10 20 -22 20 -27z m2150 32 c0 -5 -10 -10 -22 -9 -22 0 -22 1
-3 9 11 5 21 9 23 9 1 1 2 -3 2 -9z m-2033 -6 c-3 -3 -12 -4 -19 -1 -8 3 -5 6
6 6 11 1 17 -2 13 -5z m703 -3 c0 -5 -7 -11 -15 -15 -15 -5 -20 5 -8 17 9 10
23 9 23 -2z m1084 -7 c3 -8 2 -12 -4 -9 -6 3 -10 10 -10 16 0 14 7 11 14 -7z
m-2164 -4 c0 -5 -5 -10 -11 -10 -5 0 -7 5 -4 10 3 6 8 10 11 10 2 0 4 -4 4
-10z m510 -40 c0 -5 -2 -10 -4 -10 -3 0 -8 5 -11 10 -3 6 -1 10 4 10 6 0 11
-4 11 -10z m3240 -110 c13 -21 12 -26 -6 -44 -14 -15 -254 -16 -2544 -15
-2220 1 -2529 3 -2534 16 -9 22 -7 30 10 47 14 15 252 16 2540 14 2231 -3
2526 -5 2534 -18z m-5160 -210 c9 -17 7 -22 -15 -30 -14 -5 -36 -8 -48 -6 -12
3 -30 5 -39 5 -12 1 -18 9 -18 26 0 24 3 25 55 25 44 0 56 -4 65 -20z m1065
-1 c9 -9 11 -19 5 -29 -8 -12 -74 -14 -454 -15 -306 0 -448 3 -456 11 -14 14
-3 42 18 47 10 2 210 3 445 2 356 -1 430 -4 442 -16z m1117 10 c24 -13 20 -41
-7 -47 -15 -3 -817 -6 -907 -3 -26 1 -23 40 5 50 33 13 885 13 909 0z m809 -6
c6 -6 9 -19 6 -27 -6 -14 -36 -16 -219 -17 -117 -1 -250 -2 -296 -2 -84 -1
-107 9 -95 39 7 18 25 19 325 19 192 0 270 -3 279 -12z m640 7 c21 -12 25 -35
8 -46 -21 -12 -419 -11 -436 1 -21 16 -10 42 19 48 50 9 390 7 409 -3z m1062
-4 c9 -5 17 -16 17 -26 0 -10 -8 -20 -17 -22 -29 -8 -825 0 -856 7 -18 5 -27
13 -25 24 2 12 19 17 73 21 112 8 788 5 808 -4z m460 5 c30 -12 36 -37 10 -45
-10 -3 -80 -5 -155 -5 -99 1 -138 4 -141 13 -7 18 5 33 28 37 49 10 233 9 258
0z m-5162 -171 c27 -15 24 -38 -6 -46 -35 -9 -144 -9 -177 -1 -27 7 -38 34
-21 50 10 11 182 8 204 -3z m566 -54 c118 -31 204 -98 268 -208 62 -104 78
-168 79 -303 1 -132 -11 -193 -55 -292 -32 -69 -37 -103 -15 -103 8 0 21 -3
30 -6 12 -5 16 0 16 18 0 54 46 63 92 18 26 -27 29 -35 24 -68 -21 -114 -152
-160 -286 -100 l-54 24 -58 -23 c-44 -18 -77 -24 -141 -24 -268 -1 -439 211
-455 564 -1 15 -2 35 -3 45 -2 30 41 173 68 226 91 179 305 281 490 232z m774
-6 c26 -14 24 -46 -2 -53 l-21 -6 7 -313 c3 -172 11 -331 17 -353 32 -129 193
-150 254 -33 23 45 35 246 16 276 -12 18 -12 28 -3 48 7 15 11 87 11 189 0
163 0 164 -25 183 -14 11 -25 26 -25 34 0 32 23 38 156 38 107 0 136 -3 148
-16 22 -21 20 -41 -4 -49 -19 -6 -20 -15 -20 -339 0 -351 -5 -397 -50 -486
-32 -63 -102 -125 -172 -151 -50 -19 -82 -24 -158 -24 -86 0 -101 3 -160 31
-83 40 -154 111 -181 183 -39 105 -42 143 -36 459 l5 304 -29 16 c-33 20 -35
28 -12 54 14 16 33 18 140 18 68 0 133 -5 144 -10z m1181 -7 c24 -22 23 -32
-7 -43 -29 -11 -32 2 45 -225 33 -99 81 -254 106 -345 63 -230 103 -350 125
-368 23 -20 24 -38 3 -46 -9 -3 -81 -6 -160 -6 -161 0 -173 5 -134 58 21 28
22 34 10 81 -6 28 -21 62 -32 76 -18 23 -26 25 -98 25 -79 0 -80 0 -96 -31
-24 -47 -30 -132 -11 -159 31 -45 17 -50 -148 -50 -171 0 -184 6 -140 59 17
19 43 91 81 217 31 104 74 250 96 324 22 74 55 187 73 250 l33 115 -24 18
c-28 22 -30 30 -8 51 23 24 259 23 286 -1z m665 -10 c14 -21 14 -23 -9 -32
l-25 -9 5 -350 c5 -338 1 -429 -18 -417 -5 3 -12 0 -15 -6 -7 -11 32 -55 42
-46 3 3 -4 12 -16 19 -26 16 -28 32 -2 18 28 -15 35 -12 20 7 -13 15 -12 15 9
4 25 -13 183 -6 214 10 9 5 26 25 38 44 18 29 28 35 49 33 21 -2 26 -8 24 -28
-19 -200 -26 -246 -41 -257 -12 -10 -89 -13 -304 -13 -262 0 -289 2 -295 17
-4 9 -1 19 5 21 6 2 21 11 33 21 21 17 22 23 21 254 0 130 -2 240 -5 244 -3 4
-1 91 4 193 10 194 7 230 -15 230 -7 0 -20 7 -27 16 -11 14 -10 19 10 35 21
17 38 19 154 17 121 -3 131 -4 144 -25z m1064 17 c27 -15 24 -39 -6 -50 -23
-9 -25 -14 -20 -47 8 -46 19 -85 38 -138 24 -65 -3 -89 -46 -39 -19 22 -31 25
-87 27 l-65 2 -3 -358 -2 -358 25 -24 c14 -15 22 -32 19 -40 -9 -23 -322 -21
-331 2 -4 10 5 24 26 40 l31 24 0 343 c0 189 -3 357 -6 374 -6 31 -7 31 -60
29 -31 -1 -52 -6 -50 -12 2 -5 10 -9 17 -7 11 3 11 1 2 -9 -9 -9 -16 -9 -25
-2 -10 8 -23 1 -53 -28 -51 -49 -75 -51 -75 -6 0 17 4 48 9 67 23 87 23 128 2
149 -21 21 -27 51 -14 64 11 12 652 8 674 -3z m419 -10 c23 -23 19 -40 -10
-40 -10 0 -21 -4 -24 -9 -6 -8 68 -159 100 -206 8 -11 14 -28 14 -38 0 -13 6
-18 22 -15 18 2 32 25 69 108 65 147 65 148 35 162 -14 6 -26 16 -26 23 0 30
26 35 180 35 146 0 158 -1 176 -21 18 -20 18 -21 -1 -35 -10 -8 -26 -14 -36
-14 -11 0 -18 -12 -23 -37 -3 -21 -59 -137 -123 -258 l-117 -220 -4 -192 -3
-191 28 -26 c46 -42 24 -51 -147 -54 -132 -3 -151 -2 -156 13 -4 10 3 26 19
43 l25 27 -3 185 -4 185 -67 130 c-125 246 -179 339 -221 384 -24 25 -43 48
-43 52 0 20 46 28 178 28 130 1 144 -1 162 -19z m-4782 -182 c19 -19 14 -25
-33 -37 -58 -14 -91 -1 -75 29 8 15 21 20 53 20 24 0 48 -5 55 -12z m5515
-230 c47 -23 -5 -46 -105 -45 -82 0 -102 12 -71 42 12 13 33 16 87 14 39 -2
79 -7 89 -11z m-5552 -208 c25 -14 25 -62 -1 -85 -44 -39 -104 32 -65 75 20
22 37 25 66 10z m5597 -44 c2 -10 -1 -22 -7 -25 -6 -4 -60 -6 -121 -6 -116 1
-144 11 -120 40 11 13 33 15 129 13 104 -3 116 -5 119 -22z m-177 -222 c5 -3
9 -13 9 -23 0 -14 -8 -17 -46 -17 -25 1 -48 -3 -51 -7 -3 -4 -12 -2 -21 5 -13
11 -14 11 -8 0 7 -11 4 -12 -11 -3 -11 6 -23 8 -26 4 -4 -3 -10 2 -13 12 -12
30 20 44 93 39 35 -2 69 -6 74 -10z m-5223 -270 c12 -2 22 -11 22 -19 0 -23
-47 -36 -119 -33 -56 3 -66 6 -69 22 -6 32 23 45 86 40 31 -3 67 -7 80 -10z
m5297 -19 l0 -30 -182 -3 c-152 -2 -183 0 -183 12 0 32 29 39 164 40 74 1 138
5 142 9 5 4 20 7 34 5 20 -2 25 -8 25 -33z m-1828 -5 c7 -10 10 -26 7 -35 -8
-21 -51 -30 -69 -15 -15 13 -20 51 -8 63 14 15 59 6 70 -13z m-2203 -6 c21 -8
20 -31 -1 -38 -10 -3 -126 -5 -258 -5 -240 1 -278 6 -255 35 9 9 69 13 254 13
134 1 251 -2 260 -5z m324 -6 c7 -7 12 -8 12 -2 0 10 86 12 96 2 3 -3 20 -2
39 2 25 6 33 5 28 -4 -4 -6 1 -5 10 3 13 10 17 10 17 1 0 -9 4 -9 13 -3 14 11
216 18 247 8 22 -7 27 -34 8 -36 -7 -1 -69 -3 -138 -5 -87 -2 -127 1 -132 9
-6 9 -8 9 -8 0 0 -10 -30 -13 -114 -13 -116 0 -139 7 -116 35 15 18 22 19 38
3z m835 -3 c-3 -5 0 -4 8 3 16 15 109 16 109 1 0 -5 4 -7 10 -4 5 3 7 0 4 -9
-8 -21 -34 -28 -50 -15 -11 9 -14 8 -14 -1 0 -9 -4 -9 -17 1 -11 10 -14 10 -9
2 5 -10 -15 -13 -93 -13 -99 0 -118 6 -107 35 4 11 23 14 85 13 51 -2 78 -6
74 -13z m462 3 c167 12 233 13 239 4 3 -6 15 -8 26 -5 16 4 20 0 20 -18 0 -19
-2 -21 -10 -9 -7 10 -10 11 -10 2 0 -16 -386 -16 -397 0 -13 22 29 39 77 32
25 -4 50 -7 55 -6z m847 1 c15 -8 19 -8 14 0 -4 6 -2 11 3 11 6 0 11 -5 11
-11 0 -8 5 -8 15 1 11 9 15 9 15 1 0 -7 5 -9 10 -6 6 4 106 9 222 12 169 4
212 2 219 -9 5 -8 9 -8 9 -2 0 7 19 12 46 12 42 1 45 0 39 -21 l-7 -22 17 23
c16 22 42 32 29 11 -5 -8 -1 -8 14 0 25 13 281 15 301 2 8 -5 11 -16 8 -25
-10 -24 -107 -23 -108 2 0 15 -1 15 -7 1 -6 -13 -25 -16 -107 -16 -63 0 -103
4 -107 11 -6 8 -8 8 -8 -1 0 -8 -89 -11 -340 -12 -322 -1 -340 0 -340 17 0 33
17 40 52 21z m1381 -191 c9 -13 7 -22 -7 -37 -14 -15 -27 -18 -59 -15 -44 5
-49 6 -82 4 -11 0 -27 0 -35 -1 -8 0 -352 0 -765 0 -412 0 -770 -1 -795 -1
-106 -2 -2514 -1 -2605 1 -55 2 -102 2 -105 2 -24 -7 -140 -4 -140 3 0 5 -6 4
-12 -2 -8 -6 -97 -9 -231 -8 -188 2 -219 4 -234 19 -16 15 -15 18 2 37 l18 20
2520 -2 c2354 -3 2521 -4 2530 -20z m-1769 -190 c-3 -5 -9 -6 -14 -3 -5 3 -11
2 -14 -3 -2 -4 4 -14 16 -21 11 -7 17 -8 14 -2 -4 5 -2 12 4 16 6 4 10 -6 10
-23 0 -32 12 -45 48 -57 18 -5 29 1 54 29 34 39 48 45 48 20 0 -8 5 -12 10 -9
6 4 8 10 5 15 -3 4 2 11 11 14 8 3 12 10 9 16 -3 5 -1 10 5 10 7 0 10 -7 6
-15 -6 -17 9 -21 19 -5 3 6 10 10 14 10 4 0 -9 -18 -31 -40 -44 -47 -48 -73
-13 -96 24 -16 27 -15 60 10 19 15 35 30 35 34 0 4 12 21 27 37 14 17 24 23
21 15 -14 -41 -19 -64 -10 -52 5 7 16 10 25 6 12 -4 17 -1 17 12 0 16 -2 17
-10 4 -5 -8 -10 -10 -10 -4 0 6 8 18 17 25 11 10 14 10 9 2 -4 -7 -2 -13 4
-13 16 0 5 -72 -14 -85 -23 -17 -20 -58 5 -74 27 -16 56 -3 84 40 11 16 25 27
32 25 7 -3 10 1 7 9 -7 17 34 31 49 16 7 -7 6 -15 -3 -26 -7 -9 -8 -15 -2 -15
6 0 16 13 23 29 11 24 15 27 27 15 16 -16 32 -18 32 -4 0 6 -4 10 -10 10 -16
0 -12 19 10 42 11 12 20 17 20 12 0 -6 -5 -15 -11 -21 -9 -9 -6 -20 11 -43
l23 -32 -67 -61 c-68 -64 -80 -93 -50 -118 21 -17 61 5 137 77 47 45 61 53 73
43 9 -7 14 -8 14 -1 0 6 -5 12 -10 14 -6 2 10 26 35 53 26 28 44 45 40 38 -3
-7 4 -17 15 -23 11 -6 18 -15 15 -21 -4 -5 1 -16 9 -25 9 -9 13 -21 10 -27 -5
-9 -4 -9 5 -1 13 12 0 54 -27 87 -9 9 -10 17 -5 17 14 0 27 -18 42 -63 15 -46
15 -46 -140 -203 -111 -114 -124 -137 -91 -167 14 -12 22 -13 44 -4 50 22 290
266 386 392 55 73 69 85 98 85 34 0 73 -20 79 -41 9 -27 -15 -65 -117 -191
-171 -209 -336 -360 -553 -505 -250 -167 -413 -247 -661 -327 -99 -31 -159
-45 -399 -90 l-60 -11 -3 -222 c-2 -221 -3 -223 -25 -228 -12 -3 -128 -5 -257
-3 l-235 3 -1 224 c-1 191 -3 225 -16 232 -9 5 -67 16 -129 24 -289 40 -641
170 -889 327 -143 90 -349 256 -459 367 -118 120 -311 357 -311 383 0 26 50
59 84 56 24 -2 43 -19 91 -78 171 -212 354 -390 400 -390 24 0 45 24 45 52 0
7 -42 56 -93 108 -120 124 -223 250 -198 243 22 -6 46 30 35 50 -5 8 -2 7 9
-2 12 -9 14 -17 7 -26 -5 -6 -7 -15 -3 -18 3 -4 -1 -7 -10 -7 -21 0 -22 -26
-2 -34 8 -3 14 0 12 7 -1 8 9 11 28 10 27 -2 28 -2 8 7 -26 11 -32 26 -7 16
11 -4 18 1 21 14 3 11 13 20 22 20 14 0 14 -2 1 -11 -11 -8 -12 -12 -3 -15 15
-7 -1 -52 -24 -69 -9 -7 -13 -17 -8 -24 5 -9 14 1 28 28 26 51 49 63 36 19
-10 -38 -5 -48 11 -19 6 12 8 21 4 21 -4 0 -4 3 -1 6 4 4 46 -34 95 -85 66
-69 94 -91 114 -91 26 0 38 16 38 50 0 10 -25 40 -55 67 -70 60 -89 88 -76
111 7 11 11 12 11 4 0 -7 4 -11 9 -7 5 3 13 0 16 -6 4 -5 14 -8 22 -5 11 4 13
2 9 -9 -3 -8 -2 -14 2 -14 20 3 23 -3 11 -18 -13 -15 -12 -15 8 -3 20 13 20
15 5 27 -16 11 -15 12 3 14 11 1 24 1 30 -1 5 -1 14 5 20 13 9 12 12 12 23 1
7 -8 11 -14 9 -14 -3 0 18 -22 45 -50 27 -27 55 -50 62 -50 18 0 44 23 46 40
4 28 0 37 -26 65 -28 30 -40 87 -17 78 7 -3 13 1 13 8 0 7 7 3 16 -10 12 -17
19 -20 24 -10 6 9 16 4 36 -20 46 -55 54 -61 84 -61 34 0 60 34 41 53 -17 17
-13 31 4 17 13 -11 14 -10 6 11 -5 13 -14 23 -20 21 -6 -1 -11 3 -11 9 0 5 -4
7 -10 4 -5 -3 -10 -2 -10 4 0 5 5 13 10 16 6 3 10 1 10 -4 0 -15 30 -14 31 2
0 9 2 9 6 -1 2 -6 8 -10 12 -8 4 3 8 -1 8 -9 0 -12 -3 -12 -15 -2 -13 10 -14
9 -10 -3 6 -20 46 -22 44 -2 0 8 6 17 14 19 12 4 12 3 2 -5 -11 -7 -9 -15 10
-37 32 -37 74 -37 105 -1 13 15 23 22 23 16 0 -6 4 -9 10 -5 5 3 7 12 3 20 -4
11 -1 13 11 9 15 -6 20 -18 17 -38 -1 -4 3 -24 9 -42 10 -28 17 -34 40 -34 16
0 31 4 34 8 8 13 18 64 18 90 0 27 14 29 21 2 3 -11 1 -20 -5 -20 -5 0 -6 -5
-2 -11 9 -16 27 17 18 34 -4 6 2 3 13 -8 11 -11 18 -26 15 -33 -8 -21 27 -62
53 -62 19 0 26 7 30 28 4 15 10 34 15 43 4 9 3 24 -3 35 -10 19 -10 19 11 0
21 -18 21 -20 4 -32 -9 -7 -12 -14 -6 -14 6 0 17 7 24 15 19 23 30 18 30 -14
0 -39 23 -57 58 -45 19 7 28 18 30 37 2 15 7 25 11 22 5 -2 6 6 4 18 -4 18 0
23 21 25 24 2 26 -1 26 -38 0 -41 18 -60 59 -60 19 0 51 47 51 77 0 7 5 13 11
13 6 0 8 -8 5 -17 -7 -22 7 -46 28 -49 9 -1 13 3 9 14 -4 10 -2 13 5 8 7 -4
12 -2 12 3 0 14 -13 14 -27 0 -8 -8 -13 -8 -17 0 -4 6 -1 11 8 11 8 0 16 6 19
13 7 19 35 -23 30 -44 -4 -13 2 -20 21 -25 36 -9 56 1 56 28 0 13 4 18 8 13 6
-9 26 -12 35 -6 1 2 13 5 27 7 13 2 27 9 31 15 3 6 9 -5 13 -26 7 -35 9 -36
44 -33 28 2 38 8 41 23 4 26 21 36 40 25 10 -5 19 -3 28 8 11 15 12 14 9 -8
-4 -31 20 -60 49 -60 26 0 50 24 40 40 -3 5 1 10 10 10 12 0 15 6 9 23 l-7 22
22 -20 c13 -11 22 -15 21 -10 -4 19 0 35 8 35 5 0 9 -19 10 -42 2 -42 20 -68
48 -68 21 0 44 29 37 47 -4 9 -2 14 3 11 5 -3 15 0 21 8 8 8 9 15 3 19 -6 3
-10 1 -10 -6 0 -7 -3 -10 -6 -7 -3 4 -1 15 5 26 11 20 51 20 51 0 0 -5 -6 -6
-12 -2 -10 6 -10 4 0 -7 6 -7 12 -25 12 -39 0 -33 17 -50 51 -50 28 0 39 15
39 52 0 12 8 27 18 35 16 14 16 14 0 9 -14 -4 -17 0 -16 19 1 13 5 22 9 19 4
-2 10 -1 13 4 3 5 12 9 20 9 8 0 13 -4 10 -9z m-666 -32 c-7 -8 -15 -12 -17
-11 -5 6 10 25 20 25 5 0 4 -6 -3 -14z m205 1 c-3 -5 -11 -6 -19 -3 -8 3 -11
0 -7 -10 3 -7 1 -14 -5 -14 -5 0 -12 9 -15 20 -4 16 0 19 23 17 15 -1 26 -6
23 -10z m137 -3 c0 -8 -4 -12 -10 -9 -5 3 -10 10 -10 16 0 5 5 9 10 9 6 0 10
-7 10 -16z m-1638 -6 c-8 -8 -9 -15 -1 -25 7 -8 8 -13 1 -13 -16 0 -24 33 -10
42 19 11 24 10 10 -4z m798 8 c0 -3 -4 -8 -10 -11 -5 -3 -10 -1 -10 4 0 6 5
11 10 11 6 0 10 -2 10 -4z m1604 -12 c3 -8 2 -12 -4 -9 -6 3 -10 10 -10 16 0
14 7 11 14 -7z m-1134 -20 c0 -8 -5 -12 -10 -9 -6 4 -8 11 -5 16 9 14 15 11
15 -7z m1390 6 c0 -5 -5 -10 -11 -10 -5 0 -7 5 -4 10 3 6 8 10 11 10 2 0 4 -4
4 -10z m26 -19 c0 -11 -3 -19 -6 -19 -18 1 -21 -4 -10 -17 10 -12 10 -15 -4
-15 -9 0 -16 -8 -16 -17 0 -15 -4 -13 -20 7 -10 14 -16 27 -14 30 3 2 9 -2 14
-10 5 -8 12 -11 16 -7 4 3 1 14 -7 24 -9 10 -9 14 -2 9 7 -4 20 2 30 14 10 11
18 20 18 20 0 0 1 -9 1 -19z m-303 -19 c-3 -12 -9 -19 -14 -16 -5 3 -3 14 3
24 15 24 19 21 11 -8z m178 5 c-10 -9 -11 -8 -5 6 3 10 9 15 12 12 3 -3 0 -11
-7 -18z m-3868 -2 c-3 -9 -8 -14 -10 -11 -3 3 -2 9 2 15 9 16 15 13 8 -4z
m767 11 c0 -2 -7 -7 -16 -10 -8 -3 -12 -2 -9 4 6 10 25 14 25 6z m268 -16 c-7
-11 -15 -15 -17 -9 -2 6 3 15 10 20 20 12 21 11 7 -11z m100 2 c15 12 16 11 3
-4 -7 -10 -22 -18 -32 -18 -17 0 -18 3 -7 20 11 17 14 18 16 5 3 -14 6 -14 20
-3z m-48 4 c0 -3 -4 -8 -10 -11 -5 -3 -10 -1 -10 4 0 6 5 11 10 11 6 0 10 -2
10 -4z m-1055 -16 c-3 -5 -11 -10 -16 -10 -6 0 -7 5 -4 10 3 6 11 10 16 10 6
0 7 -4 4 -10z m825 6 c0 -3 -4 -8 -10 -11 -5 -3 -10 -1 -10 4 0 6 5 11 10 11
6 0 10 -2 10 -4z m320 -6 c0 -5 -4 -10 -10 -10 -5 0 -10 5 -10 10 0 6 5 10 10
10 6 0 10 -4 10 -10z m2656 1 c12 10 13 9 8 -5 -7 -18 -26 -17 -30 2 -1 7 0 8
3 2 3 -8 9 -7 19 1z m-3636 -20 c0 -5 -7 -12 -16 -15 -14 -5 -15 -4 -4 9 14
17 20 19 20 6z m26 -19 c-18 -16 -18 -16 -6 6 6 13 14 21 18 18 3 -4 -2 -14
-12 -24z m-171 8 c3 -5 1 -10 -4 -10 -6 0 -11 5 -11 10 0 6 2 10 4 10 3 0 8
-4 11 -10z m225 -18 c0 -12 -35 -52 -45 -52 -4 0 -4 7 -1 16 3 8 2 12 -4 9 -6
-3 -10 -13 -10 -21 0 -17 -17 -19 -22 -2 -5 14 39 41 52 33 4 -3 10 2 14 10 6
16 16 20 16 7z m3920 -2 c0 -5 -5 -10 -11 -10 -5 0 -7 5 -4 10 3 6 8 10 11 10
2 0 4 -4 4 -10z m573 -27 c-3 -21 -10 -41 -16 -44 -5 -4 -4 -9 2 -14 7 -4 21
3 32 16 41 47 25 10 -31 -74 -246 -369 -612 -693 -1010 -896 -249 -127 -475
-207 -709 -251 -117 -22 -161 -25 -161 -10 0 6 5 10 10 10 6 0 10 12 10 28 0
20 -3 23 -10 12 -8 -12 -10 -12 -15 2 -16 42 -3 52 100 76 467 110 802 266
1139 530 137 108 449 416 451 447 1 6 5 18 9 28 7 15 11 16 17 5 7 -10 9 -8 9
5 0 11 13 31 28 45 16 15 33 35 39 46 6 10 16 17 23 14 10 -3 9 -8 -4 -20 -18
-19 -21 -38 -6 -38 6 0 10 5 10 10 0 6 7 22 16 36 12 17 20 21 29 14 12 -10
25 -4 25 12 0 5 -5 6 -12 2 -12 -8 -3 10 17 33 14 17 14 17 8 -24z m28 6 c-5
-13 -10 -19 -10 -12 -1 15 10 45 15 40 3 -2 0 -15 -5 -28z m-61 11 c0 -5 -2
-10 -4 -10 -3 0 -8 5 -11 10 -3 6 -1 10 4 10 6 0 11 -4 11 -10z m218 -2 c5 -8
6 -22 1 -33 -5 -14 -8 -16 -9 -5 -2 8 -2 19 -1 24 1 5 -4 13 -11 17 -8 6 -9 9
-2 9 6 0 16 -6 22 -12z m-4899 -18 c-13 -11 -29 -24 -36 -30 -16 -14 -20 -13
-20 5 0 8 2 13 5 10 3 -2 16 5 30 15 32 26 52 26 21 0z m234 -17 c-9 -16 -23
-34 -32 -40 -8 -7 -11 -16 -7 -20 4 -4 10 -2 14 4 18 27 47 63 53 63 3 0 46
-51 94 -112 198 -251 308 -366 490 -510 90 -72 241 -174 336 -228 185 -105
521 -228 759 -276 68 -14 127 -27 131 -30 13 -8 3 -59 -16 -81 -23 -27 -58
-29 -165 -9 -222 43 -411 105 -622 205 -417 197 -814 536 -1055 901 -68 103
-71 108 -50 91 12 -9 17 -10 17 -2 0 11 55 71 66 71 2 0 -3 -12 -13 -27z
m3924 21 c-3 -3 -12 -4 -19 -1 -8 3 -5 6 6 6 11 1 17 -2 13 -5z m493 -4 c0 -5
-4 -10 -10 -10 -5 0 -10 5 -10 10 0 6 5 10 10 10 6 0 10 -4 10 -10z m227 -12
c1 -42 3 -48 17 -48 7 0 16 -9 19 -21 5 -20 5 -20 -14 -3 -15 14 -22 15 -28 6
-4 -8 -15 -10 -26 -6 -13 5 -16 4 -11 -4 4 -7 14 -12 22 -12 18 0 18 -29 -1
-54 -12 -16 -15 -17 -15 -4 0 9 6 19 13 21 6 3 2 6 -10 6 -17 1 -21 5 -16 19
5 14 3 13 -10 -3 -14 -18 -14 -22 -1 -37 19 -20 2 -33 -24 -19 -14 7 -19 6
-19 -3 0 -7 5 -13 11 -13 38 1 48 -4 42 -20 -4 -9 -2 -20 5 -23 6 -4 -1 -7
-15 -7 -14 0 -26 3 -26 8 0 5 -5 9 -11 9 -8 0 -8 -4 -1 -13 12 -14 5 -57 -9
-57 -13 0 -20 18 -9 23 6 3 5 5 -1 3 -10 -2 -17 -27 -21 -74 -1 -7 -9 -10 -19
-7 -11 4 -22 -1 -28 -14 -15 -27 -14 -34 5 -27 14 5 15 4 4 -9 -11 -14 -14
-13 -27 5 -8 11 -20 20 -26 20 -8 0 -8 -3 2 -9 10 -7 11 -10 1 -16 -10 -6 -9
-11 5 -22 15 -10 16 -13 4 -13 -9 0 -22 -14 -30 -32 -8 -17 -20 -34 -28 -36
-9 -3 -11 0 -5 9 6 11 4 11 -10 -1 -11 -8 -14 -16 -7 -18 6 -2 11 -8 11 -13 0
-6 -4 -8 -9 -4 -5 3 -17 -5 -25 -17 -9 -12 -16 -17 -16 -10 0 7 -4 11 -10 7
-5 -3 -6 -13 -3 -23 6 -14 4 -15 -9 -4 -10 8 -19 9 -22 3 -3 -5 -1 -11 6 -13
9 -3 8 -9 -4 -21 -17 -17 -33 -23 -25 -9 3 4 -1 13 -9 20 -11 10 -13 7 -8 -18
4 -20 2 -30 -5 -30 -7 0 -9 -4 -6 -10 3 -5 2 -10 -4 -10 -5 0 -12 6 -15 13 -4
8 -5 7 -4 -3 2 -21 -12 -50 -24 -50 -5 0 -7 4 -4 9 3 5 -2 15 -12 22 -13 10
-14 10 -6 0 9 -9 8 -21 -4 -44 -20 -42 -54 -75 -60 -59 -2 7 -17 -5 -33 -28
-28 -39 -49 -51 -49 -29 0 5 4 8 9 4 5 -3 12 -1 15 4 4 5 -2 8 -11 6 -10 -2
-22 -4 -26 -4 -5 -1 -5 -5 -2 -11 3 -5 1 -18 -4 -27 -7 -12 -11 -13 -11 -5 0
10 -8 12 -30 7 -19 -4 -30 -3 -30 4 0 6 -5 11 -10 11 -6 0 -5 -8 2 -19 7 -11
16 -19 21 -18 5 1 12 -4 15 -12 3 -10 0 -12 -12 -8 -13 5 -16 3 -12 -11 3 -9
1 -24 -5 -32 -9 -12 -10 -11 -6 8 3 12 1 22 -4 22 -5 0 -14 -10 -20 -22 -9
-21 -9 -21 -4 5 4 19 1 27 -9 27 -9 0 -12 -7 -9 -21 4 -14 1 -20 -8 -19 -33 5
-39 0 -35 -27 4 -20 2 -23 -6 -15 -13 13 -29 16 -27 5 1 -5 1 -15 0 -23 -1
-12 -5 -11 -16 4 -15 19 -15 19 -16 -5 -1 -13 -1 -28 1 -34 1 -5 -4 -4 -11 3
-18 17 -34 15 -19 -3 15 -17 7 -19 -21 -5 -20 11 -28 -3 -9 -15 6 -3 10 -12 9
-18 0 -9 -2 -9 -6 1 -2 6 -9 12 -15 12 -6 0 -7 -7 -4 -16 3 -9 2 -12 -4 -9 -6
4 -9 12 -8 19 2 6 0 13 -4 14 -5 1 -7 1 -6 0 7 -9 -37 -45 -48 -41 -9 3 -14
-2 -14 -12 0 -15 -3 -15 -15 -5 -13 11 -14 10 -9 -4 5 -14 2 -16 -22 -11 -24
5 -26 4 -11 -5 9 -6 15 -16 11 -22 -4 -6 -10 -5 -15 3 -7 12 -9 12 -9 0 0 -11
-5 -9 -21 5 -22 19 -22 19 -10 -3 8 -15 8 -23 1 -23 -5 0 -10 6 -10 13 -1 6
-8 0 -16 -16 -12 -22 -18 -26 -34 -17 -27 15 -34 12 -19 -6 12 -15 11 -16 -9
-10 -18 6 -22 4 -22 -13 0 -11 -4 -23 -10 -26 -6 -3 -7 1 -4 9 6 16 -10 23
-19 9 -2 -5 -2 -3 -1 4 2 6 -4 14 -12 17 -8 3 -14 -1 -14 -8 0 -9 -8 -13 -22
-10 -13 2 -17 2 -10 -2 6 -3 12 -9 12 -13 0 -7 -7 -9 -50 -13 -14 -2 -19 -7
-15 -17 4 -11 0 -10 -15 4 -21 19 -29 8 -9 -12 9 -9 -1 -11 -39 -9 -41 1 -49
-1 -40 -11 14 -17 -13 -18 -29 -2 -9 9 -11 6 -7 -12 5 -23 5 -23 -10 -5 -14
17 -16 18 -16 3 0 -9 -4 -17 -10 -17 -5 0 -10 5 -10 10 0 6 -5 10 -10 10 -6 0
-9 -6 -8 -12 2 -8 -6 -12 -19 -11 -16 2 -21 -2 -17 -12 4 -8 11 -15 17 -15 6
0 7 -3 4 -7 -4 -3 -15 1 -24 9 -10 9 -31 16 -46 16 -27 0 -27 -1 -10 -21 11
-12 12 -17 4 -12 -8 5 -36 9 -63 10 -39 2 -46 -1 -37 -12 14 -16 9 -16 -25 -3
-23 8 -26 7 -26 -13 -1 -22 -1 -22 -14 2 -8 15 -16 20 -20 12 -11 -18 -26 -13
-19 7 6 14 4 15 -9 4 -13 -10 -17 -10 -21 0 -4 8 -6 7 -6 -4 -1 -10 -6 -18
-12 -18 -5 0 -7 -4 -4 -10 3 -6 1 -10 -4 -10 -6 0 -11 6 -11 13 0 6 -14 13
-30 14 -70 5 -62 20 17 32 348 57 779 221 1057 405 55 36 102 66 104 66 6 0
120 89 192 148 187 157 391 380 520 572 24 36 49 71 56 78 7 6 16 21 19 32 3
11 13 20 21 20 8 0 12 5 9 10 -3 6 -3 15 0 20 9 15 12 12 12 -12z m-4777 -103
c198 -317 492 -609 835 -830 311 -201 624 -321 1043 -400 50 -10 92 -21 92
-24 0 -3 -16 -11 -35 -17 -25 -8 -35 -8 -36 0 0 6 -4 2 -9 -9 -6 -15 -9 -16
-9 -4 -1 13 -10 15 -46 13 -26 -2 -45 1 -45 7 0 6 -8 9 -17 6 -10 -2 -30 3
-45 10 -24 12 -27 11 -21 -3 5 -14 3 -15 -16 -4 -13 6 -29 9 -36 6 -8 -3 -16
0 -19 7 -3 8 -9 7 -19 -5 -13 -16 -15 -16 -27 8 l-14 25 -11 -28 -12 -28 0 30
c0 17 4 33 11 37 8 6 7 8 -2 8 -7 0 -15 -7 -18 -15 -4 -8 -10 -12 -16 -9 -5 4
-5 11 1 18 8 9 7 13 -4 13 -8 0 -17 -9 -21 -19 -3 -10 -10 -18 -16 -18 -6 0
-6 6 2 15 10 12 10 15 0 15 -7 0 -19 -8 -27 -17 -10 -14 -13 -14 -11 -3 2 8 7
18 13 22 6 5 6 11 -1 18 -9 9 -16 6 -29 -12 l-17 -23 7 23 c5 16 2 22 -9 22
-9 0 -16 5 -16 11 0 5 -5 7 -10 4 -8 -5 -8 -11 0 -20 8 -9 5 -11 -15 -7 -14 2
-25 9 -25 14 0 6 -9 8 -19 5 -12 -3 -22 1 -25 10 -4 8 -12 13 -20 10 -10 -4
-12 0 -9 14 3 11 0 19 -6 19 -7 0 -9 5 -5 12 4 7 3 8 -5 4 -9 -6 -9 -11 -1
-21 7 -9 6 -16 -5 -25 -15 -12 -21 -4 -16 23 1 5 -9 5 -21 1 l-23 -7 20 24
c11 13 13 19 5 13 -8 -5 -27 -15 -41 -21 -25 -11 -26 -10 -24 20 2 27 1 28
-11 13 -12 -17 -20 -14 -116 38 -57 30 -111 63 -120 73 -26 28 -46 43 -58 43
-6 0 -8 6 -4 13 5 7 0 6 -11 -3 -17 -14 -18 -13 -12 2 3 10 2 20 -2 23 -5 3
-12 -2 -15 -11 -6 -15 -8 -15 -25 0 -9 9 -21 13 -24 9 -4 -3 -7 1 -7 10 0 8
-9 19 -20 22 -11 3 -20 13 -20 22 0 13 -3 13 -15 3 -18 -15 -20 1 -2 19 10 11
10 13 0 7 -8 -5 -13 -1 -13 9 0 9 -4 14 -9 10 -6 -3 -19 5 -31 17 -18 19 -22
20 -30 8 -8 -13 -10 -12 -10 3 0 19 -11 22 -27 6 -8 -8 -13 -8 -18 0 -3 7 -1
10 6 9 8 -2 14 7 15 20 1 12 -3 22 -8 22 -6 0 -7 -7 -4 -16 4 -10 1 -14 -6
-11 -7 2 -12 13 -10 23 2 16 1 16 -7 4 -12 -18 -20 -11 -23 22 -2 18 -7 24
-17 20 -11 -4 -13 0 -9 16 4 12 1 25 -4 29 -6 3 -8 1 -5 -4 4 -6 1 -16 -7 -22
-10 -9 -15 -8 -20 4 -3 8 -15 15 -26 15 -11 0 -20 5 -20 10 0 6 -7 10 -15 10
-13 0 -14 4 -5 20 9 16 8 20 -5 20 -9 0 -15 -9 -15 -22 -1 -22 -1 -22 -12 -4
-9 16 -6 22 13 38 13 11 18 17 10 13 -7 -4 -17 -2 -22 6 -7 11 -9 11 -9 -2 0
-9 -7 -19 -15 -23 -13 -4 -13 -2 -5 14 16 31 11 37 -10 11 -15 -17 -20 -19
-20 -8 0 9 5 19 10 22 15 10 12 35 -5 35 -8 0 -15 -6 -15 -14 0 -8 -5 -18 -11
-22 -7 -4 -10 3 -9 17 3 37 -1 46 -11 24 -7 -16 -8 -13 -4 13 4 31 4 32 -12
16 -21 -21 -29 -4 -13 27 8 15 9 19 1 15 -6 -4 -11 -2 -11 4 0 7 -6 10 -13 7
-10 -4 -13 2 -10 21 4 23 3 25 -9 11 -16 -19 -48 -32 -48 -19 0 6 5 10 10 10
6 0 10 7 10 16 0 9 5 12 13 8 6 -4 5 0 -3 9 -8 8 -25 18 -37 22 -18 5 -23 2
-24 -12 0 -10 -3 -13 -5 -6 -3 7 0 21 6 32 12 23 1 28 -18 9 -9 -9 -12 -6 -12
14 0 15 -4 30 -10 33 -5 3 -10 1 -10 -4 0 -6 -4 -11 -10 -11 -5 0 -7 7 -4 15
4 8 1 15 -6 15 -10 0 -10 3 0 15 18 21 6 30 -14 10 -9 -9 -16 -13 -16 -8 0 5
5 14 12 21 9 9 9 12 0 13 -26 3 -31 4 -39 12 -4 5 -3 7 2 5 6 -1 10 0 10 3 0
4 9 17 20 30 l20 24 -28 -24 c-15 -14 -30 -21 -34 -18 -3 4 -1 7 5 7 7 0 12 4
12 10 0 5 -8 7 -17 3 -14 -5 -16 -3 -6 7 9 10 8 21 -7 50 -11 21 -16 41 -12
44 3 4 -5 3 -19 -3 -23 -8 -28 -6 -38 16 -7 14 -10 28 -7 30 2 2 7 -5 11 -16
3 -12 11 -21 17 -21 6 0 3 12 -7 26 -16 24 -16 27 1 45 15 17 13 21 -13 18 -5
0 -7 -6 -5 -13 1 -7 -5 -20 -15 -27 -15 -12 -16 -12 -10 4 4 10 7 25 7 32 0
16 52 47 61 37 4 -4 35 -52 69 -107z m4858 91 c-7 -8 -15 -12 -17 -11 -5 6 10
25 20 25 5 0 4 -6 -3 -14z m-4918 -130 c0 -2 -7 -7 -16 -10 -8 -3 -12 -2 -9 4
6 10 25 14 25 6z m4 -31 c-4 -8 -8 -15 -10 -15 -2 0 -4 7 -4 15 0 8 4 15 10
15 5 0 7 -7 4 -15z m20 -21 c3 -8 2 -12 -4 -9 -6 3 -10 10 -10 16 0 14 7 11
14 -7z m246 -324 c0 -5 -2 -10 -4 -10 -3 0 -8 5 -11 10 -3 6 -1 10 4 10 6 0
11 -4 11 -10z m4084 -186 c3 -8 2 -12 -4 -9 -6 3 -10 10 -10 16 0 14 7 11 14
-7z m-3823 -77 c-10 -9 -11 -8 -5 6 3 10 9 15 12 12 3 -3 0 -11 -7 -18z m69
-47 c0 -5 -5 -10 -11 -10 -5 0 -7 5 -4 10 3 6 8 10 11 10 2 0 4 -4 4 -10z
m3560 -45 c14 -19 14 -19 -2 -6 -10 7 -18 18 -18 24 0 6 1 8 3 6 1 -2 9 -13
17 -24z m-3454 -30 c9 -8 11 -15 6 -15 -5 0 -15 7 -22 15 -7 8 -9 15 -6 15 4
0 14 -7 22 -15z m3337 -39 c9 5 9 4 0 -6 -13 -15 -37 -4 -26 13 5 8 8 8 11 -1
2 -7 9 -9 15 -6z m-1138 -446 c3 -5 1 -10 -4 -10 -6 0 -11 5 -11 10 0 6 2 10
4 10 3 0 8 -4 11 -10z"/>
<path d="M5102 7887 c-7 -8 -15 -28 -18 -45 -6 -30 -9 -32 -50 -32 -80 0 -101
-60 -33 -96 29 -14 29 -15 23 -84 l-7 -70 29 0 c16 0 39 10 55 26 l27 26 35
-26 c18 -14 46 -26 62 -26 l28 0 -7 62 c-6 62 -6 62 31 100 47 48 39 69 -34
82 -45 8 -52 13 -69 50 -20 44 -52 58 -72 33z"/>
<path d="M4860 7390 c-167 -26 -308 -58 -349 -78 -40 -19 -50 -46 -27 -77 14
-19 17 -19 90 -4 42 8 76 11 76 6 0 -4 4 -6 9 -3 4 3 26 8 47 11 62 10 79 13
79 15 0 5 55 11 117 13 38 1 68 4 68 7 0 3 39 5 86 5 47 0 88 3 91 8 2 4 9 4
15 1 5 -3 42 -8 81 -10 197 -9 250 -15 420 -46 76 -14 120 -19 127 -12 5 5 12
24 16 41 5 28 3 33 -26 48 -39 20 -299 70 -440 84 -148 16 -348 12 -480 -9z"/>
<path d="M4338 7235 c-14 -30 5 -57 36 -53 39 6 29 78 -10 78 -8 0 -19 -11
-26 -25z"/>
<path d="M5897 7247 c-9 -7 -17 -21 -19 -32 -2 -16 3 -21 33 -23 34 -3 36 -2
31 27 -5 34 -23 45 -45 28z"/>
<path d="M4175 7181 c-10 -32 5 -71 27 -71 30 0 58 19 58 39 0 42 -73 70 -85
32z"/>
<path d="M6027 7193 c-14 -13 -7 -71 9 -77 22 -8 64 -8 64 2 0 4 3 16 6 28 3
13 -1 28 -11 38 -17 16 -56 22 -68 9z"/>
<path d="M4011 7106 c-16 -19 -6 -65 15 -73 8 -3 27 -1 40 6 21 9 25 17 22 44
-3 28 -7 32 -34 35 -19 2 -36 -3 -43 -12z"/>
<path d="M4980 7109 c-109 -4 -243 -15 -325 -28 -251 -39 -292 -51 -306 -90
-15 -37 18 -63 64 -51 36 10 56 14 172 35 124 21 221 33 330 41 106 7 393 7
435 0 14 -2 61 -7 105 -11 106 -8 243 -30 345 -55 76 -18 87 -18 107 -5 38 25
28 66 -19 84 -54 20 -397 71 -518 77 -69 3 -143 6 -165 7 -22 1 -123 -1 -225
-4z"/>
<path d="M6188 7094 c-17 -36 0 -59 43 -59 30 0 34 3 37 30 6 53 -59 77 -80
29z"/>
<path d="M3827 7003 c-25 -6 -40 -49 -27 -74 10 -18 28 -24 60 -19 32 4 41 58
14 84 -16 17 -17 17 -47 9z"/>
<path d="M6394 6992 c-39 -27 -19 -82 30 -82 34 0 46 13 46 50 0 30 -49 50
-76 32z"/>
<path d="M5352 6940 c-51 -12 -89 -55 -102 -113 -24 -112 10 -154 152 -187
135 -32 148 -40 148 -101 0 -76 -55 -92 -151 -44 -64 33 -89 30 -113 -16 -23
-42 -16 -83 16 -100 27 -15 207 -40 233 -33 85 23 109 59 126 184 10 71 9 84
-8 117 -24 50 -67 77 -155 98 -91 22 -130 41 -126 62 7 36 33 37 108 2 l72
-33 19 23 c11 13 19 39 19 58 0 31 -4 36 -42 53 -24 10 -61 21 -83 25 -22 3
-49 8 -60 9 -11 2 -35 0 -53 -4z"/>
<path d="M4694 6933 c-111 -6 -107 4 -94 -269 13 -274 15 -291 40 -304 32 -17
279 9 302 32 23 23 23 60 -1 82 -16 14 -32 16 -108 10 -89 -7 -90 -6 -96 17
-4 13 -7 47 -7 74 l0 50 47 15 c37 11 50 22 57 43 14 39 -10 60 -68 61 -46 1
-46 1 -46 37 l0 36 71 6 c80 7 99 18 99 58 0 37 -33 60 -85 57 -22 -1 -72 -4
-111 -5z"/>
<path d="M5969 6889 c-13 -13 -19 -30 -17 -47 3 -23 12 -30 63 -48 33 -12 61
-28 63 -37 2 -8 -9 -55 -23 -103 -35 -118 -51 -176 -69 -253 -15 -63 -14 -63
9 -87 30 -30 80 -32 95 -5 5 11 19 59 30 108 12 48 37 138 56 200 l35 112 36
-15 c47 -20 78 -11 91 25 20 56 1 71 -153 123 -160 53 -187 56 -216 27z"/>
<path d="M4130 6866 c-142 -33 -160 -48 -135 -118 8 -24 31 -124 51 -223 44
-226 45 -228 87 -223 64 10 263 69 287 87 35 25 55 86 46 142 -9 58 -51 124
-89 140 -27 11 -28 15 -22 55 7 48 -10 98 -44 128 -27 24 -106 30 -181 12z
m94 -112 c28 -28 17 -56 -27 -73 -44 -17 -54 -13 -61 22 -5 26 -2 35 15 50 26
21 53 22 73 1z m100 -196 c9 -12 16 -35 16 -50 0 -23 -7 -29 -57 -48 -31 -11
-63 -20 -71 -18 -10 2 -20 24 -28 56 l-12 54 32 14 c50 21 102 18 120 -8z"/>
<path d="M3627 6842 c-45 -49 4 -114 58 -78 30 20 33 56 7 79 -24 22 -45 21
-65 -1z"/>
<path d="M6586 6848 c-24 -13 -21 -75 3 -88 31 -16 49 -12 66 14 30 46 -21
101 -69 74z"/>
<path d="M3190 6360 c0 -5 5 -10 10 -10 6 0 10 5 10 10 0 6 -4 10 -10 10 -5 0
-10 -4 -10 -10z"/>
<path d="M3090 6340 c8 -5 20 -10 25 -10 6 0 3 5 -5 10 -8 5 -19 10 -25 10 -5
0 -3 -5 5 -10z"/>
<path d="M3400 6339 c0 -5 5 -7 10 -4 6 3 10 8 10 11 0 2 -4 4 -10 4 -5 0 -10
-5 -10 -11z"/>
<path d="M6750 6345 c0 -2 10 -10 23 -16 20 -11 21 -11 8 4 -13 16 -31 23 -31
12z"/>
<path d="M6815 6331 c-3 -5 -2 -12 3 -15 5 -3 9 1 9 9 0 17 -3 19 -12 6z"/>
<path d="M6840 6319 c0 -5 5 -7 10 -4 6 3 10 8 10 11 0 2 -4 4 -10 4 -5 0 -10
-5 -10 -11z"/>
<path d="M6880 6309 c0 -5 5 -7 10 -4 6 3 10 8 10 11 0 2 -4 4 -10 4 -5 0 -10
-5 -10 -11z"/>
<path d="M3040 6300 c0 -5 5 -10 10 -10 6 0 10 5 10 10 0 6 -4 10 -10 10 -5 0
-10 -4 -10 -10z"/>
<path d="M3368 6287 c-3 -19 -2 -25 4 -19 6 6 8 18 6 28 -3 14 -5 12 -10 -9z"/>
<path d="M3413 6303 c-10 -4 -9 -8 1 -19 8 -8 19 -14 25 -14 6 0 11 -5 11 -12
0 -6 3 -8 7 -4 5 4 1 13 -8 19 -9 7 -18 17 -20 23 -2 6 -10 9 -16 7z"/>
<path d="M3447 6299 c7 -7 15 -10 18 -7 3 3 -2 9 -12 12 -14 6 -15 5 -6 -5z"/>
<path d="M3070 6290 c0 -5 4 -10 9 -10 6 0 13 5 16 10 3 6 -1 10 -9 10 -9 0
-16 -4 -16 -10z"/>
<path d="M6837 6286 c-4 -10 -5 -21 -2 -24 9 -9 17 6 13 25 -3 17 -4 17 -11
-1z"/>
<path d="M3653 6278 c1 -7 -4 -12 -10 -10 -7 1 -13 -2 -13 -7 0 -5 -6 -16 -13
-23 -8 -8 -10 -22 -6 -38 4 -14 7 -20 8 -13 1 6 12 10 26 9 13 -2 22 1 19 6
-3 5 -12 7 -19 4 -15 -5 -24 12 -18 32 3 6 11 12 19 12 8 0 14 2 14 4 0 2 3
11 6 20 3 9 1 16 -5 16 -6 0 -10 -6 -8 -12z"/>
<path d="M7167 6249 c4 -13 8 -18 11 -10 2 7 -1 18 -6 23 -8 8 -9 4 -5 -13z"/>
<path d="M3386 6251 c-4 -6 -11 -9 -15 -6 -5 2 -5 -10 -2 -27 8 -38 26 -47 34
-18 4 16 2 19 -7 11 -8 -7 -12 -5 -12 8 0 10 8 17 20 17 10 -1 21 6 23 14 4
13 3 13 -6 0 -9 -12 -12 -13 -20 -1 -6 9 -11 10 -15 2z"/>
<path d="M6855 6250 c-3 -5 -2 -10 4 -10 5 0 13 5 16 10 3 6 2 10 -4 10 -5 0
-13 -4 -16 -10z"/>
<path d="M3675 6170 c3 -5 8 -10 11 -10 2 0 4 5 4 10 0 6 -5 10 -11 10 -5 0
-7 -4 -4 -10z"/>
<path d="M6001 6155 c1 -19 18 -51 18 -35 0 8 -4 22 -9 30 -5 8 -9 11 -9 5z"/>
<path d="M4705 6129 c-4 -6 -5 -12 -2 -15 2 -3 7 2 10 11 7 17 1 20 -8 4z"/>
<path d="M4420 6099 c0 -5 5 -7 10 -4 6 3 10 8 10 11 0 2 -4 4 -10 4 -5 0 -10
-5 -10 -11z"/>
<path d="M3950 7665 c0 -8 -4 -15 -10 -15 -5 0 -10 -5 -10 -12 0 -6 9 -3 20 7
22 20 26 35 10 35 -5 0 -10 -7 -10 -15z"/>
<path d="M3853 7646 c16 -23 37 -33 37 -16 0 6 -4 8 -10 5 -5 -3 -10 2 -10 13
0 10 -7 19 -15 19 -13 0 -13 -3 -2 -21z"/>
<path d="M3589 7448 c-12 -23 -12 -23 10 -4 23 21 26 26 11 26 -5 0 -15 -10
-21 -22z"/>
<path d="M3472 7439 c3 -8 -1 -18 -8 -24 -10 -7 -11 -15 -4 -25 8 -12 10 -12
10 5 0 15 2 17 9 6 6 -9 9 -5 9 13 0 15 -5 29 -11 33 -5 3 -7 0 -5 -8z"/>
<path d="M3551 7424 c0 -11 3 -14 6 -6 3 7 2 16 -1 19 -3 4 -6 -2 -5 -13z"/>
<path d="M3435 7340 c-3 -5 -2 -10 4 -10 5 0 13 5 16 10 3 6 2 10 -4 10 -5 0
-13 -4 -16 -10z"/>
<path d="M3186 7125 c-3 -8 -1 -15 3 -15 5 0 11 7 15 15 3 8 1 15 -3 15 -5 0
-11 -7 -15 -15z"/>
<path d="M3109 7029 l-24 -20 28 17 c15 9 27 18 27 20 0 8 -8 4 -31 -17z"/>
<path d="M2937 6893 c-4 -3 -7 -11 -7 -17 0 -6 5 -5 12 2 6 6 9 14 7 17 -3 3
-9 2 -12 -2z"/>
<path d="M2960 6860 c-8 -5 -11 -12 -7 -16 4 -4 13 -2 19 4 15 15 7 24 -12 12z"/>
<path d="M2920 6820 c-14 -4 -19 -8 -12 -9 7 -1 10 -5 7 -11 -3 -5 -2 -10 2
-10 5 0 14 9 21 20 7 11 11 20 10 19 -2 -1 -14 -5 -28 -9z"/>
<path d="M2796 6619 c-15 -15 -22 -16 -28 -7 -6 10 -8 10 -8 1 0 -22 20 -24
42 -4 12 12 20 23 17 25 -2 2 -13 -5 -23 -15z"/>
<path d="M2716 6575 c4 -8 8 -15 10 -15 2 0 4 7 4 15 0 8 -4 15 -10 15 -5 0
-7 -7 -4 -15z"/>
<path d="M2698 6543 c7 -3 16 -2 19 1 4 3 -2 6 -13 5 -11 0 -14 -3 -6 -6z"/>
<path d="M2723 6505 c-7 -8 -9 -16 -4 -19 5 -3 12 1 15 10 8 22 4 25 -11 9z"/>
<path d="M2700 6455 c-6 -8 -10 -19 -8 -26 2 -6 9 0 16 15 13 29 10 33 -8 11z"/>
<path d="M2621 6364 c-9 -20 -7 -25 11 -35 16 -9 22 -8 29 2 12 19 11 23 -10
41 -18 15 -19 14 -30 -8z m29 -15 c0 -6 -4 -7 -10 -4 -5 3 -10 11 -10 16 0 6
5 7 10 4 6 -3 10 -11 10 -16z"/>
<path d="M2665 6380 c3 -5 8 -10 11 -10 2 0 4 5 4 10 0 6 -5 10 -11 10 -5 0
-7 -4 -4 -10z"/>
<path d="M2750 6192 c0 -4 9 -13 20 -20 11 -7 20 -9 20 -4 0 4 -9 13 -20 20
-11 7 -20 9 -20 4z"/>
<path d="M2805 6177 c-4 -10 -5 -21 -1 -24 10 -10 18 4 13 24 -4 17 -4 17 -12
0z"/>
<path d="M6217 7728 c-9 -31 -2 -33 11 -3 6 14 8 25 3 25 -5 0 -11 -10 -14
-22z"/>
<path d="M6242 7699 c2 -7 10 -15 17 -17 8 -3 12 1 9 9 -2 7 -10 15 -17 17 -8
3 -12 -1 -9 -9z"/>
<path d="M6335 7690 c-3 -5 -1 -10 4 -10 6 0 11 5 11 10 0 6 -2 10 -4 10 -3 0
-8 -4 -11 -10z"/>
<path d="M6813 7346 c15 -7 25 -15 22 -18 -3 -3 1 -8 10 -12 12 -4 14 -2 6 13
-11 19 -33 32 -54 30 -7 0 0 -6 16 -13z"/>
<path d="M6870 7302 c0 -5 7 -9 15 -9 8 0 12 4 9 9 -3 4 -9 8 -15 8 -5 0 -9
-4 -9 -8z"/>
<path d="M6950 7246 c0 -2 7 -7 16 -10 8 -3 12 -2 9 4 -6 10 -25 14 -25 6z"/>
<path d="M7102 7101 c-11 -6 -10 -10 4 -15 9 -3 19 -4 22 -1 3 3 0 5 -7 5 -7
0 -9 5 -6 10 7 12 4 12 -13 1z"/>
<path d="M7179 7013 c-13 -16 -12 -17 4 -4 16 13 21 21 13 21 -2 0 -10 -8 -17
-17z"/>
<path d="M7197 7003 c-4 -3 -7 -11 -7 -17 0 -6 5 -5 12 2 6 6 9 14 7 17 -3 3
-9 2 -12 -2z"/>
<path d="M7246 6932 c-2 -4 -1 -14 4 -22 7 -11 9 -9 7 8 -1 24 -3 26 -11 14z"/>
<path d="M7308 6842 c8 -5 13 -12 13 -16 -4 -29 19 -41 45 -22 13 10 14 15 4
21 -9 6 -11 4 -5 -5 6 -10 4 -12 -9 -7 -10 4 -22 7 -27 7 -5 0 -8 5 -6 11 1 6
-5 14 -13 16 -12 4 -12 3 -2 -5z"/>
<path d="M7350 6771 c0 -11 31 -24 38 -16 3 3 0 5 -7 5 -7 0 -9 5 -6 10 3 6
-1 10 -9 10 -9 0 -16 -4 -16 -9z"/>
<path d="M7410 6741 c0 -6 5 -13 10 -16 6 -3 10 1 10 9 0 9 -4 16 -10 16 -5 0
-10 -4 -10 -9z"/>
<path d="M7430 6685 c-11 -13 -10 -14 4 -9 9 3 16 10 16 15 0 13 -6 11 -20 -6z"/>
<path d="M7480 6650 c0 -5 5 -10 10 -10 6 0 10 5 10 10 0 6 -4 10 -10 10 -5 0
-10 -4 -10 -10z"/>
<path d="M7486 6615 c-19 -15 -19 -15 6 -13 16 1 24 7 21 15 -6 15 -4 16 -27
-2z"/>
<path d="M6065 7790 c-3 -5 1 -10 10 -10 9 0 13 5 10 10 -3 6 -8 10 -10 10 -2
0 -7 -4 -10 -10z"/>
<path d="M5578 7693 c7 -3 16 -2 19 1 4 3 -2 6 -13 5 -11 0 -14 -3 -6 -6z"/>
<path d="M7209 6802 c5 -10 18 -25 27 -33 11 -9 9 -2 -6 19 -26 35 -36 42 -21
14z"/>
<path d="M7480 6171 c0 -6 5 -13 10 -16 6 -3 10 1 10 9 0 9 -4 16 -10 16 -5 0
-10 -4 -10 -9z"/>
<path d="M2932 5299 c-44 -9 -103 -51 -127 -91 -18 -30 -20 -51 -20 -203 0
-165 1 -171 27 -221 35 -67 79 -104 124 -104 37 0 43 10 17 31 -9 8 -29 34
-45 58 -52 83 -32 157 51 181 46 13 77 -2 137 -68 29 -31 56 -53 61 -48 13 13
16 264 3 314 -13 51 -61 126 -87 137 -35 13 -108 21 -141 14z"/>
<path d="M2750 4771 c0 -6 4 -13 10 -16 6 -3 7 1 4 9 -7 18 -14 21 -14 7z"/>
<path d="M2725 4760 c-3 -5 -1 -10 4 -10 6 0 11 5 11 10 0 6 -2 10 -4 10 -3 0
-8 -4 -11 -10z"/>
<path d="M2680 4715 c-11 -13 -10 -14 4 -9 9 3 16 10 16 15 0 13 -6 11 -20 -6z"/>
<path d="M2740 4722 c0 -7 -6 -12 -13 -12 -7 0 -18 -9 -25 -20 -7 -11 -8 -20
-3 -20 5 0 12 7 15 16 3 8 10 13 15 10 10 -6 25 24 16 32 -3 3 -5 0 -5 -6z"/>
<path d="M2772 4708 c-14 -14 -16 -28 -3 -28 5 0 11 9 14 20 6 23 5 24 -11 8z"/>
<path d="M2721 4666 c-13 -7 -19 -16 -14 -19 6 -4 18 2 28 13 21 23 19 24 -14
6z"/>
<path d="M2803 4669 c1 -6 -8 -13 -21 -14 -13 -1 -31 -10 -40 -20 -11 -13 -12
-15 -2 -9 24 17 50 24 50 14 0 -5 -8 -11 -18 -14 -10 -4 -19 -13 -19 -20 0
-10 10 -7 34 11 18 14 30 29 27 34 -3 5 0 9 6 9 6 0 8 5 5 10 -8 14 -26 13
-22 -1z"/>
<path d="M3168 4643 c7 -3 16 -2 19 1 4 3 -2 6 -13 5 -11 0 -14 -3 -6 -6z"/>
<path d="M2796 4605 c-15 -19 -23 -35 -18 -35 10 0 62 53 62 63 0 17 -20 4
-44 -28z"/>
<path d="M3110 4632 c0 -5 11 -15 25 -22 14 -7 25 -17 25 -22 0 -4 6 -8 13 -8
6 0 23 -9 37 -20 28 -22 55 -26 66 -8 5 8 2 9 -10 5 -27 -10 -78 23 -72 47 4
14 2 16 -7 7 -15 -15 -27 -14 -27 4 0 9 -6 12 -15 9 -8 -4 -15 -1 -15 5 0 6
-4 11 -10 11 -5 0 -10 -4 -10 -8z"/>
<path d="M2821 4593 l-24 -28 34 -14 c19 -7 46 -14 61 -15 14 0 24 -5 21 -10
-9 -15 189 2 204 18 3 3 -15 15 -39 28 -69 37 -76 38 -83 20 -5 -13 -8 -14
-14 -3 -7 11 -13 10 -32 -8 -12 -11 -25 -18 -28 -15 -3 4 0 9 7 11 17 7 15 30
-4 37 -24 9 -26 8 -19 -14 4 -13 1 -22 -9 -26 -9 -3 -16 -10 -16 -16 0 -5 5
-6 12 -2 7 5 8 3 3 -5 -13 -22 -28 4 -16 27 15 28 15 53 0 32 -8 -11 -12 -12
-16 -2 -7 18 -15 15 -42 -15z m35 -30 c-10 -10 -19 5 -10 18 6 11 8 11 12 0 2
-7 1 -15 -2 -18z m138 -9 c5 -14 4 -15 -9 -4 -17 14 -19 20 -6 20 5 0 12 -7
15 -16z m36 -15 c0 -6 -4 -7 -10 -4 -5 3 -10 11 -10 16 0 6 5 7 10 4 6 -3 10
-11 10 -16z"/>
<path d="M4280 4861 c0 -6 4 -12 8 -15 5 -3 9 1 9 9 0 8 -4 15 -9 15 -4 0 -8
-4 -8 -9z"/>
<path d="M4255 4830 c3 -5 8 -10 11 -10 2 0 4 5 4 10 0 6 -5 10 -11 10 -5 0
-7 -4 -4 -10z"/>
<path d="M4234 4806 c-3 -7 -4 -17 -2 -22 1 -5 -3 -19 -10 -32 -11 -19 -10
-25 3 -38 9 -9 19 -13 23 -10 3 4 0 11 -7 16 -9 5 -11 15 -6 26 10 24 16 74 9
74 -2 0 -7 -6 -10 -14z"/>
<path d="M4280 4810 c0 -5 5 -10 11 -10 5 0 7 5 4 10 -3 6 -8 10 -11 10 -2 0
-4 -4 -4 -10z"/>
<path d="M4280 4779 c0 -5 5 -7 10 -4 6 3 10 8 10 11 0 2 -4 4 -10 4 -5 0 -10
-5 -10 -11z"/>
<path d="M3811 4764 c0 -11 3 -14 6 -6 3 7 2 16 -1 19 -3 4 -6 -2 -5 -13z"/>
<path d="M4193 4765 c0 -8 4 -12 9 -9 5 3 6 10 3 15 -9 13 -12 11 -12 -6z"/>
<path d="M4252 4759 c-10 -16 -10 -21 2 -25 13 -5 13 -11 -2 -42 -22 -49 -22
-49 -32 -32 -5 8 -5 17 0 20 5 3 -2 10 -16 17 -21 10 -23 9 -14 -7 14 -26 12
-33 -4 -27 -10 4 -13 1 -9 -9 3 -7 1 -14 -5 -14 -15 0 -33 26 -24 35 4 5 1 5
-5 1 -18 -10 -16 -18 13 -49 14 -16 23 -31 20 -34 -3 -3 -15 6 -27 20 -21 28
-39 35 -39 16 0 -5 5 -7 11 -3 8 4 9 -1 4 -16 -5 -15 -4 -20 4 -16 6 4 16 -2
22 -12 11 -18 13 -17 42 10 25 22 29 30 19 40 -9 9 -12 8 -12 -7 0 -15 -3 -16
-12 -7 -9 10 -8 16 5 29 15 15 17 15 23 0 10 -27 19 -20 47 37 31 63 31 63 14
81 -11 11 -16 10 -25 -6z m23 -9 c3 -5 1 -10 -4 -10 -6 0 -11 5 -11 10 0 6 2
10 4 10 3 0 8 -4 11 -10z"/>
<path d="M3741 4673 c-7 -8 -11 -16 -8 -19 2 -2 10 2 17 11 17 20 9 27 -9 8z"/>
<path d="M3807 4684 c-3 -4 -2 -15 4 -25 7 -15 6 -21 -6 -25 -8 -3 -15 -10
-15 -15 0 -14 37 8 44 26 3 9 2 13 -4 10 -9 -6 -14 8 -11 28 1 9 -4 9 -12 1z"/>
<path d="M3750 4629 c0 -5 5 -7 10 -4 6 3 10 8 10 11 0 2 -4 4 -10 4 -5 0 -10
-5 -10 -11z"/>
<path d="M3818 4611 c-15 -16 -25 -31 -22 -34 6 -6 64 44 64 55 0 15 -15 7
-42 -21z"/>
<path d="M4073 4623 c-9 -3 -10 -10 -3 -24 8 -15 7 -19 -5 -19 -8 0 -15 6 -15
13 -1 6 -6 2 -13 -11 -8 -13 -17 -19 -22 -13 -6 4 -22 11 -36 15 -21 5 -28 1
-38 -21 -10 -21 -9 -28 1 -34 19 -13 24 -11 37 14 l12 22 -5 -22 c-2 -13 0
-23 4 -23 5 0 11 10 13 23 l4 22 8 -24 c8 -23 9 -24 16 -5 7 17 8 17 8 1 1
-16 3 -16 32 -2 25 13 28 19 18 31 -8 10 -8 14 0 14 6 0 14 -7 17 -15 5 -11
10 -12 24 -3 10 7 16 16 13 21 -3 5 -9 3 -14 -4 -6 -11 -9 -10 -14 3 -4 9 -13
14 -21 11 -9 -3 -14 1 -14 12 0 10 5 13 12 9 7 -4 8 -3 4 4 -4 7 -8 12 -9 11
-1 0 -8 -3 -14 -6z m-107 -69 c-4 -9 -9 -15 -11 -12 -3 3 -3 13 1 22 4 9 9 15
11 12 3 -3 3 -13 -1 -22z m91 -6 c-3 -8 -6 -5 -6 6 -1 11 2 17 5 13 3 -3 4
-12 1 -19z"/>
<path d="M3860 4612 c0 -5 -9 -18 -20 -29 l-19 -22 32 -6 c18 -4 37 -12 44
-17 7 -6 16 -1 27 14 22 31 20 35 -14 43 -17 4 -28 11 -24 16 3 5 -2 9 -10 9
-9 0 -16 -4 -16 -8z m20 -26 c0 -2 -7 -9 -15 -16 -13 -11 -14 -10 -9 4 5 14
24 23 24 12z m30 -20 c0 -3 -4 -8 -10 -11 -5 -3 -10 -1 -10 4 0 6 5 11 10 11
6 0 10 -2 10 -4z"/>
<path d="M4882 4993 c-12 -30 -52 -186 -49 -189 1 -1 30 -4 65 -6 40 -3 62 0
62 6 0 18 -52 200 -60 209 -4 4 -12 -5 -18 -20z"/>
<path d="M5110 4740 c0 -5 5 -10 10 -10 6 0 10 5 10 10 0 6 -4 10 -10 10 -5 0
-10 -4 -10 -10z"/>
<path d="M5060 4716 c0 -2 9 -6 20 -9 11 -3 20 -1 20 4 0 5 -9 9 -20 9 -11 0
-20 -2 -20 -4z"/>
<path d="M5129 4712 c7 -5 10 -15 7 -21 -4 -6 -2 -11 4 -11 17 0 8 33 -10 37
-12 4 -13 3 -1 -5z"/>
<path d="M5093 4690 c-13 -5 -23 -12 -23 -15 0 -9 16 -5 36 10 22 16 19 18
-13 5z"/>
<path d="M5180 4691 c0 -6 4 -13 10 -16 6 -3 7 1 4 9 -7 18 -14 21 -14 7z"/>
<path d="M5116 4663 c-4 -5 -12 -8 -17 -8 -5 0 -9 -3 -9 -7 0 -9 -2 -9 28 -2
12 4 22 10 22 15 0 11 -14 12 -24 2z"/>
<path d="M5154 4658 c3 -10 2 -17 -2 -15 -4 1 -18 -6 -32 -16 -29 -20 -15 -22
29 -4 29 12 30 14 15 33 -13 16 -15 16 -10 2z"/>
<path d="M5060 4631 c0 -5 7 -15 17 -22 15 -13 15 -12 4 9 -12 23 -21 28 -21
13z"/>
<path d="M5187 4607 c-10 -12 -16 -17 -12 -10 3 6 0 15 -6 19 -12 7 -10 -10 6
-49 6 -13 3 -16 -9 -11 -9 3 -16 1 -16 -5 0 -6 17 -11 40 -11 44 0 47 5 25 37
-8 12 -12 28 -9 37 8 22 2 20 -19 -7z m10 -49 c-3 -7 -5 -2 -5 12 0 14 2 19 5
13 2 -7 2 -19 0 -25z"/>
<path d="M4700 4610 c-9 -6 -10 -10 -3 -10 6 0 15 5 18 10 8 12 4 12 -15 0z"/>
<path d="M5101 4584 c-10 -12 -11 -20 -2 -37 8 -16 10 -17 6 -3 -5 19 10 46
27 46 5 0 4 -9 -2 -21 -13 -24 -4 -41 11 -19 22 35 -12 65 -40 34z"/>
<path d="M4680 4560 c0 -11 4 -20 9 -20 17 0 19 15 5 28 -12 11 -14 9 -14 -8z"/>
<path d="M4610 4562 c0 -9 13 -17 33 -21 4 0 7 2 7 7 0 4 -3 7 -7 7 -5 0 -14
4 -20 8 -7 5 -13 4 -13 -1z"/>
<path d="M5510 4602 c9 -19 30 -23 30 -5 0 4 -3 3 -7 0 -3 -4 -12 1 -20 11
-13 15 -13 15 -3 -6z"/>
<path d="M5558 4610 c14 -16 16 -34 3 -26 -5 3 -14 -1 -21 -9 -8 -9 -8 -15 -2
-15 6 0 13 6 16 13 3 6 3 2 0 -10 -3 -13 -1 -23 5 -23 6 0 11 6 11 14 0 8 5
18 11 22 8 4 9 -1 4 -17 -7 -23 -7 -23 8 -4 8 11 13 23 11 27 -3 4 2 5 10 2
14 -5 14 -8 1 -21 -20 -19 -19 -23 4 -23 11 0 22 8 24 18 4 16 5 16 6 0 0 -10
6 -18 12 -18 5 0 7 6 3 13 -6 9 -4 9 7 1 8 -6 35 -12 61 -13 42 -2 48 1 52 21
7 33 4 58 -6 52 -5 -3 -8 -11 -7 -17 1 -7 0 -21 -1 -32 -2 -17 -3 -16 -9 5 -4
14 -14 24 -21 22 -7 -1 -19 5 -26 15 -10 13 -13 14 -9 2 5 -13 -5 -15 -60 -13
-36 1 -72 7 -82 15 -15 11 -16 11 -5 -1z m133 -53 c-10 -9 -11 -8 -5 6 3 10 9
15 12 12 3 -3 0 -11 -7 -18z m39 14 c0 -6 -4 -13 -10 -16 -5 -3 -10 1 -10 9 0
9 5 16 10 16 6 0 10 -4 10 -9z m17 -13 c-3 -8 -6 -5 -6 6 -1 11 2 17 5 13 3
-3 4 -12 1 -19z"/>
<path d="M5800 4586 c0 -8 -2 -21 -5 -29 -5 -11 8 -14 65 -16 l70 -2 0 30 c0
26 -4 31 -25 31 -17 0 -25 -6 -26 -17 0 -15 -2 -15 -9 2 -5 12 -9 15 -9 6 -1
-12 -4 -12 -13 -3 -17 17 -48 15 -48 -2z m21 -23 c-12 -20 -14 -14 -5 12 4 9
9 14 11 11 3 -2 0 -13 -6 -23z m86 5 c-3 -8 -6 -5 -6 6 -1 11 2 17 5 13 3 -3
4 -12 1 -19z m-57 -8 c0 -5 -5 -10 -11 -10 -5 0 -7 5 -4 10 3 6 8 10 11 10 2
0 4 -4 4 -10z"/>
<path d="M5502 4555 c-11 -12 -10 -15 3 -15 8 0 15 7 15 15 0 18 -2 18 -18 0z"/>
<path d="M6514 4770 c0 -13 4 -16 10 -10 7 7 7 13 0 20 -6 6 -10 3 -10 -10z"/>
<path d="M6476 4765 c-9 -26 -7 -32 5 -12 6 10 9 21 6 23 -2 3 -7 -2 -11 -11z"/>
<path d="M6435 4760 c3 -5 8 -10 11 -10 2 0 4 5 4 10 0 6 -5 10 -11 10 -5 0
-7 -4 -4 -10z"/>
<path d="M6430 4700 c0 -5 5 -10 11 -10 5 0 7 5 4 10 -3 6 -8 10 -11 10 -2 0
-4 -4 -4 -10z"/>
<path d="M6448 4676 c-19 -14 -25 -32 -8 -21 6 3 10 -1 10 -10 0 -9 -4 -13
-10 -10 -6 4 -7 -1 -3 -11 5 -13 3 -16 -10 -11 -14 5 -17 1 -16 -21 1 -16 3
-20 6 -10 7 27 29 10 27 -20 -2 -26 1 -28 32 -25 19 1 39 5 44 8 11 7 2 35
-12 35 -5 0 -6 -6 -2 -12 4 -7 -2 -5 -14 6 -21 19 -22 18 -32 -5 -8 -19 -9
-20 -8 -4 2 11 -1 25 -5 31 -3 6 2 19 13 29 12 10 20 13 20 7 0 -7 -4 -12 -10
-12 -5 0 -10 -6 -10 -14 0 -12 5 -12 31 1 22 11 29 21 26 34 -3 10 0 20 7 23
6 3 1 3 -11 0 -17 -4 -23 -1 -23 10 0 19 -19 20 -42 2z m51 -26 c6 0 11 -7 11
-15 0 -20 -5 -19 -34 8 -14 13 -22 27 -19 31 4 4 13 0 19 -8 6 -9 16 -16 23
-16z"/>
<path d="M6490 4589 c0 -5 5 -7 10 -4 6 3 10 8 10 11 0 2 -4 4 -10 4 -5 0 -10
-5 -10 -11z"/>
<path d="M6410 4540 c0 -5 5 -10 10 -10 6 0 10 5 10 10 0 6 -4 10 -10 10 -5 0
-10 -4 -10 -10z"/>
<path d="M7308 4763 c7 -3 16 -2 19 1 4 3 -2 6 -13 5 -11 0 -14 -3 -6 -6z"/>
<path d="M7270 4756 c0 -2 8 -10 18 -17 15 -13 16 -12 3 4 -13 16 -21 21 -21
13z"/>
<path d="M7315 4740 c-3 -5 -3 -14 0 -20 8 -13 35 -13 35 0 0 5 -7 7 -15 4 -8
-4 -15 -1 -15 4 0 6 8 13 18 15 15 4 15 5 0 6 -9 0 -20 -3 -23 -9z"/>
<path d="M7250 4706 c0 -2 8 -10 18 -17 15 -13 16 -12 3 4 -13 16 -21 21 -21
13z"/>
<path d="M7290 4699 c0 -5 5 -7 10 -4 6 3 10 8 10 11 0 2 -4 4 -10 4 -5 0 -10
-5 -10 -11z"/>
<path d="M7320 4683 c-13 -15 -12 -16 3 -10 11 4 17 1 17 -8 0 -18 -36 -20
-43 -2 -3 7 -6 4 -6 -6 -1 -11 -5 -15 -13 -11 -8 5 -9 2 -5 -10 5 -14 3 -17
-8 -12 -19 7 -19 -1 -1 -20 16 -16 30 -19 21 -5 -3 5 -1 12 5 16 6 4 8 11 4
16 -3 6 6 9 23 7 25 -3 28 0 29 30 1 36 -4 39 -26 15z"/>
<path d="M7246 4658 c3 -5 10 -6 15 -3 13 9 11 12 -6 12 -8 0 -12 -4 -9 -9z"/>
<path d="M7330 4623 c-37 -11 -41 -13 -35 -23 4 -7 13 -7 28 1 20 9 20 9 4 -4
-9 -8 -15 -21 -11 -30 3 -8 1 -18 -5 -22 -7 -4 -9 1 -5 12 4 14 3 15 -4 4 -7
-9 -12 -10 -16 -2 -4 6 -2 11 3 11 6 0 11 5 11 11 0 5 -5 7 -10 4 -6 -4 -17
-2 -24 4 -10 9 -15 7 -19 -8 -6 -25 7 -45 27 -38 8 3 18 2 21 -3 3 -4 13 -7
23 -5 9 2 25 4 36 4 13 1 16 6 11 19 -4 9 -10 29 -14 43 -4 17 -11 24 -21 22z
m-56 -58 c3 -8 1 -15 -4 -15 -6 0 -10 7 -10 15 0 8 2 15 4 15 2 0 6 -7 10 -15z
m76 5 c0 -5 -4 -10 -10 -10 -5 0 -10 5 -10 10 0 6 5 10 10 10 6 0 10 -4 10
-10z"/>
<path d="M4870 3895 c0 -8 2 -15 4 -15 2 0 6 7 10 15 3 8 1 15 -4 15 -6 0 -10
-7 -10 -15z"/>
<path d="M3970 3858 c-12 -22 -12 -22 6 -6 10 10 15 20 12 24 -4 3 -12 -5 -18
-18z"/>
<path d="M6735 3780 c3 -5 11 -10 16 -10 6 0 7 5 4 10 -3 6 -11 10 -16 10 -6
0 -7 -4 -4 -10z"/>
<path d="M4985 3763 c-11 -11 -13 -48 -8 -191 3 -97 10 -181 15 -187 10 -11
109 -13 150 -2 34 9 47 45 22 64 -10 7 -32 13 -50 13 -36 0 -44 16 -36 68 3
22 10 32 22 32 33 0 50 12 50 34 0 31 -19 46 -58 46 -32 0 -33 2 -30 33 3 28
7 32 33 34 17 0 35 2 42 2 18 1 26 40 12 57 -16 20 -144 17 -164 -3z"/>
<path d="M6700 3760 c0 -5 5 -10 10 -10 6 0 10 5 10 10 0 6 -4 10 -10 10 -5 0
-10 -4 -10 -10z"/>
<path d="M3465 3750 c-3 -5 -1 -10 4 -10 6 0 11 5 11 10 0 6 -2 10 -4 10 -3 0
-8 -4 -11 -10z"/>
<path d="M4780 3740 c-6 -11 -8 -42 -4 -72 l6 -53 -33 -10 c-64 -20 -65 -77
-1 -83 34 -3 35 -6 47 -92 6 -45 28 -80 50 -80 7 0 23 8 35 18 21 17 22 21 11
92 -6 41 -16 120 -21 174 -6 55 -15 105 -21 113 -17 19 -57 16 -69 -7z"/>
<path d="M5367 3753 c-14 -13 -6 -51 28 -133 39 -95 40 -108 23 -193 -11 -55
-11 -60 7 -73 24 -18 59 -18 74 0 6 7 18 46 25 85 10 54 22 82 48 114 19 23
44 59 57 80 12 20 25 37 28 37 4 0 30 -7 59 -16 61 -20 84 -14 84 21 0 33 -41
51 -133 61 l-65 7 -48 -73 -49 -72 -31 66 c-18 37 -38 73 -44 81 -13 15 -51
20 -63 8z"/>
<path d="M6510 3749 c0 -5 5 -7 10 -4 6 3 10 8 10 11 0 2 -4 4 -10 4 -5 0 -10
-5 -10 -11z"/>
<path d="M6703 3725 c0 -8 4 -12 9 -9 5 3 6 10 3 15 -9 13 -12 11 -12 -6z"/>
<path d="M4502 3702 c-91 -22 -103 -27 -108 -49 -9 -34 17 -57 63 -58 l37 0
24 -85 c13 -47 30 -109 38 -137 18 -64 43 -82 80 -58 32 21 31 47 -11 179 -19
60 -35 115 -35 122 0 8 14 21 31 29 35 18 37 50 4 70 -16 10 -39 7 -123 -13z"/>
<path d="M3518 3703 c7 -3 16 -2 19 1 4 3 -2 6 -13 5 -11 0 -14 -3 -6 -6z"/>
<path d="M3535 3670 c3 -5 8 -10 11 -10 2 0 4 5 4 10 0 6 -5 10 -11 10 -5 0
-7 -4 -4 -10z"/>
<path d="M5810 3530 c-47 -71 -91 -132 -99 -135 -20 -8 -41 14 -41 44 0 40 14
55 44 47 19 -5 28 -1 36 13 15 29 4 46 -46 72 -42 22 -46 23 -58 7 -17 -23
-60 -214 -52 -233 8 -22 145 -68 172 -58 6 2 20 23 30 46 27 64 31 67 66 55
l30 -11 -7 -64 c-7 -71 2 -93 40 -93 12 0 27 6 33 13 10 12 32 158 47 319 6
59 4 69 -14 87 -14 14 -34 21 -58 21 -37 0 -39 -2 -123 -130z m115 -17 c-8
-46 -21 -61 -37 -45 -9 9 -7 20 8 47 24 46 38 45 29 -2z"/>
<path d="M4130 3612 c-64 -31 -75 -62 -41 -111 11 -16 50 -90 87 -164 70 -144
89 -164 125 -131 26 23 24 53 -8 119 l-27 55 22 16 c16 11 22 24 20 42 -3 25
-7 27 -46 27 -37 0 -45 4 -63 34 -11 18 -19 34 -17 36 2 1 18 10 36 19 36 18
39 31 16 64 -20 28 -37 27 -104 -6z"/>
<path d="M6173 3458 c-43 -67 -97 -147 -120 -177 -24 -30 -43 -58 -43 -63 0
-18 49 -58 64 -52 8 3 38 37 66 75 29 39 57 68 64 66 18 -6 19 -37 1 -76 -9
-21 -15 -55 -13 -77 2 -32 8 -40 30 -48 38 -13 62 11 77 77 10 47 15 55 46 66
41 15 92 73 105 121 14 49 -11 92 -88 157 -92 78 -95 77 -189 -69z m154 -20
c29 -27 30 -64 3 -78 -17 -9 -28 -7 -55 10 -19 12 -35 24 -35 26 0 11 45 64
54 64 5 0 20 -10 33 -22z"/>
<path d="M3825 3505 c-46 -24 -65 -52 -65 -99 0 -50 18 -81 99 -168 108 -116
203 -145 254 -76 43 58 21 128 -80 253 -82 100 -139 125 -208 90z m117 -122
c50 -53 99 -124 92 -134 -13 -21 -52 -7 -90 34 -54 56 -74 87 -74 114 0 35 31
29 72 -14z"/>
<path d="M4522 3241 c-7 -4 -14 -21 -15 -37 -2 -25 3 -30 35 -41 158 -53 793
-64 1071 -19 127 21 140 28 125 62 -12 26 -13 27 -100 20 -49 -4 -110 -9 -136
-12 -186 -20 -518 -24 -667 -9 -74 7 -265 34 -285 40 -8 3 -21 1 -28 -4z"/>
<path d="M4350 3059 c-9 -16 -8 -25 6 -40 21 -23 37 -24 54 -4 10 12 10 21 2
40 -14 31 -47 33 -62 4z"/>
<path d="M5855 3060 c-16 -49 25 -79 59 -44 19 18 19 20 6 45 -14 26 -57 25
-65 -1z"/>
<path d="M4497 3002 c-10 -10 -17 -31 -17 -46 0 -33 28 -47 140 -70 293 -60
653 -66 938 -17 202 35 253 63 218 116 -16 24 -23 27 -55 22 -20 -3 -94 -15
-166 -26 -181 -28 -394 -44 -500 -36 -135 9 -328 34 -434 56 -113 23 -104 23
-124 1z"/>
<path d="M5107 2645 c-9 -8 -20 -29 -26 -47 -10 -30 -15 -33 -51 -35 -76 -2
-92 -43 -35 -91 36 -29 36 -29 24 -74 -7 -25 -9 -52 -6 -61 10 -25 57 -21 87
8 l26 25 37 -26 c53 -35 81 -30 85 18 2 20 -2 46 -7 57 -10 17 -5 25 29 52 40
32 51 61 28 75 -7 4 -35 13 -62 19 -42 9 -51 16 -59 41 -18 55 -42 68 -70 39z"/>
<path d="M7365 3680 c3 -5 8 -10 11 -10 2 0 4 5 4 10 0 6 -5 10 -11 10 -5 0
-7 -4 -4 -10z"/>
<path d="M7330 3654 c0 -8 5 -12 10 -9 6 3 10 10 10 16 0 5 -4 9 -10 9 -5 0
-10 -7 -10 -16z"/>
<path d="M3040 3585 c13 -14 26 -25 28 -25 3 0 -5 11 -18 25 -13 14 -26 25
-28 25 -3 0 5 -11 18 -25z"/>
<path d="M3101 3523 c7 -12 15 -20 18 -17 3 2 -3 12 -13 22 -17 16 -18 16 -5
-5z"/>
<path d="M7540 3690 c0 -5 5 -10 10 -10 6 0 10 5 10 10 0 6 -4 10 -10 10 -5 0
-10 -4 -10 -10z"/>
<path d="M7390 3456 c0 -2 7 -7 16 -10 8 -3 12 -2 9 4 -6 10 -25 14 -25 6z"/>
<path d="M7375 3430 c-3 -5 -1 -10 4 -10 6 0 11 5 11 10 0 6 -2 10 -4 10 -3 0
-8 -4 -11 -10z"/>
<path d="M7303 3340 c2 -8 0 -25 -4 -37 -5 -13 -5 -23 0 -23 14 0 21 42 10 59
-8 13 -9 13 -6 1z"/>
<path d="M7033 3038 c3 -9 1 -18 -6 -21 -8 -2 -8 -5 0 -10 15 -9 23 17 11 34
-8 11 -9 11 -5 -3z"/>
<path d="M6515 2680 c3 -5 8 -10 11 -10 2 0 4 5 4 10 0 6 -5 10 -11 10 -5 0
-7 -4 -4 -10z"/>
<path d="M6168 2513 c7 -3 16 -2 19 1 4 3 -2 6 -13 5 -11 0 -14 -3 -6 -6z"/>
<path d="M2700 3730 c-9 -6 -10 -10 -3 -10 6 0 15 5 18 10 8 12 4 12 -15 0z"/>
<path d="M2740 3650 c-9 -6 -10 -10 -3 -10 6 0 15 5 18 10 8 12 4 12 -15 0z"/>
<path d="M2855 3423 c-16 -13 -17 -15 -2 -10 9 4 17 3 17 -2 0 -4 7 -8 16 -8
15 0 15 1 0 12 -8 7 -13 15 -9 18 12 13 -2 6 -22 -10z"/>
<path d="M3202 3048 c2 -6 10 -13 16 -14 7 -1 8 0 2 3 -5 2 -8 9 -4 14 3 5 0
9 -6 9 -7 0 -10 -5 -8 -12z"/>
<path d="M3521 2804 c0 -11 3 -14 6 -6 3 7 2 16 -1 19 -3 4 -6 -2 -5 -13z"/>
<path d="M3570 2796 c0 -8 -3 -16 -7 -19 -5 -2 -2 -2 6 0 8 2 11 -2 7 -12 -3
-8 -1 -15 4 -15 5 0 8 13 7 30 -2 29 -17 43 -17 16z"/>
<path d="M3610 2780 c0 -5 5 -10 11 -10 5 0 7 5 4 10 -3 6 -8 10 -11 10 -2 0
-4 -4 -4 -10z"/>
<path d="M3725 2680 c3 -5 16 -15 28 -21 l22 -11 -22 21 c-23 22 -39 28 -28
11z"/>
<path d="M3836 2606 c10 -8 21 -12 24 -10 5 6 -21 24 -34 24 -6 0 -1 -6 10
-14z"/>
<path d="M3880 2591 c0 -6 4 -12 8 -15 5 -3 9 1 9 9 0 8 -4 15 -9 15 -4 0 -8
-4 -8 -9z"/>
<path d="M3977 2573 c-4 -3 -7 -11 -7 -17 0 -6 5 -5 12 2 6 6 9 14 7 17 -3 3
-9 2 -12 -2z"/>
<path d="M4110 2509 c0 -5 5 -7 10 -4 6 3 10 8 10 11 0 2 -4 4 -10 4 -5 0 -10
-5 -10 -11z"/>
<path d="M2151 4334 c0 -11 3 -14 6 -6 3 7 2 16 -1 19 -3 4 -6 -2 -5 -13z"/>
<path d="M8138 3279 c6 -9 9 -19 5 -22 -3 -4 -1 -7 5 -7 6 0 17 10 23 23 11
19 10 20 -3 10 -11 -10 -17 -10 -28 0 -12 10 -12 9 -2 -4z"/>
<path d="M8106 3262 c-3 -6 -1 -14 5 -17 14 -9 20 -2 10 14 -6 8 -11 9 -15 3z"/>
<path d="M8070 3245 c-7 -9 -11 -17 -9 -20 3 -2 10 5 17 15 14 24 10 26 -8 5z"/>
<path d="M7996 3199 c2 -4 -2 -10 -8 -12 -13 -5 -11 -6 19 -7 4 0 8 6 9 13 1
8 -4 14 -12 14 -7 0 -11 -4 -8 -8z"/>
<path d="M8040 3199 c0 -5 5 -7 10 -4 6 3 10 8 10 11 0 2 -4 4 -10 4 -5 0 -10
-5 -10 -11z"/>
<path d="M7955 3160 c7 -21 -10 -28 -18 -7 -4 9 -6 9 -6 0 -2 -23 21 -25 43
-3 11 13 15 20 9 16 -7 -4 -13 -2 -13 3 0 6 -5 11 -11 11 -6 0 -8 -9 -4 -20z"/>
<path d="M7736 2645 c4 -8 -1 -17 -9 -21 -10 -3 -13 -12 -9 -22 5 -15 4 -15
-11 -3 -13 10 -17 10 -17 1 0 -7 -8 -10 -20 -7 -11 3 -18 1 -14 -4 3 -5 12 -9
20 -9 10 0 12 -5 8 -12 -5 -7 10 0 32 16 71 53 68 49 48 63 -24 17 -35 16 -28
-2z"/>
<path d="M2532 2594 c10 -10 20 -16 22 -13 3 3 -5 11 -17 18 -21 13 -21 12 -5
-5z"/>
<path d="M2646 2564 c-3 -8 -11 -12 -17 -8 -8 4 -9 3 -5 -5 6 -9 11 -9 22 0
10 8 14 8 14 0 0 -6 8 -11 18 -11 13 0 14 2 3 9 -7 5 -10 14 -7 20 4 6 1 11
-7 11 -8 0 -18 -7 -21 -16z"/>
<path d="M7631 2556 c-10 -12 -8 -13 9 -9 25 7 37 23 17 23 -8 0 -20 -6 -26
-14z"/>
<path d="M7521 2543 c-1 -8 -11 -11 -23 -9 -22 3 -58 -12 -58 -24 0 -7 156 23
164 31 9 9 -47 5 -61 -4 -6 -4 -14 -1 -16 5 -4 10 -6 10 -6 1z"/>
<path d="M7357 2513 c-4 -3 -1 -13 6 -21 10 -13 9 -15 -8 -8 -11 4 -16 4 -12
0 4 -4 -5 -13 -19 -21 -32 -16 -37 -16 -29 0 4 6 1 5 -7 -4 -7 -9 -19 -15 -26
-13 -7 1 -8 0 -2 -3 16 -7 12 -26 -4 -20 -8 3 -20 -2 -28 -11 -11 -13 -11 -14
1 -7 10 6 12 4 7 -4 -5 -7 -14 -10 -22 -7 -9 3 -11 0 -7 -11 4 -9 2 -14 -3
-10 -6 3 -11 -4 -11 -16 -2 -17 0 -19 7 -7 7 11 10 12 10 2 0 -8 15 4 34 27
18 22 37 37 41 33 5 -4 5 1 2 11 -4 10 -3 16 2 12 5 -3 26 6 47 20 20 14 41
25 45 25 5 0 9 5 9 10 0 6 -8 10 -17 10 -15 0 -16 2 -3 10 8 5 10 10 4 10 -6
0 -14 -3 -17 -7z"/>
<path d="M7406 2505 c-3 -9 0 -15 9 -15 8 0 15 7 15 15 0 8 -4 15 -9 15 -5 0
-11 -7 -15 -15z"/>
<path d="M2828 2503 c7 -3 16 -2 19 1 4 3 -2 6 -13 5 -11 0 -14 -3 -6 -6z"/>
<path d="M2900 2476 c0 -2 7 -7 16 -10 8 -3 12 -2 9 4 -6 10 -25 14 -25 6z"/>
<path d="M7132 2223 c-1 -12 3 -23 9 -23 5 0 7 5 4 10 -4 6 -2 17 4 24 8 9 7
13 -2 13 -7 0 -14 -11 -15 -24z"/>
<path d="M7091 2185 c0 -5 4 -19 9 -30 8 -18 9 -18 9 -2 1 10 5 16 10 12 5 -3
13 0 17 6 4 8 3 9 -4 5 -7 -4 -12 -1 -12 6 0 10 -2 10 -9 -1 -7 -11 -9 -11
-14 0 -3 8 -5 10 -6 4z"/>
<path d="M3130 2144 c0 -6 7 -19 16 -30 14 -18 14 -18 3 6 -14 31 -19 36 -19
24z"/>
<path d="M7015 2030 c6 -10 4 -12 -8 -7 -9 3 -16 3 -16 -1 3 -20 -2 -32 -11
-27 -6 4 -8 10 -5 15 3 5 0 12 -7 16 -7 4 -10 4 -6 -1 4 -4 0 -21 -9 -36 -18
-30 -37 -40 -27 -14 4 8 1 15 -6 15 -6 0 -8 -4 -5 -10 3 -5 -2 -10 -12 -11
-13 0 -12 -3 7 -10 19 -8 27 -7 36 5 6 9 15 12 19 8 5 -4 4 -1 0 7 -6 10 -4
13 7 9 16 -7 26 -1 46 24 10 12 10 18 1 24 -8 5 -9 3 -4 -6z"/>
<path d="M3569 1995 c-3 -2 -19 -5 -37 -7 -18 -1 -32 -7 -32 -13 0 -5 -5 -3
-10 5 -8 12 -10 11 -10 -7 0 -27 -2 -26 72 -9 67 16 157 13 217 -9 53 -18 56
-18 39 -2 -20 21 -225 57 -239 42z"/>
<path d="M3300 1980 c-8 -5 -10 -10 -5 -10 6 0 17 5 25 10 8 5 11 10 5 10 -5
0 -17 -5 -25 -10z"/>
<path d="M6714 1982 c3 -6 3 -12 -1 -15 -5 -2 -3 -3 3 -1 6 1 15 -1 20 -6 15
-14 67 -16 71 -2 3 8 -6 12 -27 12 -17 0 -41 5 -52 11 -12 7 -18 7 -14 1z"/>
<path d="M3361 1964 c13 -16 29 -19 29 -5 0 5 -9 11 -21 14 -16 4 -18 3 -8 -9z"/>
<path d="M3400 1961 c0 -6 4 -13 10 -16 6 -3 7 1 4 9 -7 18 -14 21 -14 7z"/>
<path d="M3445 1960 c-19 -7 -19 -8 -2 -15 19 -8 31 -2 26 13 -2 5 -13 6 -24
2z"/>
<path d="M6848 1943 c7 -3 16 -2 19 1 4 3 -2 6 -13 5 -11 0 -14 -3 -6 -6z"/>
<path d="M6888 1943 c7 -3 16 -2 19 1 4 3 -2 6 -13 5 -11 0 -14 -3 -6 -6z"/>
<path d="M3860 1920 c-8 -5 -10 -10 -5 -10 6 0 17 5 25 10 8 5 11 10 5 10 -5
0 -17 -5 -25 -10z"/>
<path d="M4028 1743 c6 -2 12 -9 12 -14 0 -6 -10 -5 -22 2 l-23 12 20 -23 c11
-12 18 -23 15 -24 -2 0 3 -11 11 -24 21 -29 107 -63 157 -60 37 1 37 1 4 5
-20 3 -30 8 -26 15 5 8 1 9 -11 4 -15 -5 -16 -4 -5 9 7 9 9 15 4 14 -23 -4
-55 2 -50 10 3 5 -1 14 -9 21 -12 10 -18 10 -30 0 -8 -6 -19 -9 -25 -5 -13 8
-13 35 0 35 5 0 7 -7 4 -15 -4 -8 -2 -15 4 -15 20 0 18 25 -4 42 -12 10 -26
18 -31 17 -4 0 -2 -3 5 -6z m72 -67 c0 -2 -7 -7 -16 -10 -8 -3 -12 -2 -9 4 6
10 25 14 25 6z"/>
<path d="M4553 1713 c-35 -2 -63 -8 -63 -14 0 -6 -8 -5 -21 2 -12 6 -19 7 -16
2 7 -11 -59 -37 -73 -28 -6 3 -7 -1 -4 -10 5 -11 1 -14 -17 -12 -12 2 -34 -2
-48 -10 -14 -7 -37 -13 -51 -13 -22 -1 -23 -2 -7 -11 10 -6 26 -7 35 -3 9 4
24 9 32 10 8 2 56 17 105 35 121 44 229 47 323 7 55 -23 64 -24 77 -11 22 21
18 24 -10 11 -19 -8 -28 -9 -37 0 -8 8 -5 9 11 5 11 -3 21 -1 21 4 0 5 -6 10
-12 10 -50 1 -124 15 -126 23 -2 6 -16 9 -30 8 -15 -1 -55 -3 -89 -5z"/>
<path d="M5630 1717 c3 -3 37 -10 77 -16 39 -6 79 -13 90 -16 10 -3 4 1 -13 9
-29 14 -164 34 -154 23z"/>
<path d="M5824 1678 c-3 -4 -4 -8 -2 -8 2 0 43 -13 91 -30 97 -33 161 -37 217
-14 l35 14 -35 -6 c-26 -4 -31 -3 -20 5 8 6 11 11 5 11 -5 -1 -19 -7 -29 -15
-21 -16 -61 -21 -52 -6 3 4 -7 6 -22 4 -21 -4 -24 -2 -12 6 15 10 -7 15 -72
15 -9 0 -14 4 -11 9 3 5 -4 6 -18 2 -23 -7 -23 -6 -5 7 17 13 15 15 -23 14
-24 0 -45 -4 -47 -8z"/>
<path d="M6171 1654 c0 -11 3 -14 6 -6 3 7 2 16 -1 19 -3 4 -6 -2 -5 -13z"/>
<path d="M4831 1646 c-16 -19 3 -30 29 -16 11 6 20 13 20 16 0 2 -10 -1 -22
-7 -21 -11 -22 -11 -9 4 7 10 9 17 3 17 -5 0 -15 -6 -21 -14z"/>
<path d="M6138 1653 c7 -3 16 -2 19 1 4 3 -2 6 -13 5 -11 0 -14 -3 -6 -6z"/>
</g>
</svg>
