<?xml version="1.0" encoding="UTF-8"?>
<!DOCTYPE svg PUBLIC "-//W3C//DTD SVG 1.1//EN" "http://www.w3.org/Graphics/SVG/1.1/DTD/svg11.dtd">
<svg xmlns="http://www.w3.org/2000/svg" version="1.1" width="300px" height="373px" style="shape-rendering:geometricPrecision; text-rendering:geometricPrecision; image-rendering:optimizeQuality; fill-rule:evenodd; clip-rule:evenodd" xmlns:xlink="http://www.w3.org/1999/xlink">
<g><path style="opacity:1" fill="#bababa" d="M 158.5,47.5 C 159.167,47.8333 159.833,48.1667 160.5,48.5C 163.209,50.1316 162.875,50.6316 159.5,50C 157.381,49.6582 157.047,48.8249 158.5,47.5 Z"/></g>
<g><path style="opacity:1" fill="#f7f7f7" d="M 71.5,189.5 C 72.5897,192.267 73.5897,195.101 74.5,198C 73.8107,200.054 72.8107,201.054 71.5,201C 72.2442,203.155 73.2442,205.155 74.5,207C 74.3333,207.5 74.1667,208 74,208.5C 73.0022,205.972 72.1689,205.972 71.5,208.5C 72.6962,211.058 74.0296,213.558 75.5,216C 74.7597,218.943 73.7597,219.109 72.5,216.5C 71.8627,219.307 72.5294,221.973 74.5,224.5C 73.5,225.167 72.5,225.833 71.5,226.5C 72.5,228.5 73.5,230.5 74.5,232.5C 73.675,233.386 72.675,233.719 71.5,233.5C 72.2024,236.578 73.2024,239.578 74.5,242.5C 74.3333,243.167 74.1667,243.833 74,244.5C 72.9805,243.313 71.8139,242.313 70.5,241.5C 69.0723,244.952 70.2389,247.285 74,248.5C 75.6006,251.094 75.7673,253.761 74.5,256.5C 73.5197,255.019 72.353,253.685 71,252.5C 70.8333,253.167 70.6667,253.833 70.5,254.5C 72.0505,258.429 73.7172,262.263 75.5,266C 75.3333,266.833 75.1667,267.667 75,268.5C 74.059,266.939 72.8924,265.605 71.5,264.5C 71.1667,265.167 70.8333,265.833 70.5,266.5C 71.758,268.687 72.758,271.02 73.5,273.5C 72.8333,274.833 72.1667,276.167 71.5,277.5C 73.286,280.458 75.286,283.291 77.5,286C 77.3699,287.059 76.8699,287.892 76,288.5C 73.4197,284.514 72.0863,284.514 72,288.5C 71.0922,286.561 69.5922,285.561 67.5,285.5C 66.8362,281.846 66.1695,278.18 65.5,274.5C 65.6692,272.161 66.3358,269.994 67.5,268C 66.5192,260.587 66.1858,253.087 66.5,245.5C 66.8128,241.958 66.4794,238.625 65.5,235.5C 65.3334,210.831 65.5,186.164 66,161.5C 67.9955,163.05 70.1622,164.384 72.5,165.5C 70.3209,167.283 70.3209,169.283 72.5,171.5C 71.3981,173.961 71.3981,176.461 72.5,179C 72.3333,179.833 72.1667,180.667 72,181.5C 71.1072,180.289 70.2739,180.289 69.5,181.5C 70.7061,184.079 72.0394,186.579 73.5,189C 72.9056,189.464 72.2389,189.631 71.5,189.5 Z"/></g>
<g><path style="opacity:1" fill="#4a1010" d="M 158.5,47.5 C 157.047,48.8249 157.381,49.6582 159.5,50C 162.875,50.6316 163.209,50.1316 160.5,48.5C 162.696,48.5652 164.696,49.2319 166.5,50.5C 167.174,52.5165 168.341,54.1832 170,55.5C 170.495,57.4727 170.662,59.4727 170.5,61.5C 186.956,60.4431 201.622,64.9431 214.5,75C 216.378,76.5429 217.878,78.3762 219,80.5C 219.333,87.5 219.667,94.5 220,101.5C 221.085,102.293 222.252,102.96 223.5,103.5C 227.303,102.992 230.97,102.158 234.5,101C 231.789,99.7394 229.622,97.906 228,95.5C 227.004,90.7712 227.504,86.2712 229.5,82C 235.222,78.6939 240.889,78.8605 246.5,82.5C 249.637,90.8967 247.137,97.23 239,101.5C 238.598,102.872 238.098,104.205 237.5,105.5C 231.734,106.981 225.901,107.981 220,108.5C 219.832,118.849 219.332,129.183 218.5,139.5C 216.596,140.257 216.263,141.257 217.5,142.5C 225.611,140.294 229.611,143.294 229.5,151.5C 230.833,150.5 232.167,149.5 233.5,148.5C 234.571,150.325 233.904,151.492 231.5,152C 225.253,154.471 218.92,156.638 212.5,158.5C 218.528,158.531 224.361,156.865 230,153.5C 230.167,154 230.333,154.5 230.5,155C 227.819,158.093 224.653,160.593 221,162.5C 220.306,165.468 219.806,168.468 219.5,171.5C 220.18,208.496 220.847,245.496 221.5,282.5C 221.361,287.643 220.528,292.643 219,297.5C 218.667,296.833 218.333,296.167 218,295.5C 212.703,299.306 208.37,303.972 205,309.5C 204.266,313.04 203.099,316.373 201.5,319.5C 202.171,320.946 203.338,321.612 205,321.5C 208.021,319.962 211.188,319.462 214.5,320C 216.576,321.884 216.91,324.051 215.5,326.5C 209.536,330.216 203.369,330.882 197,328.5C 196.5,329 196,329.5 195.5,330C 189.833,330.667 184.167,330.667 178.5,330C 178.167,329.667 177.833,329.333 177.5,329C 178.833,328.667 180.167,328.333 181.5,328C 180.833,327.667 180.167,327.333 179.5,327C 175.129,326.828 170.796,326.328 166.5,325.5C 174.334,323.89 182.667,323.056 191.5,323C 190.376,322.751 189.376,322.251 188.5,321.5C 190.833,320.833 193.167,320.167 195.5,319.5C 191.794,317.747 188.628,315.414 186,312.5C 179.546,314.16 173.046,315.66 166.5,317C 167.833,317.667 167.833,318.333 166.5,319C 159.621,319.542 152.788,320.375 146,321.5C 145.127,321.265 144.293,320.931 143.5,320.5C 134.821,324.279 126.821,324.446 119.5,321C 136.833,320.333 136.833,319.667 119.5,319C 122.167,318.667 124.833,318.333 127.5,318C 121.435,317.644 115.435,316.81 109.5,315.5C 106.473,315.938 103.473,316.105 100.5,316C 102.301,315.683 102.634,315.016 101.5,314C 97.9714,313.378 94.4714,313.545 91,314.5C 87.896,314.149 88.0626,313.649 91.5,313C 94.5535,312.821 97.5535,312.321 100.5,311.5C 93.7215,309.81 87.3882,310.81 81.5,314.5C 81.1667,315 80.8333,315.5 80.5,316C 81.8966,317.961 82.8966,320.128 83.5,322.5C 82.175,324.694 80.5084,326.694 78.5,328.5C 75.0136,329.276 71.5136,329.942 68,330.5C 58.1974,328.949 48.3641,327.449 38.5,326C 43.8987,324.92 49.2321,323.587 54.5,322C 51.8333,321.667 49.1667,321.333 46.5,321C 47.5,320.5 48.5,320 49.5,319.5C 54.8839,320.557 60.0505,320.557 65,319.5C 65.6172,318.551 65.4506,317.718 64.5,317C 66.6631,315.52 68.6631,315.52 70.5,317C 69.1667,317.333 67.8333,317.667 66.5,318C 69.7201,319.352 73.0534,320.186 76.5,320.5C 76.2231,316.822 74.8898,313.655 72.5,311C 73.624,310.751 74.624,310.251 75.5,309.5C 74.0642,308.066 72.3975,306.9 70.5,306C 71.938,305.781 73.2713,305.281 74.5,304.5C 71.578,304.101 68.578,303.934 65.5,304C 73.3284,302.207 72.9951,301.207 64.5,301C 67.2716,300.474 69.9382,299.641 72.5,298.5C 70.8603,295.027 68.3603,292.36 65,290.5C 64.5001,279.172 64.3335,267.838 64.5,256.5C 65.1667,252.833 65.8333,249.167 66.5,245.5C 66.1858,253.087 66.5192,260.587 67.5,268C 66.3358,269.994 65.6692,272.161 65.5,274.5C 66.1695,278.18 66.8362,281.846 67.5,285.5C 69.5922,285.561 71.0922,286.561 72,288.5C 72.0863,284.514 73.4197,284.514 76,288.5C 76.8699,287.892 77.3699,287.059 77.5,286C 75.286,283.291 73.286,280.458 71.5,277.5C 72.1667,276.167 72.8333,274.833 73.5,273.5C 72.758,271.02 71.758,268.687 70.5,266.5C 70.8333,265.833 71.1667,265.167 71.5,264.5C 72.8924,265.605 74.059,266.939 75,268.5C 75.1667,267.667 75.3333,266.833 75.5,266C 73.7172,262.263 72.0505,258.429 70.5,254.5C 70.6667,253.833 70.8333,253.167 71,252.5C 72.353,253.685 73.5197,255.019 74.5,256.5C 75.7673,253.761 75.6006,251.094 74,248.5C 70.2389,247.285 69.0723,244.952 70.5,241.5C 71.8139,242.313 72.9805,243.313 74,244.5C 74.1667,243.833 74.3333,243.167 74.5,242.5C 73.2024,239.578 72.2024,236.578 71.5,233.5C 72.675,233.719 73.675,233.386 74.5,232.5C 73.5,230.5 72.5,228.5 71.5,226.5C 72.5,225.833 73.5,225.167 74.5,224.5C 72.5294,221.973 71.8627,219.307 72.5,216.5C 73.7597,219.109 74.7597,218.943 75.5,216C 74.0296,213.558 72.6962,211.058 71.5,208.5C 72.1689,205.972 73.0022,205.972 74,208.5C 74.1667,208 74.3333,207.5 74.5,207C 73.2442,205.155 72.2442,203.155 71.5,201C 72.8107,201.054 73.8107,200.054 74.5,198C 73.5897,195.101 72.5897,192.267 71.5,189.5C 72.2389,189.631 72.9056,189.464 73.5,189C 72.0394,186.579 70.7061,184.079 69.5,181.5C 70.2739,180.289 71.1072,180.289 72,181.5C 72.1667,180.667 72.3333,179.833 72.5,179C 71.3981,176.461 71.3981,173.961 72.5,171.5C 70.3209,169.283 70.3209,167.283 72.5,165.5C 70.1622,164.384 67.9955,163.05 66,161.5C 65.5,186.164 65.3334,210.831 65.5,235.5C 65.6716,236.492 65.3382,237.158 64.5,237.5C 63.4204,212.835 63.2537,188.168 64,163.5C 63.8369,158.334 61.1702,155.334 56,154.5C 52.6402,146.895 54.6402,141.228 62,137.5C 62.092,118.134 62.7586,98.8002 64,79.5C 64.9745,77.1224 65.6411,77.4557 66,80.5C 70.5126,74.4929 76.346,70.3262 83.5,68C 91.3232,64.5034 99.3232,61.8367 107.5,60C 104.696,57.3994 105.029,55.8994 108.5,55.5C 110.037,52.1958 112.704,50.0291 116.5,49C 130.354,46.9869 144.354,46.4869 158.5,47.5 Z"/></g>
<g><path style="opacity:1" fill="#e5e5e5" d="M 81.5,227.5 C 82.7733,228.077 82.7733,228.743 81.5,229.5C 80.537,229.03 80.537,228.363 81.5,227.5 Z"/></g>
<g><path style="opacity:1" fill="#eeeeee" d="M 79.5,220.5 C 80.3897,222.782 80.5564,225.115 80,227.5C 78.2721,225.181 78.1054,222.847 79.5,220.5 Z"/></g>
<g><path style="opacity:1" fill="#f5f5f5" d="M 79.5,220.5 C 77.7222,209.567 78.7222,209.067 82.5,219C 82.3176,221.578 81.3176,222.078 79.5,220.5 Z"/></g>
<g><path style="opacity:1" fill="#f2f2f2" d="M 78.5,195.5 C 80.9283,197.619 82.0949,200.286 82,203.5C 79.0561,201.628 77.8895,198.961 78.5,195.5 Z"/></g>
<g><path style="opacity:1" fill="#f0f0f0" d="M 78.5,187.5 C 81.5746,189.317 82.7413,191.984 82,195.5C 79.0561,193.628 77.8895,190.961 78.5,187.5 Z"/></g>
<g><path style="opacity:1" fill="#4a1010" d="M 71.5,189.5 C 69.7274,188.686 69.2274,187.352 70,185.5C 70.7914,186.745 71.2914,188.078 71.5,189.5 Z"/></g>
<g><path style="opacity:1" fill="#dcdcdc" d="M 77.5,168.5 C 77.7373,169.791 77.404,170.791 76.5,171.5C 75.1148,170.053 75.4482,169.053 77.5,168.5 Z"/></g>
<g><path style="opacity:1" fill="#fafafa" d="M 104.5,210.5 C 104.388,216.509 105.055,221.176 106.5,224.5C 106.157,244.504 105.99,264.504 106,284.5C 107.233,265.854 107.733,247.187 107.5,228.5C 108.328,222.013 108.828,215.346 109,208.5C 109.173,214.016 109.673,219.349 110.5,224.5C 111.506,214.853 112.172,199.853 112.5,179.5C 113.268,178.737 113.768,177.737 114,176.5C 114.181,179.695 114.681,182.695 115.5,185.5C 116.624,182.913 116.958,176.913 116.5,167.5C 120.527,167.281 121.194,168.448 118.5,171C 119.144,176.116 119.811,181.282 120.5,186.5C 121.167,180.167 121.833,173.833 122.5,167.5C 123.768,166.572 125.101,166.405 126.5,167C 125.708,172.434 125.041,177.934 124.5,183.5C 124.692,185.577 125.192,187.577 126,189.5C 126.628,182.171 127.128,174.837 127.5,167.5C 130.271,167.421 132.937,167.921 135.5,169C 132.968,169.612 132.135,171.112 133,173.5C 135.162,169.632 138.328,168.132 142.5,169C 139.307,172.275 137.474,176.108 137,180.5C 139.531,176.646 142.031,172.813 144.5,169C 145.944,168.219 147.277,168.386 148.5,169.5C 147.048,170.94 146.048,172.606 145.5,174.5C 147.138,173.343 148.804,172.176 150.5,171C 151.944,170.219 153.277,170.386 154.5,171.5C 152.527,174.64 150.36,177.64 148,180.5C 149.059,181.762 149.392,183.762 149,186.5C 152.575,182.347 155.909,178.014 159,173.5C 158.268,176.299 156.934,178.966 155,181.5C 154.333,182.833 154.333,184.167 155,185.5C 157.667,180.833 160.333,176.167 163,171.5C 164.337,170.235 165.837,169.735 167.5,170C 162.005,175.529 158.339,181.696 156.5,188.5C 157.358,186.099 158.691,184.099 160.5,182.5C 157.626,191.365 158.459,191.699 163,183.5C 163.004,185.368 162.504,187.202 161.5,189C 161.85,190.257 162.517,190.591 163.5,190C 167.877,183.413 172.377,176.913 177,170.5C 177.5,171.5 178,172.5 178.5,173.5C 175.252,177.737 172.919,182.404 171.5,187.5C 175.142,182.903 178.308,177.903 181,172.5C 183.851,171.416 186.684,170.583 189.5,170C 184.101,176.395 179.101,183.061 174.5,190C 174.548,191.033 174.881,191.366 175.5,191C 176.723,188.056 178.556,185.556 181,183.5C 180.232,185.844 179.065,188.177 177.5,190.5C 178.167,190.833 178.833,191.167 179.5,191.5C 178.674,192.451 178.508,193.451 179,194.5C 180.049,192.382 181.549,190.716 183.5,189.5C 182.65,191.494 182.15,193.494 182,195.5C 183.779,192.724 184.779,193.057 185,196.5C 185.333,196.167 185.667,195.833 186,195.5C 186.333,198.167 186.667,200.833 187,203.5C 187.24,201.148 188.073,199.148 189.5,197.5C 189.786,199.933 190.452,199.933 191.5,197.5C 191.833,197.5 192.167,197.5 192.5,197.5C 191.193,199.152 191.193,200.818 192.5,202.5C 191.461,204.531 189.795,205.864 187.5,206.5C 186.582,208.758 185.915,211.091 185.5,213.5C 186.624,215.858 186.791,218.191 186,220.5C 187.753,219.373 189.587,218.373 191.5,217.5C 192.76,219.353 192.76,221.186 191.5,223C 189.649,223.837 187.816,224.671 186,225.5C 185.333,226.5 185.333,227.5 186,228.5C 187.413,226.586 189.247,225.253 191.5,224.5C 192.681,226.135 192.681,227.802 191.5,229.5C 188.681,230.743 186.014,232.243 183.5,234C 185.658,235.312 185.991,236.978 184.5,239C 186.669,239.429 188.669,238.929 190.5,237.5C 191.5,237.833 192.167,238.5 192.5,239.5C 191.687,240.814 190.687,241.981 189.5,243C 186.888,243.639 184.554,244.806 182.5,246.5C 182.833,246.833 183.167,247.167 183.5,247.5C 185.894,245.932 188.394,244.599 191,243.5C 191.5,244.5 192,245.5 192.5,246.5C 191.099,247.521 189.765,248.521 188.5,249.5C 189.5,249.5 190.5,249.5 191.5,249.5C 191.608,251.514 190.942,253.18 189.5,254.5C 190.995,254.415 191.995,255.081 192.5,256.5C 191.636,258.197 190.303,259.363 188.5,260C 189.793,260.49 191.127,260.657 192.5,260.5C 192.66,262.199 192.494,263.866 192,265.5C 189.696,267.068 187.196,268.235 184.5,269C 187.157,269.175 189.824,269.008 192.5,268.5C 192.703,270.39 192.037,271.89 190.5,273C 188.221,273.473 186.221,274.473 184.5,276C 187.112,275.641 189.779,275.141 192.5,274.5C 192.5,276.167 192.5,277.833 192.5,279.5C 190.62,279.229 189.287,279.896 188.5,281.5C 189.822,281.67 190.989,281.337 192,280.5C 192.617,281.449 192.451,282.282 191.5,283C 194.167,284.667 194.167,286.333 191.5,288C 189.754,288.471 188.087,289.138 186.5,290C 187.833,290.667 189.167,290.667 190.5,290C 194.19,288.437 197.857,286.937 201.5,285.5C 202.78,283.276 202.447,281.276 200.5,279.5C 201.833,277.5 203.5,275.833 205.5,274.5C 203.939,273.653 202.439,273.986 201,275.5C 200.13,274.892 199.63,274.059 199.5,273C 201.29,271.266 203.29,269.766 205.5,268.5C 206.497,261.866 206.83,255.2 206.5,248.5C 206.5,243.833 206.5,239.167 206.5,234.5C 206.389,219.82 206.723,205.153 207.5,190.5C 207.5,185.167 207.5,179.833 207.5,174.5C 205.473,174.662 203.473,174.495 201.5,174C 203.231,172.37 205.231,171.203 207.5,170.5C 209.204,171.068 210.704,171.068 212,170.5C 212.078,173.371 211.578,176.205 210.5,179C 211.079,180.914 212.079,182.581 213.5,184C 213.265,184.873 212.931,185.707 212.5,186.5C 213.401,190.848 213.901,195.182 214,199.5C 212.113,197.974 211.113,195.974 211,193.5C 210.333,198.833 210.333,204.167 211,209.5C 211.333,207.167 211.667,204.833 212,202.5C 212.5,203 213,203.5 213.5,204C 212.212,206.466 212.212,208.966 213.5,211.5C 212.833,212.5 212.167,213.5 211.5,214.5C 212.167,215.5 212.833,216.5 213.5,217.5C 210.919,219.674 210.919,221.84 213.5,224C 212.552,224.483 211.552,224.649 210.5,224.5C 210.586,226.677 211.253,228.677 212.5,230.5C 211.535,231.914 210.535,232.747 209.5,233C 209.611,234.722 210.111,234.888 211,233.5C 211.601,235.137 212.101,236.803 212.5,238.5C 211.763,246.83 211.097,255.163 210.5,263.5C 213.853,263.555 215.353,265.222 215,268.5C 212.424,265.847 210.924,266.514 210.5,270.5C 210.833,271.167 211.167,271.833 211.5,272.5C 212.425,271.359 213.259,271.359 214,272.5C 215.098,278.064 214.265,283.231 211.5,288C 205.718,287.519 200.718,289.186 196.5,293C 192.648,293.593 188.981,294.76 185.5,296.5C 184.558,296.392 183.725,296.059 183,295.5C 178.306,298.709 173.306,299.042 168,296.5C 161.472,298.073 154.805,299.406 148,300.5C 126.781,301.159 105.947,298.493 85.5,292.5C 84.6671,276.177 84.1671,259.844 84,243.5C 82.2443,241.726 82.2443,240.059 84,238.5C 85.0177,239.706 85.5177,239.373 85.5,237.5C 84.9703,228.97 84.4703,220.304 84,211.5C 83.0255,209.122 82.3589,209.456 82,212.5C 79.4128,210.633 77.9128,208.133 77.5,205C 79.745,205.195 81.5784,206.362 83,208.5C 84.9193,200.42 84.586,192.42 82,184.5C 80.8525,185.458 79.8525,185.125 79,183.5C 78.5172,182.552 78.3505,181.552 78.5,180.5C 78.56,179.957 78.8933,179.624 79.5,179.5C 80.1476,181.149 81.1476,182.482 82.5,183.5C 83.5121,181.163 83.3454,178.83 82,176.5C 81.6924,177.308 81.1924,177.975 80.5,178.5C 78.4798,176.401 78.1465,174.067 79.5,171.5C 80.2807,172.737 81.2807,173.737 82.5,174.5C 83.5284,172.56 83.5284,170.56 82.5,168.5C 82.7605,166.813 83.4272,165.313 84.5,164C 85.1667,163.333 85.8333,163.333 86.5,164C 84.5794,165.241 84.246,166.741 85.5,168.5C 86.1924,167.975 86.6924,167.308 87,166.5C 88.0084,166.982 89.175,167.148 90.5,167C 89.2234,169.466 89.2234,171.966 90.5,174.5C 91.1667,171.5 91.8333,168.5 92.5,165.5C 93.7362,166.246 95.0695,166.579 96.5,166.5C 96.4977,171.021 96.1644,175.521 95.5,180C 97.0508,189.862 98.5508,199.695 100,209.5C 100.567,222.532 100.567,235.532 100,248.5C 101.163,246.715 101.83,244.715 102,242.5C 102.613,226.498 103.28,210.498 104,194.5C 104.499,199.823 104.666,205.156 104.5,210.5 Z"/></g>
<g><path style="opacity:1" fill="#4a1010" d="M 162.5,225.5 C 163.931,227.268 165.597,227.935 167.5,227.5C 163.878,231.042 164.545,231.375 169.5,228.5C 171.148,230.554 170.648,232.554 168,234.5C 167.833,235.833 167.667,237.167 167.5,238.5C 168.19,240.91 168.69,243.243 169,245.5C 166.817,247.447 164.484,249.114 162,250.5C 161.308,249.975 160.808,249.308 160.5,248.5C 162.307,247.605 163.64,246.272 164.5,244.5C 164.333,243.833 164.167,243.167 164,242.5C 159.953,244.182 159.12,243.515 161.5,240.5C 161.023,239.522 160.357,238.689 159.5,238C 160.984,236.426 162.651,235.093 164.5,234C 162.874,234.195 161.207,234.195 159.5,234C 161.077,231.405 162.077,228.571 162.5,225.5 Z"/></g>
<g><path style="opacity:1" fill="#868686" d="M 114.5,206.5 C 115.167,206.5 115.833,206.5 116.5,206.5C 115.18,263.768 114.513,263.768 114.5,206.5 Z"/></g>
<g><path style="opacity:1" fill="#7d2020" d="M 94.5,203.5 C 95.9191,210.303 96.4191,217.303 96,224.5C 94.9133,217.54 94.4133,210.54 94.5,203.5 Z"/></g>
<g><path style="opacity:1" fill="#dfdfdf" d="M 204.5,176.5 C 206.859,177.389 207.025,178.722 205,180.5C 203.489,179.436 203.323,178.103 204.5,176.5 Z"/></g>
<g><path style="opacity:1" fill="#c7c7c7" d="M 192.5,177.5 C 191.833,177.5 191.5,177.167 191.5,176.5C 193.439,174.011 193.772,174.344 192.5,177.5 Z"/></g>
<g><path style="opacity:1" fill="#d9d9d9" d="M 79.5,164.5 C 80.8333,165.167 80.8333,165.833 79.5,166.5C 79.0825,165.778 78.4158,165.278 77.5,165C 78.0944,164.536 78.7611,164.369 79.5,164.5 Z"/></g>
<g><path style="opacity:1" fill="#d9d9d9" d="M 57.5,145.5 C 59.4646,145.948 59.7979,146.948 58.5,148.5C 57.6143,147.675 57.281,146.675 57.5,145.5 Z"/></g>
<g><path style="opacity:1" fill="#f6f6f6" d="M 107.5,112.5 C 107.5,115.167 107.5,117.833 107.5,120.5C 108.959,120.433 110.292,120.766 111.5,121.5C 111.5,128.5 111.5,135.5 111.5,142.5C 111.46,145.881 111.793,149.214 112.5,152.5C 111.662,152.842 111.328,153.508 111.5,154.5C 110.395,156.3 111.061,157.467 113.5,158C 119.032,158.163 124.532,157.663 130,156.5C 134.622,157.393 139.122,158.726 143.5,160.5C 147.727,158.89 152.06,157.557 156.5,156.5C 160.278,157.489 164.111,158.156 168,158.5C 177.422,156.953 186.922,156.12 196.5,156C 198.567,154.016 201.067,152.849 204,152.5C 208.719,154.642 212.219,153.476 214.5,149C 217.471,148.206 220.471,147.539 223.5,147C 222.806,142.631 223.973,142.464 227,146.5C 227.781,147.944 227.614,149.277 226.5,150.5C 213.959,155.884 200.959,159.551 187.5,161.5C 159.128,163.157 130.795,162.657 102.5,160C 94.0483,159.007 85.715,157.507 77.5,155.5C 72.9862,154.579 68.6529,153.079 64.5,151C 62.9926,150.163 62.4926,148.996 63,147.5C 65.0693,148.264 67.236,148.764 69.5,149C 71.0773,151.079 73.0773,152.579 75.5,153.5C 80.1712,152.242 84.8379,152.242 89.5,153.5C 89.5,154.5 89.5,155.5 89.5,156.5C 91.8845,156.557 94.2178,156.223 96.5,155.5C 99.0464,157.947 101.713,158.114 104.5,156C 103.095,154.731 101.429,154.231 99.5,154.5C 98.9338,143.509 98.6005,132.509 98.5,121.5C 99.1667,127.167 99.8333,132.833 100.5,138.5C 100.369,139.239 100.536,139.906 101,140.5C 101.133,137.586 102.3,135.253 104.5,133.5C 104.315,132.416 103.982,131.416 103.5,130.5C 103.994,125.703 104.661,120.703 105.5,115.5C 105.224,126.207 105.724,136.873 107,147.5C 107.781,146.271 108.281,144.938 108.5,143.5C 107.236,138.283 107.236,133.116 108.5,128C 108,127.5 107.5,127 107,126.5C 106.185,121.648 106.352,116.981 107.5,112.5 Z"/></g>
<g><path style="opacity:1" fill="#f0f0f0" d="M 192.5,147.5 C 195.001,147.511 195.168,148.178 193,149.5C 192.536,148.906 192.369,148.239 192.5,147.5 Z"/></g>
<g><path style="opacity:1" fill="#f5f5f5" d="M 217.5,142.5 C 222.463,144.394 222.463,145.394 217.5,145.5C 217.5,144.5 217.5,143.5 217.5,142.5 Z"/></g>
<g><path style="opacity:1" fill="#e1e1e1" d="M 67.5,141.5 C 69.4233,141.795 71.0899,142.628 72.5,144C 70.1713,144.396 68.5046,143.562 67.5,141.5 Z"/></g>
<g><path style="opacity:1" fill="#e1e1e1" d="M 63.5,139.5 C 65.0281,139.517 65.5281,140.184 65,141.5C 59.6078,145.543 59.1078,144.877 63.5,139.5 Z"/></g>
<g><path style="opacity:1" fill="#7b2f2f" d="M 113.5,126.5 C 114.988,133.729 115.488,141.063 115,148.5C 114.392,150.066 113.558,151.4 112.5,152.5C 111.793,149.214 111.46,145.881 111.5,142.5C 112.477,137.013 113.144,131.68 113.5,126.5 Z"/></g>
<g><path style="opacity:1" fill="#dddddd" d="M 200.5,139.5 C 201.573,140.251 201.74,141.251 201,142.5C 199.272,141.648 199.105,140.648 200.5,139.5 Z"/></g>
<g><path style="opacity:1" fill="#f1f1f1" d="M 76.5,137.5 C 77.7709,139.109 78.7709,140.942 79.5,143C 77.2688,143.163 75.9355,141.997 75.5,139.5C 75.8627,138.817 76.1961,138.15 76.5,137.5 Z"/></g>
<g><path style="opacity:1" fill="#f5f5f5" d="M 193.5,133.5 C 196.001,133.511 196.168,134.178 194,135.5C 193.536,134.906 193.369,134.239 193.5,133.5 Z"/></g>
<g><path style="opacity:1" fill="#eaeaea" d="M 76.5,132.5 C 78.8324,133.162 79.4991,134.495 78.5,136.5C 76.8888,135.68 76.2222,134.346 76.5,132.5 Z"/></g>
<g><path style="opacity:1" fill="#fcfcfc" d="M 193.5,129.5 C 196.001,129.511 196.168,130.178 194,131.5C 193.536,130.906 193.369,130.239 193.5,129.5 Z"/></g>
<g><path style="opacity:1" fill="#d9d9d9" d="M 193.5,123.5 C 194.782,124.708 194.782,126.042 193.5,127.5C 192.374,126.192 192.374,124.858 193.5,123.5 Z"/></g>
<g><path style="opacity:1" fill="#f3f3f3" d="M 199.5,121.5 C 201.337,121.639 201.67,122.306 200.5,123.5C 199.702,123.043 199.369,122.376 199.5,121.5 Z"/></g>
<g><path style="opacity:1" fill="#ebebeb" d="M 192.5,119.5 C 194.337,119.639 194.67,120.306 193.5,121.5C 192.702,121.043 192.369,120.376 192.5,119.5 Z"/></g>
<g><path style="opacity:1" fill="#e4e4e4" d="M 76.5,118.5 C 77.4971,117.287 78.4971,117.454 79.5,119C 78.2805,120.795 77.2805,120.628 76.5,118.5 Z"/></g>
<g><path style="opacity:1" fill="#909090" d="M 191.5,114.5 C 192.5,114.5 193.5,114.5 194.5,114.5C 194.741,117.999 193.908,118.332 192,115.5C 191.601,115.728 191.435,116.062 191.5,116.5C 189.891,116.906 188.557,116.906 187.5,116.5C 188.32,114.889 189.654,114.222 191.5,114.5 Z"/></g>
<g><path style="opacity:1" fill="#e3e3e3" d="M 192.5,110.5 C 194.337,110.639 194.67,111.306 193.5,112.5C 192.702,112.043 192.369,111.376 192.5,110.5 Z"/></g>
<g><path style="opacity:1" fill="#e1e1e1" d="M 76.5,105.5 C 77.7498,105.577 78.5831,106.244 79,107.5C 79.7975,109.259 79.6309,110.926 78.5,112.5C 77.914,112.291 77.414,111.957 77,111.5C 76.5045,109.527 76.3379,107.527 76.5,105.5 Z"/></g>
<g><path style="opacity:1" fill="#ececec" d="M 76.5,97.5 C 78.8324,98.1617 79.4991,99.495 78.5,101.5C 76.8888,100.68 76.2222,99.3464 76.5,97.5 Z"/></g>
<g><path style="opacity:1" fill="#eaeaea" d="M 194.5,94.5 C 197.012,95.2162 197.012,96.2162 194.5,97.5C 193.438,96.5754 193.438,95.5754 194.5,94.5 Z"/></g>
<g><path style="opacity:1" fill="#f5f5f5" d="M 233.5,93.5 C 235.337,93.6395 235.67,94.3061 234.5,95.5C 233.702,95.0431 233.369,94.3764 233.5,93.5 Z"/></g>
<g><path style="opacity:1" fill="#fbfbfb" d="M 191.5,114.5 C 189.654,114.222 188.32,114.889 187.5,116.5C 188.557,116.906 189.891,116.906 191.5,116.5C 191.423,117.75 190.756,118.583 189.5,119C 192.064,121.276 191.73,123.276 188.5,125C 189.448,125.483 190.448,125.649 191.5,125.5C 191.663,127.857 191.497,130.19 191,132.5C 189.795,133.071 188.628,133.738 187.5,134.5C 188.833,134.833 190.167,135.167 191.5,135.5C 189.5,136.5 187.5,137.5 185.5,138.5C 186,138.833 186.5,139.167 187,139.5C 197.293,136.878 197.793,137.878 188.5,142.5C 188.833,142.833 189.167,143.167 189.5,143.5C 192.221,141.611 194.887,141.445 197.5,143C 193.4,145.467 189.566,148.301 186,151.5C 181.193,150.416 176.527,151.083 172,153.5C 168.803,150.939 165.97,151.439 163.5,155C 160.5,155.167 157.5,155.333 154.5,155.5C 144.207,155.18 133.873,155.014 123.5,155C 119.466,152.431 115.466,152.264 111.5,154.5C 111.328,153.508 111.662,152.842 112.5,152.5C 113.558,151.4 114.392,150.066 115,148.5C 115.488,141.063 114.988,133.729 113.5,126.5C 113.88,124.302 113.213,122.635 111.5,121.5C 110.292,120.766 108.959,120.433 107.5,120.5C 107.5,117.833 107.5,115.167 107.5,112.5C 107.737,108.727 107.237,105.06 106,101.5C 105.501,106.155 105.334,110.821 105.5,115.5C 104.661,120.703 103.994,125.703 103.5,130.5C 103.167,130.5 102.833,130.5 102.5,130.5C 102.666,122.16 102.5,113.827 102,105.5C 100.647,114.775 100.147,124.109 100.5,133.5C 100.5,135.167 100.5,136.833 100.5,138.5C 99.8333,132.833 99.1667,127.167 98.5,121.5C 98.6653,117.818 98.4986,114.152 98,110.5C 97.5,111.5 97,112.5 96.5,113.5C 97.8136,126.134 97.8136,138.801 96.5,151.5C 93.0393,150.432 89.5393,150.432 86,151.5C 81.52,151.537 80.02,149.537 81.5,145.5C 82.4776,145.977 83.3109,146.643 84,147.5C 84.1667,146.833 84.3333,146.167 84.5,145.5C 83.5944,143.253 82.2611,141.253 80.5,139.5C 80.8333,139.167 81.1667,138.833 81.5,138.5C 84.4188,139.857 85.9188,142.19 86,145.5C 86.6667,138.5 86.6667,131.5 86,124.5C 84.5451,129.15 84.2117,133.817 85,138.5C 82.1516,134.919 79.485,131.252 77,127.5C 76.3333,126.167 76.3333,124.833 77,123.5C 78.483,126.326 80.483,128.659 83,130.5C 83.2395,128.023 82.4062,125.856 80.5,124C 81.3279,123.085 82.3279,122.419 83.5,122C 82.3677,119.566 81.3677,117.066 80.5,114.5C 80.5565,113.263 81.0565,112.263 82,111.5C 82.8928,112.711 83.7261,112.711 84.5,111.5C 83.1667,109.167 81.8333,106.833 80.5,104.5C 81.0402,103.252 81.7069,102.085 82.5,101C 79.3475,98.1954 77.6808,94.6954 77.5,90.5C 95.37,93.0402 113.37,94.7069 131.5,95.5C 135.233,93.8426 138.733,94.176 142,96.5C 144.294,95.1478 146.794,94.4811 149.5,94.5C 153.533,95.2394 157.533,95.5728 161.5,95.5C 170.741,93.6539 180.075,93.1539 189.5,94C 188.833,94.3333 188.167,94.6667 187.5,95C 188.938,95.2189 190.271,95.7189 191.5,96.5C 190.276,98.8392 190.276,101.172 191.5,103.5C 192.768,102.572 194.101,102.405 195.5,103C 188.714,106.081 189.048,107.081 196.5,106C 193.254,107.859 189.921,109.525 186.5,111C 188.134,111.494 189.801,111.66 191.5,111.5C 191.5,112.5 191.5,113.5 191.5,114.5 Z"/></g>
<g><path style="opacity:1" fill="#b4b4b4" d="M 102.5,130.5 C 102.833,130.5 103.167,130.5 103.5,130.5C 103.982,131.416 104.315,132.416 104.5,133.5C 102.3,135.253 101.133,137.586 101,140.5C 100.536,139.906 100.369,139.239 100.5,138.5C 100.5,136.833 100.5,135.167 100.5,133.5C 101.167,132.5 101.833,131.5 102.5,130.5 Z"/></g>
<g><path style="opacity:1" fill="#828282" d="M 88.5,111.5 C 89.8701,121.649 90.3701,131.983 90,142.5C 88.5259,132.331 88.0259,121.998 88.5,111.5 Z"/></g>
<g><path style="opacity:1" fill="#757575" d="M 91.5,108.5 C 92.3171,110.969 92.8171,113.635 93,116.5C 93.6667,126.5 93.6667,136.5 93,146.5C 91.5208,133.993 91.0208,121.326 91.5,108.5 Z"/></g>
<g><path style="opacity:1" fill="#8d8d8d" d="M 111.5,121.5 C 113.213,122.635 113.88,124.302 113.5,126.5C 113.144,131.68 112.477,137.013 111.5,142.5C 111.5,135.5 111.5,128.5 111.5,121.5 Z"/></g>
<g><path style="opacity:1" fill="#777777" d="M 107.5,112.5 C 106.352,116.981 106.185,121.648 107,126.5C 107.5,127 108,127.5 108.5,128C 107.236,133.116 107.236,138.283 108.5,143.5C 108.281,144.938 107.781,146.271 107,147.5C 105.724,136.873 105.224,126.207 105.5,115.5C 105.334,110.821 105.501,106.155 106,101.5C 107.237,105.06 107.737,108.727 107.5,112.5 Z"/></g>
<g><path style="opacity:1" fill="#772929" d="M 102.5,130.5 C 101.833,131.5 101.167,132.5 100.5,133.5C 100.147,124.109 100.647,114.775 102,105.5C 102.5,113.827 102.666,122.16 102.5,130.5 Z"/></g>
<g><path style="opacity:1" fill="#7d2020" d="M 161.5,117.5 C 165.846,117.334 170.179,117.501 174.5,118C 177.781,120.555 181.281,122.722 185,124.5C 185.926,128.253 184.426,130.42 180.5,131C 179.833,132.333 179.167,133.667 178.5,135C 168.149,137.879 157.815,138.046 147.5,135.5C 147.135,134.098 146.301,133.098 145,132.5C 142.804,131.91 140.638,131.243 138.5,130.5C 136.073,124.429 137.906,122.429 144,124.5C 145.967,123.507 147.134,121.84 147.5,119.5C 152.317,118.833 156.983,118.166 161.5,117.5 Z"/></g>
<g><path style="opacity:1" fill="#f4f4f4" d="M 139.5,126.5 C 140.5,126.5 141.5,126.5 142.5,126.5C 141.754,130.31 140.754,130.31 139.5,126.5 Z"/></g>
<g><path style="opacity:1" fill="#f5f5f5" d="M 156.5,120.5 C 162.537,120.171 168.537,120.504 174.5,121.5C 175.518,122.852 176.851,123.852 178.5,124.5C 178.291,125.086 177.957,125.586 177.5,126C 179.235,126.651 180.902,126.485 182.5,125.5C 183.833,126.167 183.833,126.833 182.5,127.5C 172.562,134.954 161.562,136.954 149.5,133.5C 148.625,131.227 146.958,130.227 144.5,130.5C 144.5,129.167 144.5,127.833 144.5,126.5C 147.91,126.616 149.244,124.95 148.5,121.5C 151.385,121.806 154.052,121.473 156.5,120.5 Z"/></g>
<g><path style="opacity:1" fill="#4a1010" d="M 167.5,121.5 C 168.473,121.987 169.473,122.487 170.5,123C 164.574,124.432 158.574,125.432 152.5,126C 151.862,127.707 151.862,129.54 152.5,131.5C 157.179,131.334 161.845,131.501 166.5,132C 161.961,132.253 157.461,132.753 153,133.5C 151.051,132.042 150.218,130.042 150.5,127.5C 150.667,126.167 150.833,124.833 151,123.5C 151.561,124.022 152.228,124.355 153,124.5C 157.892,123.141 162.725,122.141 167.5,121.5 Z"/></g>
<g><path style="opacity:1" fill="#7b2f2f" d="M 167.5,104.5 C 170.001,104.511 170.168,105.178 168,106.5C 167.536,105.906 167.369,105.239 167.5,104.5 Z"/></g>
<g><path style="opacity:1" fill="#f6f6f6" d="M 206.5,88.5 C 207.822,88.33 208.989,88.6634 210,89.5C 210.568,95.9701 211.068,102.303 211.5,108.5C 210.975,109.192 210.308,109.692 209.5,110C 210.533,115.088 211.367,120.255 212,125.5C 213.628,126.819 213.461,128.152 211.5,129.5C 211.204,133.653 212.204,137.653 214.5,141.5C 211.539,143.564 208.372,145.231 205,146.5C 204.316,144.521 204.816,142.854 206.5,141.5C 205.675,140.614 204.675,140.281 203.5,140.5C 203.337,138.143 203.503,135.81 204,133.5C 205.205,132.929 206.372,132.262 207.5,131.5C 206.02,130.887 204.687,130.554 203.5,130.5C 204.263,129.281 205.263,128.281 206.5,127.5C 203.285,126.552 202.952,125.219 205.5,123.5C 204.833,122.5 204.167,121.5 203.5,120.5C 204.501,109.804 205.501,99.137 206.5,88.5 Z"/></g>
<g><path style="opacity:1" fill="#f0f0f0" d="M 230.5,87.5 C 233.972,87.1262 236.972,88.1262 239.5,90.5C 239.192,91.3081 238.692,91.9747 238,92.5C 235.932,88.6892 233.599,88.6892 231,92.5C 229.481,90.8608 229.314,89.1942 230.5,87.5 Z"/></g>
<g><path style="opacity:1" fill="#f8f8f8" d="M 65.5,86.5 C 68.1483,86.7385 69.9817,88.0718 71,90.5C 72.0362,95.4265 71.5362,100.093 69.5,104.5C 70.6368,106.607 71.6368,108.773 72.5,111C 69.8641,116.514 69.8641,122.014 72.5,127.5C 71.675,128.386 70.675,128.719 69.5,128.5C 69.9239,131.354 70.9239,134.021 72.5,136.5C 70.6409,139.019 68.6409,139.019 66.5,136.5C 64.2223,119.887 63.889,103.221 65.5,86.5 Z"/></g>
<g><path style="opacity:1" fill="#f0f0f0" d="M 75.5,83.5 C 77.332,84.1405 77.6653,85.1405 76.5,86.5C 74.4807,85.8671 74.1474,84.8671 75.5,83.5 Z"/></g>
<g><path style="opacity:1" fill="#d9d9d9" d="M 203.5,82.5 C 205.337,82.6395 205.67,83.3061 204.5,84.5C 203.702,84.0431 203.369,83.3764 203.5,82.5 Z"/></g>
<g><path style="opacity:1" fill="#a1a1a1" d="M 169.5,81.5 C 170.492,81.3284 171.158,81.6618 171.5,82.5C 169.834,83.6664 168.167,83.6664 166.5,82.5C 167.325,81.6143 168.325,81.281 169.5,81.5 Z"/></g>
<g><path style="opacity:1" fill="#f5f5f5" d="M 214.5,80.5 C 216.337,80.6395 216.67,81.3061 215.5,82.5C 214.702,82.0431 214.369,81.3764 214.5,80.5 Z"/></g>
<g><path style="opacity:1" fill="#e9e9e9" d="M 211.5,78.5 C 212.688,80.4959 212.021,81.3293 209.5,81C 210.381,80.2917 211.047,79.4584 211.5,78.5 Z"/></g>
<g><path style="opacity:1" fill="#dddddd" d="M 75.5,79.5 C 76.7082,78.218 78.0416,78.218 79.5,79.5C 76.6392,82.3807 73.3059,83.0474 69.5,81.5C 72.2592,80.951 74.2592,80.2844 75.5,79.5 Z"/></g>
<g><path style="opacity:1" fill="#e8e8e8" d="M 72.5,77.5 C 74.337,77.6395 74.6704,78.3061 73.5,79.5C 72.7025,79.0431 72.3691,78.3764 72.5,77.5 Z"/></g>
<g><path style="opacity:1" fill="#d8d8d8" d="M 211.5,78.5 C 210.504,78.4142 209.671,78.7476 209,79.5C 208.536,78.9056 208.369,78.2389 208.5,77.5C 209.496,77.5858 210.329,77.2524 211,76.5C 211.464,77.0944 211.631,77.7611 211.5,78.5 Z"/></g>
<g><path style="opacity:1" fill="#c5c5c5" d="M 80.5,76.5 C 83.7973,76.3287 84.1306,76.9954 81.5,78.5C 80.7025,78.0431 80.3691,77.3764 80.5,76.5 Z"/></g>
<g><path style="opacity:1" fill="#747474" d="M 159.5,72.5 C 162.482,72.1044 165.149,72.7711 167.5,74.5C 166.91,75.7989 165.91,76.6322 164.5,77C 166.235,77.6514 167.902,77.4847 169.5,76.5C 170.646,77.1449 171.646,77.9783 172.5,79C 170.292,79.1909 168.292,79.6909 166.5,80.5C 164.897,80.6882 163.563,80.1882 162.5,79C 162.833,78.6667 163.167,78.3333 163.5,78C 161.114,77.7165 160.448,76.7165 161.5,75C 160.244,74.5831 159.577,73.7498 159.5,72.5 Z"/></g>
<g><path style="opacity:1" fill="#e3e3e3" d="M 208.5,77.5 C 206.663,77.3605 206.33,76.6939 207.5,75.5C 208.298,75.9569 208.631,76.6236 208.5,77.5 Z"/></g>
<g><path style="opacity:1" fill="#dedede" d="M 200.5,71.5 C 201.675,71.281 202.675,71.6143 203.5,72.5C 201.948,73.7979 200.948,73.4646 200.5,71.5 Z"/></g>
<g><path style="opacity:1" fill="#ededed" d="M 90.5,68.5 C 91.8734,68.3433 93.2068,68.51 94.5,69C 91.5083,71.1101 88.175,72.4434 84.5,73C 85.5,73.3333 86.5,73.6667 87.5,74C 83.9994,75.5006 80.3327,76.1673 76.5,76C 80.8255,72.6733 85.4922,70.1733 90.5,68.5 Z"/></g>
<g><path style="opacity:1" fill="#7b2f2f" d="M 154.5,68.5 C 158.512,68.5486 162.512,68.7153 166.5,69C 164.699,69.3173 164.366,69.984 165.5,71C 163.527,71.4955 161.527,71.6621 159.5,71.5C 157.738,71.6427 156.071,71.3094 154.5,70.5C 153.227,69.7435 153.227,69.0768 154.5,68.5 Z"/></g>
<g><path style="opacity:1" fill="#e9e9e9" d="M 190.5,67.5 C 194.276,67.4692 194.443,68.1359 191,69.5C 189.316,69.3166 189.15,68.6499 190.5,67.5 Z"/></g>
<g><path style="opacity:1" fill="#e6e6e6" d="M 185.5,66.5 C 188.001,66.5109 188.168,67.1776 186,68.5C 185.536,67.9056 185.369,67.2389 185.5,66.5 Z"/></g>
<g><path style="opacity:1" fill="#f2f2f2" d="M 186.5,90.5 C 184.575,89.0684 182.575,87.5684 180.5,86C 179.552,85.5172 178.552,85.3505 177.5,85.5C 178.609,84.71 179.942,84.21 181.5,84C 178.137,83.0726 175.137,83.5726 172.5,85.5C 171.596,84.791 171.263,83.791 171.5,82.5C 171.158,81.6618 170.492,81.3284 169.5,81.5C 168.791,80.596 167.791,80.2627 166.5,80.5C 168.292,79.6909 170.292,79.1909 172.5,79C 171.646,77.9783 170.646,77.1449 169.5,76.5C 167.902,77.4847 166.235,77.6514 164.5,77C 165.91,76.6322 166.91,75.7989 167.5,74.5C 165.149,72.7711 162.482,72.1044 159.5,72.5C 159.5,72.1667 159.5,71.8333 159.5,71.5C 161.527,71.6621 163.527,71.4955 165.5,71C 164.366,69.984 164.699,69.3173 166.5,69C 162.512,68.7153 158.512,68.5486 154.5,68.5C 155.552,68.6495 156.552,68.4828 157.5,68C 156.263,67.7679 155.263,67.2679 154.5,66.5C 158.868,66.6299 163.202,66.2965 167.5,65.5C 170.602,65.4966 170.935,65.9966 168.5,67C 169.5,67.3333 170.5,67.6667 171.5,68C 171.167,68.3333 170.833,68.6667 170.5,69C 174.157,68.8922 177.823,68.8922 181.5,69C 180.167,69.6667 180.167,70.3333 181.5,71C 183.833,72.5 186.167,74 188.5,75.5C 187.092,76.2432 185.759,77.0766 184.5,78C 185.672,78.3534 186.838,78.1868 188,77.5C 203.693,82.3794 203.193,86.7127 186.5,90.5 Z"/></g>
<g><path style="opacity:1" fill="#7c7c7c" d="M 177.5,85.5 C 175.833,85.5 174.167,85.5 172.5,85.5C 175.137,83.5726 178.137,83.0726 181.5,84C 179.942,84.21 178.609,84.71 177.5,85.5 Z"/></g>
<g><path style="opacity:1" fill="#767676" d="M 174.5,80.5 C 179.505,80.443 179.672,81.1097 175,82.5C 173.316,82.3166 173.15,81.6499 174.5,80.5 Z"/></g>
<g><path style="opacity:1" fill="#696969" d="M 169.5,70.5 C 170.043,70.56 170.376,70.8933 170.5,71.5C 169.277,72.6139 167.944,72.7805 166.5,72C 167.737,71.7679 168.737,71.2679 169.5,70.5 Z"/></g>
<g><path style="opacity:1" fill="#fafafa" d="M 154.5,66.5 C 155.263,67.2679 156.263,67.7679 157.5,68C 156.552,68.4828 155.552,68.6495 154.5,68.5C 153.227,69.0768 153.227,69.7435 154.5,70.5C 156.071,71.3094 157.738,71.6427 159.5,71.5C 159.5,71.8333 159.5,72.1667 159.5,72.5C 159.577,73.7498 160.244,74.5831 161.5,75C 160.448,76.7165 161.114,77.7165 163.5,78C 163.167,78.3333 162.833,78.6667 162.5,79C 163.563,80.1882 164.897,80.6882 166.5,80.5C 167.791,80.2627 168.791,80.596 169.5,81.5C 168.325,81.281 167.325,81.6143 166.5,82.5C 168.167,83.6664 169.834,83.6664 171.5,82.5C 171.263,83.791 171.596,84.791 172.5,85.5C 174.167,85.5 175.833,85.5 177.5,85.5C 178.552,85.3505 179.552,85.5172 180.5,86C 182.575,87.5684 184.575,89.0684 186.5,90.5C 179.445,90.7822 172.445,91.4488 165.5,92.5C 161.738,90.9096 158.238,91.243 155,93.5C 152.741,92.4643 150.408,92.4643 148,93.5C 146.635,93.1557 145.468,92.4891 144.5,91.5C 140.467,94.0456 136.467,94.0456 132.5,91.5C 130.902,92.4847 129.235,92.6514 127.5,92C 129.255,91.2801 130.089,90.1134 130,88.5C 126.635,90.1115 123.135,90.9448 119.5,91C 121.345,89.5771 123.345,88.4104 125.5,87.5C 125.167,87.1667 124.833,86.8333 124.5,86.5C 120.18,87.8822 116.013,89.5488 112,91.5C 110.908,90.7039 109.741,90.0372 108.5,89.5C 106.125,90.5826 103.792,90.5826 101.5,89.5C 102.665,88.4164 103.998,87.5831 105.5,87C 103.765,86.3486 102.098,86.5153 100.5,87.5C 98.7857,84.2299 99.4523,81.7299 102.5,80C 103.013,78.4244 102.346,77.091 100.5,76C 101.101,74.395 102.101,73.0616 103.5,72C 107.347,70.3844 111.347,69.3844 115.5,69C 117.269,67.9359 118.936,66.7692 120.5,65.5C 131.801,66.4573 143.135,66.7906 154.5,66.5 Z"/></g>
<g><path style="opacity:1" fill="#797979" d="M 105.5,82.5 C 106.376,82.3691 107.043,82.7025 107.5,83.5C 105.192,84.8734 104.525,84.5401 105.5,82.5 Z"/></g>
<g><path style="opacity:1" fill="#7f7f7f" d="M 113.5,80.5 C 115.337,80.6395 115.67,81.3061 114.5,82.5C 113.702,82.0431 113.369,81.3764 113.5,80.5 Z"/></g>
<g><path style="opacity:1" fill="#757575" d="M 108.5,74.5 C 110.199,74.3398 111.866,74.5065 113.5,75C 109.921,75.8212 106.921,77.6546 104.5,80.5C 103.396,79.3687 103.729,78.5354 105.5,78C 104.833,77.6667 104.167,77.3333 103.5,77C 105.491,76.6264 107.158,75.793 108.5,74.5 Z"/></g>
<g><path style="opacity:1" fill="#6a6a6a" d="M 114.5,75.5 C 115.773,76.0768 115.773,76.7435 114.5,77.5C 113.537,77.0302 113.537,76.3635 114.5,75.5 Z"/></g>
<g><path style="opacity:1" fill="#dddddd" d="M 108.5,64.5 C 110.379,64.3932 110.712,64.8932 109.5,66C 106.923,67.2504 104.257,67.5837 101.5,67C 104.004,66.3024 106.337,65.4691 108.5,64.5 Z"/></g>
<g><path style="opacity:1" fill="#e9e9e9" d="M 124.5,59.5 C 126.657,60.0533 126.49,61.0533 124,62.5C 123.53,61.4232 123.697,60.4232 124.5,59.5 Z"/></g>
<g><path style="opacity:1" fill="#d7d7d7" d="M 166.5,59.5 C 168.337,59.6395 168.67,60.3061 167.5,61.5C 166.702,61.0431 166.369,60.3764 166.5,59.5 Z"/></g>
<g><path style="opacity:1" fill="#b4b4b4" d="M 155.5,60.5 C 153.5,60.5 151.5,60.5 149.5,60.5C 151.573,59.8624 153.573,58.8624 155.5,57.5C 156.087,58.2334 156.087,59.2334 155.5,60.5 Z"/></g>
<g><path style="opacity:1" fill="#f7f7f7" d="M 149.5,60.5 C 151.5,60.5 153.5,60.5 155.5,60.5C 155.369,61.3764 155.702,62.0431 156.5,62.5C 158.75,60.2024 161.416,59.369 164.5,60C 160.098,63.8214 154.931,65.6547 149,65.5C 141.435,64.9271 133.935,63.9271 126.5,62.5C 127.67,60.7453 129.337,59.7453 131.5,59.5C 137.459,60.4141 143.459,60.7474 149.5,60.5 Z"/></g>
<g><path style="opacity:1" fill="#f2f2f2" d="M 120.5,58.5 C 121.713,59.4971 121.546,60.4971 120,61.5C 119.53,60.4232 119.697,59.4232 120.5,58.5 Z"/></g>
<g><path style="opacity:1" fill="#eaeaea" d="M 138.5,52.5 C 141.676,51.6407 144.843,51.3073 148,51.5C 151.195,52.1492 154.361,52.9825 157.5,54C 148.265,56.8894 138.932,57.2228 129.5,55C 133.114,54.0551 136.781,53.3884 140.5,53C 139.906,52.5357 139.239,52.369 138.5,52.5 Z"/></g>
<g><path style="opacity:1" fill="#747474" d="M 90.5,180.5 C 91.6634,205.997 91.8301,231.663 91,257.5C 90.0888,247.521 89.5888,237.521 89.5,227.5C 90.1221,211.838 90.4554,196.172 90.5,180.5 Z"/></g>
<g><path style="opacity:1" fill="#7d2020" d="M 77.5,155.5 C 85.715,157.507 94.0483,159.007 102.5,160C 130.795,162.657 159.128,163.157 187.5,161.5C 185.407,166.416 187.074,168.416 192.5,167.5C 192.621,170.328 191.954,172.994 190.5,175.5C 190.624,176.107 190.957,176.44 191.5,176.5C 191.5,177.167 191.833,177.5 192.5,177.5C 193.344,179.165 194.344,180.832 195.5,182.5C 195.56,183.043 195.893,183.376 196.5,183.5C 197.773,182.743 197.773,182.077 196.5,181.5C 196.67,180.178 196.337,179.011 195.5,178C 196.025,177.308 196.692,176.808 197.5,176.5C 198.711,178.422 200.044,180.255 201.5,182C 199.431,182.324 199.098,183.158 200.5,184.5C 200.216,186.759 199.216,188.426 197.5,189.5C 197.719,188.325 197.386,187.325 196.5,186.5C 195.218,187.958 195.218,189.292 196.5,190.5C 198.496,190.651 200.162,191.318 201.5,192.5C 200.265,195.044 199.099,195.044 198,192.5C 197.601,192.728 197.435,193.062 197.5,193.5C 195.775,193.843 195.275,194.843 196,196.5C 196.383,195.944 196.883,195.611 197.5,195.5C 197.905,196.55 198.571,196.55 199.5,195.5C 200.231,197.805 201.564,199.638 203.5,201C 203.167,202 202.833,203 202.5,204C 203.094,204.464 203.761,204.631 204.5,204.5C 205.09,224.878 205.09,221.878 204.5,195.5C 205.593,193.433 205.093,192.766 203,193.5C 203.082,190.241 204.582,189.241 207.5,190.5C 206.723,205.153 206.389,219.82 206.5,234.5C 205.698,235.952 205.198,237.618 205,239.5C 203.658,238.098 202.824,238.431 202.5,240.5C 203.169,243.028 204.002,243.028 205,240.5C 205.667,242.167 205.667,243.833 205,245.5C 204.667,245.167 204.333,244.833 204,244.5C 202.153,246.953 202.987,248.286 206.5,248.5C 206.83,255.2 206.497,261.866 205.5,268.5C 203.29,269.766 201.29,271.266 199.5,273C 199.63,274.059 200.13,274.892 201,275.5C 202.439,273.986 203.939,273.653 205.5,274.5C 203.5,275.833 201.833,277.5 200.5,279.5C 202.447,281.276 202.78,283.276 201.5,285.5C 197.857,286.937 194.19,288.437 190.5,290C 189.167,290.667 187.833,290.667 186.5,290C 188.087,289.138 189.754,288.471 191.5,288C 194.167,286.333 194.167,284.667 191.5,283C 192.451,282.282 192.617,281.449 192,280.5C 190.989,281.337 189.822,281.67 188.5,281.5C 189.287,279.896 190.62,279.229 192.5,279.5C 192.5,277.833 192.5,276.167 192.5,274.5C 189.779,275.141 187.112,275.641 184.5,276C 186.221,274.473 188.221,273.473 190.5,273C 192.037,271.89 192.703,270.39 192.5,268.5C 189.824,269.008 187.157,269.175 184.5,269C 187.196,268.235 189.696,267.068 192,265.5C 192.494,263.866 192.66,262.199 192.5,260.5C 191.127,260.657 189.793,260.49 188.5,260C 190.303,259.363 191.636,258.197 192.5,256.5C 191.995,255.081 190.995,254.415 189.5,254.5C 190.942,253.18 191.608,251.514 191.5,249.5C 190.5,249.5 189.5,249.5 188.5,249.5C 189.765,248.521 191.099,247.521 192.5,246.5C 192,245.5 191.5,244.5 191,243.5C 188.394,244.599 185.894,245.932 183.5,247.5C 183.167,247.167 182.833,246.833 182.5,246.5C 184.554,244.806 186.888,243.639 189.5,243C 190.687,241.981 191.687,240.814 192.5,239.5C 192.167,238.5 191.5,237.833 190.5,237.5C 188.669,238.929 186.669,239.429 184.5,239C 185.991,236.978 185.658,235.312 183.5,234C 186.014,232.243 188.681,230.743 191.5,229.5C 192.681,227.802 192.681,226.135 191.5,224.5C 189.247,225.253 187.413,226.586 186,228.5C 185.333,227.5 185.333,226.5 186,225.5C 187.816,224.671 189.649,223.837 191.5,223C 192.76,221.186 192.76,219.353 191.5,217.5C 189.587,218.373 187.753,219.373 186,220.5C 186.791,218.191 186.624,215.858 185.5,213.5C 185.915,211.091 186.582,208.758 187.5,206.5C 189.795,205.864 191.461,204.531 192.5,202.5C 191.193,200.818 191.193,199.152 192.5,197.5C 193.38,195.863 194.046,194.03 194.5,192C 194.361,190.699 193.695,189.866 192.5,189.5C 191.063,191.96 190.063,194.626 189.5,197.5C 188.073,199.148 187.24,201.148 187,203.5C 186.667,200.833 186.333,198.167 186,195.5C 185.667,195.833 185.333,196.167 185,196.5C 184.779,193.057 183.779,192.724 182,195.5C 182.15,193.494 182.65,191.494 183.5,189.5C 181.549,190.716 180.049,192.382 179,194.5C 178.508,193.451 178.674,192.451 179.5,191.5C 178.833,191.167 178.167,190.833 177.5,190.5C 179.065,188.177 180.232,185.844 181,183.5C 178.556,185.556 176.723,188.056 175.5,191C 174.881,191.366 174.548,191.033 174.5,190C 179.101,183.061 184.101,176.395 189.5,170C 186.684,170.583 183.851,171.416 181,172.5C 178.308,177.903 175.142,182.903 171.5,187.5C 172.919,182.404 175.252,177.737 178.5,173.5C 178,172.5 177.5,171.5 177,170.5C 172.377,176.913 167.877,183.413 163.5,190C 162.517,190.591 161.85,190.257 161.5,189C 162.504,187.202 163.004,185.368 163,183.5C 158.459,191.699 157.626,191.365 160.5,182.5C 158.691,184.099 157.358,186.099 156.5,188.5C 158.339,181.696 162.005,175.529 167.5,170C 165.837,169.735 164.337,170.235 163,171.5C 160.333,176.167 157.667,180.833 155,185.5C 154.333,184.167 154.333,182.833 155,181.5C 156.934,178.966 158.268,176.299 159,173.5C 155.909,178.014 152.575,182.347 149,186.5C 149.392,183.762 149.059,181.762 148,180.5C 150.36,177.64 152.527,174.64 154.5,171.5C 153.277,170.386 151.944,170.219 150.5,171C 148.804,172.176 147.138,173.343 145.5,174.5C 146.048,172.606 147.048,170.94 148.5,169.5C 147.277,168.386 145.944,168.219 144.5,169C 142.031,172.813 139.531,176.646 137,180.5C 137.474,176.108 139.307,172.275 142.5,169C 138.328,168.132 135.162,169.632 133,173.5C 132.135,171.112 132.968,169.612 135.5,169C 132.937,167.921 130.271,167.421 127.5,167.5C 127.128,174.837 126.628,182.171 126,189.5C 125.192,187.577 124.692,185.577 124.5,183.5C 125.041,177.934 125.708,172.434 126.5,167C 125.101,166.405 123.768,166.572 122.5,167.5C 121.833,173.833 121.167,180.167 120.5,186.5C 119.811,181.282 119.144,176.116 118.5,171C 121.194,168.448 120.527,167.281 116.5,167.5C 116.958,176.913 116.624,182.913 115.5,185.5C 115.5,179.167 115.5,172.833 115.5,166.5C 112.315,166.02 109.481,166.686 107,168.5C 105.991,182.642 105.157,196.642 104.5,210.5C 104.666,205.156 104.499,199.823 104,194.5C 103.28,210.498 102.613,226.498 102,242.5C 101.83,244.715 101.163,246.715 100,248.5C 100.567,235.532 100.567,222.532 100,209.5C 98.5508,199.695 97.0508,189.862 95.5,180C 96.1644,175.521 96.4977,171.021 96.5,166.5C 95.0695,166.579 93.7362,166.246 92.5,165.5C 91.8333,168.5 91.1667,171.5 90.5,174.5C 89.2234,171.966 89.2234,169.466 90.5,167C 89.175,167.148 88.0084,166.982 87,166.5C 86.6924,167.308 86.1924,167.975 85.5,168.5C 84.246,166.741 84.5794,165.241 86.5,164C 85.8333,163.333 85.1667,163.333 84.5,164C 83.4272,165.313 82.7605,166.813 82.5,168.5C 83.5284,170.56 83.5284,172.56 82.5,174.5C 81.2807,173.737 80.2807,172.737 79.5,171.5C 78.1465,174.067 78.4798,176.401 80.5,178.5C 81.1924,177.975 81.6924,177.308 82,176.5C 83.3454,178.83 83.5121,181.163 82.5,183.5C 81.1476,182.482 80.1476,181.149 79.5,179.5C 78.8933,179.624 78.56,179.957 78.5,180.5C 75.5065,180.854 74.5065,179.854 75.5,177.5C 74.7611,177.631 74.0944,177.464 73.5,177C 75.1742,175.494 76.1742,173.661 76.5,171.5C 77.404,170.791 77.7373,169.791 77.5,168.5C 78.1667,167.833 78.8333,167.167 79.5,166.5C 80.8333,165.833 80.8333,165.167 79.5,164.5C 80.0768,162.348 81.2435,162.015 83,163.5C 83.4643,162.906 83.631,162.239 83.5,161.5C 90.7708,162.991 98.1041,163.491 105.5,163C 97.9476,161.758 90.6143,160.591 83.5,159.5C 82.5836,159.543 81.9169,159.876 81.5,160.5C 80.2382,160.907 78.9049,161.24 77.5,161.5C 76.7492,162.376 76.2492,163.376 76,164.5C 75.5065,162.866 75.3398,161.199 75.5,159.5C 74.448,159.649 73.448,159.483 72.5,159C 73.6667,158.5 74.5,157.667 75,156.5C 76.9551,161.775 77.7884,161.442 77.5,155.5 Z"/></g>
<g><path style="opacity:1" fill="#e5e5e5" d="M 203.5,225.5 C 205.76,226.238 205.927,227.238 204,228.5C 203.517,227.552 203.351,226.552 203.5,225.5 Z"/></g>
<g><path style="opacity:1" fill="#6e6e6e" d="M 112.5,179.5 C 112.172,199.853 111.506,214.853 110.5,224.5C 110.333,207.83 110.5,191.163 111,174.5C 111.333,174.167 111.667,173.833 112,173.5C 112.495,175.473 112.662,177.473 112.5,179.5 Z"/></g>
<g><path style="opacity:1" fill="#e0e0e0" d="M 194.5,217.5 C 196.337,217.639 196.67,218.306 195.5,219.5C 194.702,219.043 194.369,218.376 194.5,217.5 Z"/></g>
<g><path style="opacity:1" fill="#ededed" d="M 204.5,195.5 C 205.09,221.878 205.09,224.878 204.5,204.5C 204.5,201.5 204.5,198.5 204.5,195.5 Z"/></g>
<g><path style="opacity:1" fill="#f6f6f6" d="M 189.5,212.5 C 190.5,212.5 191.5,212.5 192.5,212.5C 192.684,215.321 191.351,216.988 188.5,217.5C 187.316,215.533 187.649,213.866 189.5,212.5 Z"/></g>
<g><path style="opacity:1" fill="#787878" d="M 168.5,195.5 C 170.327,201.639 170.66,207.972 169.5,214.5C 168.504,208.202 168.17,201.868 168.5,195.5 Z"/></g>
<g><path style="opacity:1" fill="#f2f2f2" d="M 189.5,206.5 C 194.39,206.639 194.723,208.139 190.5,211C 189.552,211.483 188.552,211.649 187.5,211.5C 187.392,209.486 188.058,207.82 189.5,206.5 Z"/></g>
<g><path style="opacity:1" fill="#696969" d="M 191.5,197.5 C 190.452,199.933 189.786,199.933 189.5,197.5C 190.558,196.4 191.392,195.066 192,193.5C 192.579,194.928 192.412,196.262 191.5,197.5 Z"/></g>
<g><path style="opacity:1" fill="#c6c7c6" d="M 116.5,206.5 C 115.833,206.5 115.167,206.5 114.5,206.5C 115.167,193.167 115.833,193.167 116.5,206.5 Z"/></g>
<g><path style="opacity:1" fill="#f1f1f1" d="M 197.5,193.5 C 197.5,194.167 197.5,194.833 197.5,195.5C 196.883,195.611 196.383,195.944 196,196.5C 195.275,194.843 195.775,193.843 197.5,193.5 Z"/></g>
<g><path style="opacity:1" fill="#bfbfbf" d="M 192.5,189.5 C 193.695,189.866 194.361,190.699 194.5,192C 194.046,194.03 193.38,195.863 192.5,197.5C 192.167,197.5 191.833,197.5 191.5,197.5C 192.412,196.262 192.579,194.928 192,193.5C 191.392,195.066 190.558,196.4 189.5,197.5C 190.063,194.626 191.063,191.96 192.5,189.5 Z"/></g>
<g><path style="opacity:1" fill="#717171" d="M 171.5,187.5 C 171.769,189.429 171.269,191.095 170,192.5C 169.797,190.609 170.297,188.943 171.5,187.5 Z"/></g>
<g><path style="opacity:1" fill="#ebebeb" d="M 197.5,189.5 C 196.833,189.5 196.5,189.833 196.5,190.5C 195.218,189.292 195.218,187.958 196.5,186.5C 197.386,187.325 197.719,188.325 197.5,189.5 Z"/></g>
<g><path style="opacity:1" fill="#f2f2f2" d="M 183.5,189.5 C 183.795,187.577 184.628,185.91 186,184.5C 186.747,186.928 185.914,188.594 183.5,189.5 Z"/></g>
<g><path style="opacity:1" fill="#f3f3f3" d="M 192.5,189.5 C 190.827,190.343 189.66,191.676 189,193.5C 188.93,189.965 190.263,186.965 193,184.5C 193.384,186.197 193.218,187.863 192.5,189.5 Z"/></g>
<g><path style="opacity:1" fill="#f2f2f2" d="M 196.5,181.5 C 197.773,182.077 197.773,182.743 196.5,183.5C 195.893,183.376 195.56,183.043 195.5,182.5C 196.167,182.5 196.5,182.167 196.5,181.5 Z"/></g>
<g><path style="opacity:1" fill="#ededed" d="M 160.5,182.5 C 160.685,180.804 161.519,179.471 163,178.5C 163.279,180.412 162.446,181.746 160.5,182.5 Z"/></g>
<g><path style="opacity:1" fill="#eaeaea" d="M 189.5,178.5 C 190.239,178.369 190.906,178.536 191.5,179C 188.852,183.833 188.185,183.666 189.5,178.5 Z"/></g>
<g><path style="opacity:1" fill="#dddddd" d="M 165.5,178.5 C 166.713,179.497 166.546,180.497 165,181.5C 164.53,180.423 164.697,179.423 165.5,178.5 Z"/></g>
<g><path style="opacity:1" fill="#6b6b6b" d="M 145.5,174.5 C 143.754,177.663 142.254,180.996 141,184.5C 140.057,180.054 141.557,176.721 145.5,174.5 Z"/></g>
<g><path style="opacity:1" fill="#f1f1f1" d="M 75.5,177.5 C 75.6395,175.663 76.3061,175.33 77.5,176.5C 77.0431,177.298 76.3764,177.631 75.5,177.5 Z"/></g>
<g><path style="opacity:1" fill="#e4e4e4" d="M 170.5,170.5 C 171.713,171.497 171.546,172.497 170,173.5C 169.53,172.423 169.697,171.423 170.5,170.5 Z"/></g>
<g><path style="opacity:1" fill="#eaeaea" d="M 115.5,185.5 C 114.681,182.695 114.181,179.695 114,176.5C 113.768,177.737 113.268,178.737 112.5,179.5C 112.662,177.473 112.495,175.473 112,173.5C 111.667,173.833 111.333,174.167 111,174.5C 110.5,191.163 110.333,207.83 110.5,224.5C 109.673,219.349 109.173,214.016 109,208.5C 108.828,215.346 108.328,222.013 107.5,228.5C 107.768,226.901 107.434,225.568 106.5,224.5C 105.055,221.176 104.388,216.509 104.5,210.5C 105.157,196.642 105.991,182.642 107,168.5C 109.481,166.686 112.315,166.02 115.5,166.5C 115.5,172.833 115.5,179.167 115.5,185.5 Z"/></g>
<g><path style="opacity:1" fill="#f4f4f4" d="M 140.5,164.5 C 144.833,165.167 149.167,165.833 153.5,166.5C 150.781,166.397 148.115,166.731 145.5,167.5C 139.567,166.207 133.567,165.373 127.5,165C 131.821,164.501 136.154,164.334 140.5,164.5 Z"/></g>
<g><path style="opacity:1" fill="#c4c4c4" d="M 140.5,164.5 C 146.537,164.171 152.537,164.504 158.5,165.5C 156.955,166.452 155.288,166.785 153.5,166.5C 149.167,165.833 144.833,165.167 140.5,164.5 Z"/></g>
<g><path style="opacity:1" fill="#ebebeb" d="M 113.5,163.5 C 117.56,163.485 121.56,163.985 125.5,165C 123.5,165.167 121.5,165.333 119.5,165.5C 117.048,165.461 115.048,164.794 113.5,163.5 Z"/></g>
<g><path style="opacity:1" fill="#efefef" d="M 81.5,160.5 C 81.9169,159.876 82.5836,159.543 83.5,159.5C 90.6143,160.591 97.9476,161.758 105.5,163C 98.1041,163.491 90.7708,162.991 83.5,161.5C 83.1583,160.662 82.4916,160.328 81.5,160.5 Z"/></g>
<g><path style="opacity:1" fill="#f3f3f3" d="M 189.5,231.5 C 190.995,231.415 191.995,232.081 192.5,233.5C 191.472,235.361 189.972,236.695 188,237.5C 185.93,234.875 186.43,232.875 189.5,231.5 Z"/></g>
<g><path style="opacity:1" fill="#a9a9a9" d="M 201.5,233.5 C 202.209,232.596 203.209,232.263 204.5,232.5C 204.81,237.452 203.81,237.786 201.5,233.5 Z"/></g>
<g><path style="opacity:1" fill="#cacaca" d="M 199.5,234.5 C 201.337,234.639 201.67,235.306 200.5,236.5C 199.702,236.043 199.369,235.376 199.5,234.5 Z"/></g>
<g><path style="opacity:1" fill="#ebebeb" d="M 163.5,237.5 C 165.656,237.872 165.656,238.872 163.5,240.5C 162.438,239.575 162.438,238.575 163.5,237.5 Z"/></g>
<g><path style="opacity:1" fill="#efefef" d="M 78.5,230.5 C 80.7343,231.819 82.0676,233.819 82.5,236.5C 81.91,237.799 80.91,238.632 79.5,239C 80.8423,241.015 81.3423,243.182 81,245.5C 79.1406,244.355 78.3073,242.688 78.5,240.5C 79.2347,237.235 79.2347,233.902 78.5,230.5 Z"/></g>
<g><path style="opacity:1" fill="#717171" d="M 127.5,219.5 C 128.896,225.279 129.729,231.279 130,237.5C 130.97,251.827 131.303,266.16 131,280.5C 129.457,260.184 128.29,239.851 127.5,219.5 Z"/></g>
<g><path style="opacity:1" fill="#d8d8d8" d="M 206.5,234.5 C 206.5,239.167 206.5,243.833 206.5,248.5C 202.987,248.286 202.153,246.953 204,244.5C 204.333,244.833 204.667,245.167 205,245.5C 205.667,243.833 205.667,242.167 205,240.5C 204.002,243.028 203.169,243.028 202.5,240.5C 202.824,238.431 203.658,238.098 205,239.5C 205.198,237.618 205.698,235.952 206.5,234.5 Z"/></g>
<g><path style="opacity:1" fill="#878787" d="M 65.5,235.5 C 66.4794,238.625 66.8128,241.958 66.5,245.5C 65.8333,249.167 65.1667,252.833 64.5,256.5C 64.5,250.167 64.5,243.833 64.5,237.5C 65.3382,237.158 65.6716,236.492 65.5,235.5 Z"/></g>
<g><path style="opacity:1" fill="#d3d3d3" d="M 199.5,240.5 C 201.465,240.948 201.798,241.948 200.5,243.5C 199.614,242.675 199.281,241.675 199.5,240.5 Z"/></g>
<g><path style="opacity:1" fill="#7b2f2f" d="M 106.5,224.5 C 107.434,225.568 107.768,226.901 107.5,228.5C 107.733,247.187 107.233,265.854 106,284.5C 105.99,264.504 106.157,244.504 106.5,224.5 Z"/></g>
<g><path style="opacity:1" fill="#bcbcbc" d="M 195.5,242.5 C 196.376,242.369 197.043,242.702 197.5,243.5C 196.295,245.138 194.962,245.471 193.5,244.5C 194.243,243.818 194.909,243.151 195.5,242.5 Z"/></g>
<g><path style="opacity:1" fill="#e1e1e1" d="M 199.5,246.5 C 201.337,246.639 201.67,247.306 200.5,248.5C 199.702,248.043 199.369,247.376 199.5,246.5 Z"/></g>
<g><path style="opacity:1" fill="#4a1010" d="M 188.5,249.5 C 187.473,250.848 186.14,251.348 184.5,251C 185.563,249.812 186.897,249.312 188.5,249.5 Z"/></g>
<g><path style="opacity:1" fill="#d8d8d8" d="M 193.5,248.5 C 198.021,248.326 198.355,248.993 194.5,250.5C 193.702,250.043 193.369,249.376 193.5,248.5 Z"/></g>
<g><path style="opacity:1" fill="#f4f4f4" d="M 78.5,247.5 C 80.6157,249.088 80.949,251.088 79.5,253.5C 78.5344,251.604 78.2011,249.604 78.5,247.5 Z"/></g>
<g><path style="opacity:1" fill="#f1f1f1" d="M 203.5,249.5 C 205.76,250.238 205.927,251.238 204,252.5C 203.517,251.552 203.351,250.552 203.5,249.5 Z"/></g>
<g><path style="opacity:1" fill="#696969" d="M 182.5,251.5 C 183.773,252.077 183.773,252.743 182.5,253.5C 181.537,253.03 181.537,252.363 182.5,251.5 Z"/></g>
<g><path style="opacity:1" fill="#6e6e6e" d="M 109.5,237.5 C 110.829,243.128 111.496,249.128 111.5,255.5C 111.333,261.5 111.167,267.5 111,273.5C 109.692,261.539 109.192,249.539 109.5,237.5 Z"/></g>
<g><path style="opacity:1" fill="#772929" d="M 189.5,254.5 C 188.201,256.099 186.535,256.599 184.5,256C 186.025,254.991 187.692,254.491 189.5,254.5 Z"/></g>
<g><path style="opacity:1" fill="#b9b9b9" d="M 195.5,253.5 C 196.376,253.369 197.043,253.702 197.5,254.5C 196.295,256.138 194.962,256.471 193.5,255.5C 194.243,254.818 194.909,254.151 195.5,253.5 Z"/></g>
<g><path style="opacity:1" fill="#f6f6f6" d="M 212.5,255.5 C 214.416,256.665 215.249,258.332 215,260.5C 213.628,259.09 212.795,257.423 212.5,255.5 Z"/></g>
<g><path style="opacity:1" fill="#e3e3e3" d="M 198.5,257.5 C 199.586,257.62 200.253,258.287 200.5,259.5C 200.167,260.167 199.833,260.833 199.5,261.5C 198.571,260.311 198.238,258.978 198.5,257.5 Z"/></g>
<g><path style="opacity:1" fill="#e8e8e8" d="M 79.5,257.5 C 80.6291,259.628 80.7958,261.961 80,264.5C 78.1932,262.294 78.0265,259.961 79.5,257.5 Z"/></g>
<g><path style="opacity:1" fill="#d4d4d4" d="M 195.5,259.5 C 196.586,259.62 197.253,260.287 197.5,261.5C 197.167,262.167 196.833,262.833 196.5,263.5C 195.575,262.359 194.741,262.359 194,263.5C 193.516,261.807 194.016,260.473 195.5,259.5 Z"/></g>
<g><path style="opacity:1" fill="#6e6e6e" d="M 170.5,269.5 C 167.991,270.682 166.657,272.682 166.5,275.5C 168.816,274.64 171.149,274.14 173.5,274C 171.246,275.377 169.08,276.877 167,278.5C 166.517,279.448 166.351,280.448 166.5,281.5C 168.39,281.703 169.89,281.037 171,279.5C 171.167,280 171.333,280.5 171.5,281C 169.605,282.979 167.605,284.979 165.5,287C 166.047,287.925 166.713,288.758 167.5,289.5C 174.223,286.038 181.223,283.371 188.5,281.5C 187.942,282.79 186.942,283.623 185.5,284C 180.167,286 174.833,288 169.5,290C 167.757,291.11 166.424,292.61 165.5,294.5C 162.965,293.497 160.798,294.163 159,296.5C 158.383,295.551 158.549,294.718 159.5,294C 161.081,293.293 162.581,292.46 164,291.5C 164.333,291.833 164.667,292.167 165,292.5C 165.18,290.512 165.014,288.512 164.5,286.5C 163.167,286.5 161.833,286.5 160.5,286.5C 162.23,285.621 163.563,284.288 164.5,282.5C 164.167,281.833 163.833,281.167 163.5,280.5C 161.588,282.156 159.588,282.489 157.5,281.5C 160.293,280.121 162.626,278.288 164.5,276C 163.167,273.667 163.167,271.333 164.5,269C 164.167,268.5 163.833,268 163.5,267.5C 162.232,268.428 160.899,268.595 159.5,268C 161,266.5 162.5,265 164,263.5C 164.749,262.365 164.583,261.365 163.5,260.5C 162.391,261.59 161.391,261.59 160.5,260.5C 161.671,258.831 163.004,257.331 164.5,256C 164.167,255.5 163.833,255 163.5,254.5C 162.391,255.59 161.391,255.59 160.5,254.5C 162.539,250.939 165.539,249.439 169.5,250C 166.936,251.851 166.936,253.684 169.5,255.5C 167.28,257.551 166.614,259.884 167.5,262.5C 169.331,261.071 171.331,260.571 173.5,261C 168.981,262.21 166.648,265.044 166.5,269.5C 167.833,269.5 169.167,269.5 170.5,269.5 Z"/></g>
<g><path style="opacity:1" fill="#eaeaea" d="M 202.5,263.5 C 204.97,264.36 205.137,265.694 203,267.5C 201.232,266.318 201.065,264.985 202.5,263.5 Z"/></g>
<g><path style="opacity:1" fill="#d5d5d5" d="M 198.5,265.5 C 200.225,265.843 200.725,266.843 200,268.5C 198.961,267.756 198.461,266.756 198.5,265.5 Z"/></g>
<g><path style="opacity:1" fill="#6a6a6a" d="M 170.5,269.5 C 172.512,266.665 175.179,265.165 178.5,265C 176.264,267.284 173.598,268.784 170.5,269.5 Z"/></g>
<g><path style="opacity:1" fill="#e1e1e1" d="M 195.5,266.5 C 197.465,266.948 197.798,267.948 196.5,269.5C 195.614,268.675 195.281,267.675 195.5,266.5 Z"/></g>
<g><path style="opacity:1" fill="#757575" d="M 95.5,260.5 C 96.2216,260.918 96.7216,261.584 97,262.5C 97.6667,270.167 97.6667,277.833 97,285.5C 95.7618,277.213 95.2618,268.88 95.5,260.5 Z"/></g>
<g><path style="opacity:1" fill="#dcdcdc" d="M 195.5,272.5 C 197.465,272.948 197.798,273.948 196.5,275.5C 195.614,274.675 195.281,273.675 195.5,272.5 Z"/></g>
<g><path style="opacity:1" fill="#8e8e8e" d="M 157.5,274.5 C 160.797,274.329 161.131,274.995 158.5,276.5C 157.702,276.043 157.369,275.376 157.5,274.5 Z"/></g>
<g><path style="opacity:1" fill="#dfdfdf" d="M 74.5,273.5 C 76.4759,274.427 76.8092,275.76 75.5,277.5C 74.5713,276.311 74.238,274.978 74.5,273.5 Z"/></g>
<g><path style="opacity:1" fill="#6e6e6e" d="M 179.5,276.5 C 180.552,276.351 181.552,276.517 182.5,277C 180.835,278.84 178.835,279.507 176.5,279C 177.571,278.148 178.571,277.315 179.5,276.5 Z"/></g>
<g><path style="opacity:1" fill="#e1e1e1" d="M 194.5,283.5 C 197.797,283.329 198.131,283.995 195.5,285.5C 194.702,285.043 194.369,284.376 194.5,283.5 Z"/></g>
<g><path style="opacity:1" fill="#686868" d="M 160.5,286.5 C 160.361,288.337 159.694,288.67 158.5,287.5C 158.957,286.702 159.624,286.369 160.5,286.5 Z"/></g>
<g><path style="opacity:1" fill="#e7e7e7" d="M 214.5,291.5 C 215.801,293.456 215.301,295.123 213,296.5C 212.878,294.718 213.378,293.052 214.5,291.5 Z"/></g>
<g><path style="opacity:1" fill="#f2f2f2" d="M 69.5,292.5 C 69.8966,291.475 70.5632,291.308 71.5,292C 73.3392,295.004 75.6726,297.504 78.5,299.5C 78.1667,299.833 77.8333,300.167 77.5,300.5C 74.4517,298.118 71.7851,295.452 69.5,292.5 Z"/></g>
<g><path style="opacity:1" fill="#f5f5f5" d="M 208.5,297.5 C 209.653,298.313 209.653,299.313 208.5,300.5C 206.807,302.027 204.973,303.36 203,304.5C 202.333,303.833 202.333,303.167 203,302.5C 205.191,301.167 207.024,299.5 208.5,297.5 Z"/></g>
<g><path style="opacity:1" fill="#f7f7f7" d="M 114.5,300.5 C 121.819,301.26 129.152,301.926 136.5,302.5C 141.844,301.997 147.177,301.83 152.5,302C 155.36,304.36 158.36,306.527 161.5,308.5C 161.833,308.333 162.167,308.167 162.5,308C 160.957,306.122 159.124,304.622 157,303.5C 156.312,302.668 156.479,302.002 157.5,301.5C 159.22,302.934 161.22,303.767 163.5,304C 166.145,307.985 169.812,310.319 174.5,311C 173.167,311.667 171.833,312.333 170.5,313C 149.365,316.286 128.365,315.286 107.5,310C 106.167,308.667 104.833,307.333 103.5,306C 105.387,305.837 106.887,306.671 108,308.5C 109.194,307.57 110.527,306.903 112,306.5C 120.94,309.282 130.107,311.116 139.5,312C 143.362,312.913 147.028,312.58 150.5,311C 139.374,311.033 128.707,309.033 118.5,305C 116.365,304.124 115.031,302.624 114.5,300.5 Z"/></g>
<g><path style="opacity:1" fill="#f4f4f4" d="M 80.5,301.5 C 83.3029,302.067 85.6363,303.4 87.5,305.5C 84.6845,306.13 82.0178,305.464 79.5,303.5C 79.8627,302.817 80.1961,302.15 80.5,301.5 Z"/></g>
<g><path style="opacity:1" fill="#eaeaea" d="M 175.5,303.5 C 177.595,304.412 179.595,305.579 181.5,307C 181,307.5 180.5,308 180,308.5C 177.585,307.589 176.085,305.922 175.5,303.5 Z"/></g>
<g><path style="opacity:1" fill="#e4e4e4" d="M 184.5,305.5 C 185.251,304.427 186.251,304.26 187.5,305C 186.648,306.728 185.648,306.895 184.5,305.5 Z"/></g>
<g><path style="opacity:1" fill="#eaeaea" d="M 167.5,305.5 C 167.56,304.957 167.893,304.624 168.5,304.5C 169.981,305.48 171.315,306.647 172.5,308C 170.045,308.706 168.378,307.873 167.5,305.5 Z"/></g>
<g><path style="opacity:1" fill="#e9e9e9" d="M 172.5,306.5 C 174.496,305.312 175.329,305.979 175,308.5C 174.292,307.619 173.458,306.953 172.5,306.5 Z"/></g>
<g><path style="opacity:1" fill="#efefef" d="M 199.5,304.5 C 201.975,304.747 201.975,305.413 199.5,306.5C 198.537,306.03 198.537,305.363 199.5,304.5 Z"/></g>
<g><path style="opacity:1" fill="#f9f9f9" d="M 197.5,310.5 C 200.548,310.494 201.048,311.494 199,313.5C 197.961,312.756 197.461,311.756 197.5,310.5 Z"/></g>
<g><path style="opacity:1" fill="#f1f1f1" d="M 193.5,311.5 C 194.289,311.783 194.956,312.283 195.5,313C 194.184,313.528 193.517,313.028 193.5,311.5 Z"/></g>
<g><path style="opacity:1" fill="#d7d7d7" d="M 141.5,317.5 C 145.373,319.154 145.04,319.654 140.5,319C 141.056,318.617 141.389,318.117 141.5,317.5 Z"/></g>
<g><path style="opacity:1" fill="#eaeaea" d="M 71.5,321.5 C 76.7893,322.479 76.7893,323.479 71.5,324.5C 70.4376,323.575 70.4376,322.575 71.5,321.5 Z"/></g>
<g><path style="opacity:1" fill="#e8e8e8" d="M 198.5,321.5 C 200.466,322.441 202.466,323.441 204.5,324.5C 206.88,323.206 209.38,322.206 212,321.5C 214.39,322.172 214.89,323.505 213.5,325.5C 212.833,324.833 212.167,324.167 211.5,323.5C 207.59,325.346 203.59,325.68 199.5,324.5C 198.873,323.583 198.539,322.583 198.5,321.5 Z"/></g>
</svg>
