<?xml version="1.0" encoding="UTF-8"?>
<!DOCTYPE svg PUBLIC "-//W3C//DTD SVG 1.1//EN" "http://www.w3.org/Graphics/SVG/1.1/DTD/svg11.dtd">
<svg xmlns="http://www.w3.org/2000/svg" version="1.1" width="300px" height="373px" style="shape-rendering:geometricPrecision; text-rendering:geometricPrecision; image-rendering:optimizeQuality; fill-rule:evenodd; clip-rule:evenodd" xmlns:xlink="http://www.w3.org/1999/xlink">
<g><path style="opacity:1" fill="#fbfbfb" d="M 134.5,55.5 C 136.455,54.6765 138.455,54.5099 140.5,55C 142.017,57.2045 143.35,59.5378 144.5,62C 139.587,68.4003 137.754,75.567 139,83.5C 139.689,84.3567 140.522,85.0233 141.5,85.5C 143.146,84.2214 144.313,82.5547 145,80.5C 145.333,74.5 145.667,68.5 146,62.5C 150.091,56.9459 152.924,57.6125 154.5,64.5C 152.722,73.5025 151.056,82.5025 149.5,91.5C 148.729,99.4632 151.396,105.797 157.5,110.5C 158.307,120.992 158.974,131.492 159.5,142C 160.546,147.62 158.213,149.954 152.5,149C 148.828,150.365 148.494,152.365 151.5,155C 154.553,155.179 157.553,155.679 160.5,156.5C 159.332,157.906 159.665,159.072 161.5,160C 161.07,160.92 160.736,161.753 160.5,162.5C 159.833,161.5 159.167,160.5 158.5,159.5C 158.167,159.833 157.833,160.167 157.5,160.5C 158.487,179.453 158.821,198.453 158.5,217.5C 153.489,217.334 148.489,217.501 143.5,218C 147.136,218.626 147.136,219.793 143.5,221.5C 145.897,220.933 148.23,221.6 150.5,223.5C 151.803,222.282 152.803,222.615 153.5,224.5C 155.811,223.786 157.978,222.786 160,221.5C 160.944,222.263 161.444,223.263 161.5,224.5C 161.424,227.931 161.091,231.265 160.5,234.5C 160.44,233.957 160.107,233.624 159.5,233.5C 157.5,234.833 155.5,236.167 153.5,237.5C 152.893,237.376 152.56,237.043 152.5,236.5C 154.933,235.452 154.933,234.786 152.5,234.5C 151.5,233.167 150.5,233.167 149.5,234.5C 147.133,235.164 145.133,236.497 143.5,238.5C 142.749,237.624 142.249,236.624 142,235.5C 141.117,239.534 140.284,243.534 139.5,247.5C 138.042,243.727 137.542,239.727 138,235.5C 144.819,232.386 145.153,228.72 139,224.5C 135.49,218.541 135.824,212.874 140,207.5C 140.679,212.029 140.513,216.529 139.5,221C 139.68,223.241 140.513,223.741 142,222.5C 142.667,216.833 142.667,211.167 142,205.5C 140.974,202.307 138.808,200.974 135.5,201.5C 133.731,207.723 133.231,214.057 134,220.5C 137.356,226.165 136.189,230.832 130.5,234.5C 130.167,233.833 129.833,233.167 129.5,232.5C 126.078,235.29 125.411,235.123 127.5,232C 127.167,231.833 126.833,231.667 126.5,231.5C 123.172,233.501 119.838,235.168 116.5,236.5C 114.821,236.108 113.154,235.608 111.5,235C 113.351,234.163 115.184,233.329 117,232.5C 117.667,231.5 117.667,230.5 117,229.5C 115.444,228.48 114.278,227.147 113.5,225.5C 115.455,223.488 116.955,221.154 118,218.5C 118.604,220.686 119.77,220.852 121.5,219C 120.095,217.731 118.429,217.231 116.5,217.5C 116.5,214.833 116.5,212.167 116.5,209.5C 117.326,205.018 117.826,200.351 118,195.5C 123.956,193.039 128.456,189.039 131.5,183.5C 132.167,182.833 132.833,182.167 133.5,181.5C 133.5,180.833 133.5,180.167 133.5,179.5C 133.5,175.167 133.5,170.833 133.5,166.5C 134.146,153.788 133.48,141.455 131.5,129.5C 131.496,127.158 130.663,125.158 129,123.5C 129,124.833 129,126.167 129,127.5C 126.509,126.78 124.009,126.113 121.5,125.5C 117.544,126.707 113.544,126.374 109.5,124.5C 111.645,119.834 112.312,115.168 111.5,110.5C 111.5,109.833 111.5,109.167 111.5,108.5C 113.369,110.635 114.036,113.302 113.5,116.5C 118.579,117.623 123.079,119.957 127,123.5C 127.167,123.167 127.333,122.833 127.5,122.5C 123.683,119.423 119.683,116.59 115.5,114C 115.735,103.328 115.068,92.8284 113.5,82.5C 114.167,82.1667 114.833,81.8333 115.5,81.5C 118.474,84.2855 120.641,83.6188 122,79.5C 123.862,72.1924 123.362,65.0258 120.5,58C 121.259,54.7671 123.259,52.6004 126.5,51.5C 128.683,52.6919 130.016,54.5253 130.5,57C 126.9,64.4618 125.733,72.2952 127,80.5C 128.079,82.3937 129.413,82.727 131,81.5C 131.471,79.7536 132.138,78.087 133,76.5C 133.239,69.4522 133.739,62.4522 134.5,55.5 Z"/></g>
<g><path style="opacity:1" fill="#340707" d="M 134.5,55.5 C 133.739,62.4522 133.239,69.4522 133,76.5C 132.138,78.087 131.471,79.7536 131,81.5C 129.413,82.727 128.079,82.3937 127,80.5C 125.733,72.2952 126.9,64.4618 130.5,57C 130.016,54.5253 128.683,52.6919 126.5,51.5C 123.259,52.6004 121.259,54.7671 120.5,58C 123.362,65.0258 123.862,72.1924 122,79.5C 120.641,83.6188 118.474,84.2855 115.5,81.5C 112.266,73.2567 112.933,65.4233 117.5,58C 113.604,54.808 111.437,55.9747 111,61.5C 110.925,59.065 110.092,58.3984 108.5,59.5C 109.126,56.6851 110.46,54.1851 112.5,52C 114.352,51.2274 115.686,51.7274 116.5,53.5C 117.75,53.5774 118.583,54.244 119,55.5C 121.039,53.1255 123.372,51.1255 126,49.5C 129.591,50.615 132.424,52.615 134.5,55.5 Z"/></g>
<g><path style="opacity:1" fill="#d4d4d4" d="M 116.5,53.5 C 115.399,54.5983 114.066,54.765 112.5,54C 113.564,52.4894 114.897,52.3228 116.5,53.5 Z"/></g>
<g><path style="opacity:1" fill="#f5f5f5" d="M 130.5,61.5 C 131.765,62.5145 132.431,64.0145 132.5,66C 132.463,70.5411 131.296,74.7078 129,78.5C 128.436,72.7416 128.936,67.0749 130.5,61.5 Z"/></g>
<g><path style="opacity:1" fill="#f1f1f1" d="M 117.5,61.5 C 118.99,65.2509 119.99,69.2509 120.5,73.5C 120.489,75.8541 119.656,77.8541 118,79.5C 116.377,77.2966 115.543,74.7966 115.5,72C 115.978,68.445 116.645,64.945 117.5,61.5 Z"/></g>
<g><path style="opacity:1" fill="#ededed" d="M 115.5,81.5 C 114.833,81.8333 114.167,82.1667 113.5,82.5C 112.363,76.2086 111.197,69.8752 110,63.5C 110.075,69.9972 110.575,76.4972 111.5,83C 111.199,87.4474 110.699,87.2807 110,82.5C 107.164,75.5183 106.997,68.5183 109.5,61.5C 109.376,60.8933 109.043,60.56 108.5,60.5C 107.167,60.1667 107.167,59.8333 108.5,59.5C 110.092,58.3984 110.925,59.065 111,61.5C 111.437,55.9747 113.604,54.808 117.5,58C 112.933,65.4233 112.266,73.2567 115.5,81.5 Z"/></g>
<g><path style="opacity:1" fill="#340707" d="M 108.5,60.5 C 109.043,60.56 109.376,60.8933 109.5,61.5C 106.997,68.5183 107.164,75.5183 110,82.5C 110.699,87.2807 111.199,87.4474 111.5,83C 110.575,76.4972 110.075,69.9972 110,63.5C 111.197,69.8752 112.363,76.2086 113.5,82.5C 115.068,92.8284 115.735,103.328 115.5,114C 119.683,116.59 123.683,119.423 127.5,122.5C 127.333,122.833 127.167,123.167 127,123.5C 123.079,119.957 118.579,117.623 113.5,116.5C 114.036,113.302 113.369,110.635 111.5,108.5C 111.451,105.626 111.784,102.792 112.5,100C 110.068,90.0507 108.068,80.0507 106.5,70C 106.422,66.6365 107.089,63.4698 108.5,60.5 Z"/></g>
<g><path style="opacity:1" fill="#340707" d="M 121.5,125.5 C 118.927,124.121 117.427,122.121 117,119.5C 119.127,121.114 120.627,123.114 121.5,125.5 Z"/></g>
<g><path style="opacity:1" fill="#858585" d="M 131.5,129.5 C 133.48,141.455 134.146,153.788 133.5,166.5C 132.698,167.952 132.198,169.618 132,171.5C 131.5,157.504 131.333,143.504 131.5,129.5 Z"/></g>
<g><path style="opacity:1" fill="#4f1616" d="M 133.5,179.5 C 133.5,180.167 133.5,180.833 133.5,181.5C 132.275,180.848 131.608,179.681 131.5,178C 131.667,176.833 131.833,175.667 132,174.5C 132.198,176.382 132.698,178.048 133.5,179.5 Z"/></g>
<g><path style="opacity:1" fill="#f2f2f2" d="M 131.5,129.5 C 131.333,143.504 131.5,157.504 132,171.5C 132.198,169.618 132.698,167.952 133.5,166.5C 133.5,170.833 133.5,175.167 133.5,179.5C 132.698,178.048 132.198,176.382 132,174.5C 131.833,175.667 131.667,176.833 131.5,178C 131.608,179.681 132.275,180.848 133.5,181.5C 132.833,182.167 132.167,182.833 131.5,183.5C 128.833,185.833 126.167,188.167 123.5,190.5C 123.062,190.565 122.728,190.399 122.5,190C 123.772,188.754 124.105,187.587 123.5,186.5C 122.575,187.357 121.908,188.357 121.5,189.5C 119.539,190.46 117.873,191.793 116.5,193.5C 115.563,198.812 115.563,204.146 116.5,209.5C 116.5,212.167 116.5,214.833 116.5,217.5C 115.676,213.688 115.176,209.688 115,205.5C 114.74,203.382 113.74,201.716 112,200.5C 111.667,198.5 111.333,196.5 111,194.5C 103.615,191.233 103.781,190.4 111.5,192C 112.047,192.925 112.713,193.758 113.5,194.5C 114.594,193.132 114.26,191.965 112.5,191C 112.833,190.667 113.167,190.333 113.5,190C 111.845,188.556 111.178,186.722 111.5,184.5C 115.767,184.203 119.934,184.536 124,185.5C 125.441,184.13 127.108,183.13 129,182.5C 129.713,164.846 130.546,147.18 131.5,129.5 Z"/></g>
<g><path style="opacity:1" fill="#aaaaaa" d="M 123.5,190.5 C 122.377,191.757 121.711,191.424 121.5,189.5C 121.908,188.357 122.575,187.357 123.5,186.5C 124.105,187.587 123.772,188.754 122.5,190C 122.728,190.399 123.062,190.565 123.5,190.5 Z"/></g>
<g><path style="opacity:1" fill="#801c1c" d="M 131.5,183.5 C 128.456,189.039 123.956,193.039 118,195.5C 117.826,200.351 117.326,205.018 116.5,209.5C 115.563,204.146 115.563,198.812 116.5,193.5C 117.873,191.793 119.539,190.46 121.5,189.5C 121.711,191.424 122.377,191.757 123.5,190.5C 126.167,188.167 128.833,185.833 131.5,183.5 Z"/></g>
<g><path style="opacity:1" fill="#d8d8d8" d="M 152.5,234.5 C 152.5,235.167 152.5,235.833 152.5,236.5C 150.956,236.703 149.622,237.37 148.5,238.5C 148.167,238.167 147.833,237.833 147.5,237.5C 148.193,236.482 148.859,235.482 149.5,234.5C 150.5,233.167 151.5,233.167 152.5,234.5 Z"/></g>
<g><path style="opacity:1" fill="#531515" d="M 111.5,110.5 C 112.312,115.168 111.645,119.834 109.5,124.5C 113.544,126.374 117.544,126.707 121.5,125.5C 124.009,126.113 126.509,126.78 129,127.5C 129,126.167 129,124.833 129,123.5C 130.663,125.158 131.496,127.158 131.5,129.5C 130.546,147.18 129.713,164.846 129,182.5C 127.108,183.13 125.441,184.13 124,185.5C 119.934,184.536 115.767,184.203 111.5,184.5C 111.178,186.722 111.845,188.556 113.5,190C 113.167,190.333 112.833,190.667 112.5,191C 114.26,191.965 114.594,193.132 113.5,194.5C 112.713,193.758 112.047,192.925 111.5,192C 103.781,190.4 103.615,191.233 111,194.5C 111.333,196.5 111.667,198.5 112,200.5C 113.74,201.716 114.74,203.382 115,205.5C 115.176,209.688 115.676,213.688 116.5,217.5C 118.429,217.231 120.095,217.731 121.5,219C 119.77,220.852 118.604,220.686 118,218.5C 116.955,221.154 115.455,223.488 113.5,225.5C 114.278,227.147 115.444,228.48 117,229.5C 117.667,230.5 117.667,231.5 117,232.5C 115.184,233.329 113.351,234.163 111.5,235C 113.154,235.608 114.821,236.108 116.5,236.5C 119.838,235.168 123.172,233.501 126.5,231.5C 126.833,231.667 127.167,231.833 127.5,232C 125.411,235.123 126.078,235.29 129.5,232.5C 129.833,233.167 130.167,233.833 130.5,234.5C 136.189,230.832 137.356,226.165 134,220.5C 133.231,214.057 133.731,207.723 135.5,201.5C 138.808,200.974 140.974,202.307 142,205.5C 142.667,211.167 142.667,216.833 142,222.5C 140.513,223.741 139.68,223.241 139.5,221C 140.513,216.529 140.679,212.029 140,207.5C 135.824,212.874 135.49,218.541 139,224.5C 145.153,228.72 144.819,232.386 138,235.5C 137.542,239.727 138.042,243.727 139.5,247.5C 139.218,248.778 138.551,249.778 137.5,250.5C 136.5,250.5 135.5,250.5 134.5,250.5C 135.167,247.5 135.833,244.5 136.5,241.5C 134.167,241.5 131.833,241.5 129.5,241.5C 129.33,242.822 129.663,243.989 130.5,245C 126.136,246.082 121.803,246.249 117.5,245.5C 120.785,244.676 124.118,244.176 127.5,244C 128.711,243.107 128.711,242.274 127.5,241.5C 124.829,243.491 121.996,243.491 119,241.5C 117.684,244.028 116.517,244.028 115.5,241.5C 115.167,242 114.833,242.5 114.5,243C 119.121,250.07 117.121,252.404 108.5,250C 107.692,249.692 107.025,249.192 106.5,248.5C 108.46,246.709 109.793,244.543 110.5,242C 110.167,241.833 109.833,241.667 109.5,241.5C 108.16,242.867 106.827,244.2 105.5,245.5C 106.837,242.313 105.837,241.646 102.5,243.5C 98.9291,242.911 95.2624,242.577 91.5,242.5C 90.7379,243.628 90.0712,244.795 89.5,246C 90.5,247 91.5,248 92.5,249C 89.6492,250.289 86.6492,250.789 83.5,250.5C 84.0853,247.739 83.0853,246.073 80.5,245.5C 77.9133,246.744 75.5799,248.411 73.5,250.5C 72.8076,249.975 72.3076,249.308 72,248.5C 70,238.167 70,227.833 72,217.5C 74.1172,208.195 75.9506,208.195 77.5,217.5C 80.5983,217.413 80.9316,217.913 78.5,219C 79.7932,219.49 81.1266,219.657 82.5,219.5C 81.3301,214.491 81.4968,209.491 83,204.5C 86.7627,201.539 89.096,202.539 90,207.5C 90.7835,210.76 90.6168,213.927 89.5,217C 92.0037,217.698 94.337,218.531 96.5,219.5C 95.448,219.351 94.448,219.517 93.5,220C 94.5707,220.852 95.5707,221.685 96.5,222.5C 93.1148,221.79 90.7814,222.956 89.5,226C 91.6969,229.391 92.6969,232.891 92.5,236.5C 96.446,235.473 100.446,235.306 104.5,236C 103.007,237.156 103.174,237.99 105,238.5C 106.605,237.899 107.938,236.899 109,235.5C 109.507,236.996 109.007,238.163 107.5,239C 108.449,239.617 109.282,239.451 110,238.5C 110.455,235.863 109.955,233.363 108.5,231C 108.834,228.825 109.834,226.992 111.5,225.5C 111.047,223.435 110.047,221.768 108.5,220.5C 105.812,221.513 103.146,222.513 100.5,223.5C 100.833,222.167 101.167,220.833 101.5,219.5C 103.258,219.123 104.925,218.456 106.5,217.5C 107.086,217.709 107.586,218.043 108,218.5C 107.496,213.463 108.162,208.463 110,203.5C 110.667,201.167 110.667,198.833 110,196.5C 105.739,193.955 101.572,191.288 97.5,188.5C 95.3024,185.467 93.3024,182.3 91.5,179C 92.3258,162.241 92.8258,145.407 93,128.5C 93.3603,126.579 94.1936,124.912 95.5,123.5C 93.8509,121.35 92.0176,119.35 90,117.5C 86.8571,119.172 84.3571,118.506 82.5,115.5C 84.1132,115.032 85.6132,115.699 87,117.5C 93.6841,114.924 94.1841,111.424 88.5,107C 87.1011,106.405 85.7678,106.572 84.5,107.5C 82.9798,108.85 82.3131,110.183 82.5,111.5C 81.503,106.018 83.8363,104.185 89.5,106C 93.8467,109.084 94.5134,112.751 91.5,117C 92.549,117.492 93.549,117.326 94.5,116.5C 95.3951,118.307 96.7284,119.64 98.5,120.5C 102.087,118.913 105.754,117.413 109.5,116C 110.861,114.416 111.528,112.582 111.5,110.5 Z"/></g>
<g><path style="opacity:1" fill="#efefef" d="M 134.5,237.5 C 136.656,237.872 136.656,238.872 134.5,240.5C 133.438,239.575 133.438,238.575 134.5,237.5 Z"/></g>
<g><path style="opacity:1" fill="#ececec" d="M 131.5,235.5 C 133.028,235.517 133.528,236.184 133,237.5C 127.841,240.18 127.341,239.513 131.5,235.5 Z"/></g>
<g><path style="opacity:1" fill="#e4e4e4" d="M 116.5,236.5 C 118.109,236.094 119.443,236.094 120.5,236.5C 118.956,239.041 117.623,239.041 116.5,236.5 Z"/></g>
<g><path style="opacity:1" fill="#f3f3f3" d="M 99.5,236.5 C 101.337,236.639 101.67,237.306 100.5,238.5C 99.7025,238.043 99.3691,237.376 99.5,236.5 Z"/></g>
<g><path style="opacity:1" fill="#ececec" d="M 92.5,236.5 C 92.0517,238.465 91.0517,238.798 89.5,237.5C 90.325,236.614 91.325,236.281 92.5,236.5 Z"/></g>
<g><path style="opacity:1" fill="#e5e5e5" d="M 86.5,230.5 C 90.6605,233.216 90.3272,233.883 85.5,232.5C 85.8627,231.817 86.1961,231.15 86.5,230.5 Z"/></g>
<g><path style="opacity:1" fill="#ebebeb" d="M 110.5,229.5 C 111.5,229.5 112.5,229.5 113.5,229.5C 112.754,233.31 111.754,233.31 110.5,229.5 Z"/></g>
<g><path style="opacity:1" fill="#f3f3f3" d="M 140.5,228.5 C 141.774,229.189 141.774,230.023 140.5,231C 139.365,231.749 138.365,231.583 137.5,230.5C 138.602,229.824 139.602,229.158 140.5,228.5 Z"/></g>
<g><path style="opacity:1" fill="#f9f9f9" d="M 92.5,236.5 C 92.6969,232.891 91.6969,229.391 89.5,226C 90.7814,222.956 93.1148,221.79 96.5,222.5C 97.531,223.249 98.6976,223.915 100,224.5C 100.399,224.272 100.565,223.938 100.5,223.5C 103.146,222.513 105.812,221.513 108.5,220.5C 110.047,221.768 111.047,223.435 111.5,225.5C 109.834,226.992 108.834,228.825 108.5,231C 109.955,233.363 110.455,235.863 110,238.5C 109.282,239.451 108.449,239.617 107.5,239C 109.007,238.163 109.507,236.996 109,235.5C 107.938,236.899 106.605,237.899 105,238.5C 103.174,237.99 103.007,237.156 104.5,236C 100.446,235.306 96.446,235.473 92.5,236.5 Z"/></g>
<g><path style="opacity:1" fill="#c7c7c7" d="M 96.5,219.5 C 97.172,220.267 98.0053,220.934 99,221.5C 99.4169,220.244 100.25,219.577 101.5,219.5C 101.167,220.833 100.833,222.167 100.5,223.5C 100.565,223.938 100.399,224.272 100,224.5C 98.6976,223.915 97.531,223.249 96.5,222.5C 95.5707,221.685 94.5707,220.852 93.5,220C 94.448,219.517 95.448,219.351 96.5,219.5 Z"/></g>
<g><path style="opacity:1" fill="#f3f3f3" d="M 78.5,220.5 C 82.066,220.88 84.3994,222.88 85.5,226.5C 84.4969,229.172 83.4969,231.838 82.5,234.5C 83.3898,235.955 83.3898,237.289 82.5,238.5C 82.9377,239.506 83.6043,239.506 84.5,238.5C 85.4656,240.396 85.7989,242.396 85.5,244.5C 83.8561,244.714 82.3561,244.38 81,243.5C 81.9791,241.721 81.6458,240.055 80,238.5C 79.6667,239.167 79.3333,239.833 79,240.5C 78.1751,238.299 78.6751,236.466 80.5,235C 77.4274,230.596 76.7607,225.763 78.5,220.5 Z"/></g>
<g><path style="opacity:1" fill="#340707" d="M 101.5,219.5 C 100.25,219.577 99.4169,220.244 99,221.5C 98.0053,220.934 97.172,220.267 96.5,219.5C 98.2837,218.28 99.9504,218.28 101.5,219.5 Z"/></g>
<g><path style="opacity:1" fill="#eeeeee" d="M 86.5,208.5 C 87.7773,209.694 88.4439,211.36 88.5,213.5C 88.3333,215.167 88.1667,216.833 88,218.5C 86.5949,215.381 86.0949,212.048 86.5,208.5 Z"/></g>
<g><path style="opacity:1" fill="#f4f4f4" d="M 112.5,206.5 C 113.997,208.29 114.664,210.456 114.5,213C 113.611,223.837 112.611,224.003 111.5,213.5C 112.223,211.218 112.557,208.884 112.5,206.5 Z"/></g>
<g><path style="opacity:1" fill="#f0f0f0" d="M 95.5,180.5 C 98.0454,181.438 98.5454,182.771 97,184.5C 96.2086,183.255 95.7086,181.922 95.5,180.5 Z"/></g>
<g><path style="opacity:1" fill="#f0f0f0" d="M 95.5,169.5 C 96.2389,169.369 96.9056,169.536 97.5,170C 96.5495,173.057 96.2161,176.223 96.5,179.5C 95.5,179.5 94.5,179.5 93.5,179.5C 93.7878,176.061 94.4544,172.728 95.5,169.5 Z"/></g>
<g><path style="opacity:1" fill="#e9e9e9" d="M 123.5,158.5 C 125.273,159.314 125.773,160.648 125,162.5C 123.812,161.437 123.312,160.103 123.5,158.5 Z"/></g>
<g><path style="opacity:1" fill="#d2d2d2" d="M 100.5,153.5 C 102.337,153.639 102.67,154.306 101.5,155.5C 100.702,155.043 100.369,154.376 100.5,153.5 Z"/></g>
<g><path style="opacity:1" fill="#efefef" d="M 94.5,151.5 C 95.3764,151.369 96.0431,151.702 96.5,152.5C 96.277,153.967 95.9437,155.467 95.5,157C 96.1667,157.333 96.8333,157.667 97.5,158C 96.6346,159.854 95.6346,161.687 94.5,163.5C 93.3583,159.696 93.3583,155.696 94.5,151.5 Z"/></g>
<g><path style="opacity:1" fill="#ebebeb" d="M 101.5,146.5 C 102.788,148.035 102.788,149.701 101.5,151.5C 101.193,150.113 101.193,148.446 101.5,146.5 Z"/></g>
<g><path style="opacity:1" fill="#f2f2f2" d="M 95.5,144.5 C 96.2389,144.369 96.9056,144.536 97.5,145C 96.283,146.648 95.4497,148.481 95,150.5C 94.3224,148.402 94.4891,146.402 95.5,144.5 Z"/></g>
<g><path style="opacity:1" fill="#eaeaea" d="M 95.5,144.5 C 94.4265,143.749 94.2599,142.749 95,141.5C 96.7284,142.352 96.895,143.352 95.5,144.5 Z"/></g>
<g><path style="opacity:1" fill="#d8d8d8" d="M 96.5,137.5 C 97.6878,139.496 97.0211,140.329 94.5,140C 95.3805,139.292 96.0472,138.458 96.5,137.5 Z"/></g>
<g><path style="opacity:1" fill="#eaeaea" d="M 101.5,133.5 C 102.773,134.077 102.773,134.743 101.5,135.5C 100.537,135.03 100.537,134.363 101.5,133.5 Z"/></g>
<g><path style="opacity:1" fill="#f1f1f1" d="M 106.5,179.5 C 105.279,180.028 104.113,180.695 103,181.5C 102.383,180.551 102.549,179.718 103.5,179C 100.332,178.418 99.999,177.418 102.5,176C 101.833,175.667 101.167,175.333 100.5,175C 101.711,173.887 101.711,172.72 100.5,171.5C 100.977,170.522 101.643,169.689 102.5,169C 101.692,168.692 101.025,168.192 100.5,167.5C 102.519,165.81 104.519,164.144 106.5,162.5C 105.624,162.631 104.957,162.298 104.5,161.5C 105.833,160.5 105.833,159.5 104.5,158.5C 106.028,157.139 107.695,155.972 109.5,155C 108.5,154.667 107.5,154.333 106.5,154C 107.833,153 109.167,152 110.5,151C 109.049,151.263 107.716,151.096 106.5,150.5C 107.243,149.818 107.909,149.151 108.5,148.5C 107.624,148.631 106.957,148.298 106.5,147.5C 107.665,146.416 108.998,145.583 110.5,145C 108.793,144.805 107.126,144.805 105.5,145C 107.335,144.072 107.668,142.906 106.5,141.5C 107.5,140.667 108.5,139.833 109.5,139C 106.046,138.372 105.713,137.205 108.5,135.5C 107.624,135.631 106.957,135.298 106.5,134.5C 107.605,133.108 108.939,131.941 110.5,131C 109.833,130.667 109.167,130.333 108.5,130C 112.317,128.977 115.817,129.477 119,131.5C 119.667,130.833 120.333,130.167 121,129.5C 121.333,135.833 121.667,142.167 122,148.5C 122.499,142.509 122.666,136.509 122.5,130.5C 126.789,130.744 127.456,132.411 124.5,135.5C 126.149,141.5 126.649,147.834 126,154.5C 123.878,156.105 122.045,157.271 120.5,158C 121.624,160.411 123.124,162.578 125,164.5C 124.935,170.043 125.101,175.543 125.5,181C 124.771,182.992 123.271,183.826 121,183.5C 116.281,183.447 111.447,183.114 106.5,182.5C 106.5,181.5 106.5,180.5 106.5,179.5 Z"/></g>
<g><path style="opacity:1" fill="#340707" d="M 106.5,179.5 C 107.875,177.93 109.541,177.097 111.5,177C 110.347,178.883 108.681,179.716 106.5,179.5 Z"/></g>
<g><path style="opacity:1" fill="#737373" d="M 109.5,173.5 C 110.773,174.077 110.773,174.743 109.5,175.5C 108.38,176.833 107.047,177.333 105.5,177C 106.731,175.595 108.064,174.429 109.5,173.5 Z"/></g>
<g><path style="opacity:1" fill="#767676" d="M 107.5,171.5 C 109.379,171.393 109.712,171.893 108.5,173C 103.698,174.94 103.365,174.44 107.5,171.5 Z"/></g>
<g><path style="opacity:1" fill="#7b7b7b" d="M 109.5,167.5 C 111.379,167.393 111.712,167.893 110.5,169C 102.968,172.24 102.635,171.74 109.5,167.5 Z"/></g>
<g><path style="opacity:1" fill="#6b6b6b" d="M 108.5,163.5 C 109.239,163.369 109.906,163.536 110.5,164C 109.094,166.449 107.094,167.449 104.5,167C 105.731,165.595 107.064,164.429 108.5,163.5 Z"/></g>
<g><path style="opacity:1" fill="#6a6a6a" d="M 106.5,162.5 C 107.002,160.915 108.002,160.415 109.5,161C 108.756,162.039 107.756,162.539 106.5,162.5 Z"/></g>
<g><path style="opacity:1" fill="#858585" d="M 107.5,157.5 C 109.975,157.747 109.975,158.413 107.5,159.5C 106.537,159.03 106.537,158.363 107.5,157.5 Z"/></g>
<g><path style="opacity:1" fill="#909090" d="M 108.5,148.5 C 109.002,146.915 110.002,146.415 111.5,147C 110.756,148.039 109.756,148.539 108.5,148.5 Z"/></g>
<g><path style="opacity:1" fill="#531515" d="M 108.5,135.5 C 109.254,133.554 110.588,132.721 112.5,133C 111.529,134.481 110.196,135.315 108.5,135.5 Z"/></g>
<g><path style="opacity:1" fill="#efefef" d="M 99.5,126.5 C 100.766,127.09 102.099,127.59 103.5,128C 101.167,128.667 98.8333,128.667 96.5,128C 97.7375,127.768 98.7375,127.268 99.5,126.5 Z"/></g>
<g><path style="opacity:1" fill="#f0f0f0" d="M 103.5,119.5 C 105.379,119.393 105.712,119.893 104.5,121C 101.125,121.632 100.791,121.132 103.5,119.5 Z"/></g>
<g><path style="opacity:1" fill="#e2e2e2" d="M 105.5,245.5 C 104.609,244.89 103.609,244.557 102.5,244.5C 102.5,244.167 102.5,243.833 102.5,243.5C 105.837,241.646 106.837,242.313 105.5,245.5 Z"/></g>
<g><path style="opacity:1" fill="#f6f6f6" d="M 111.5,238.5 C 112.376,238.369 113.043,238.702 113.5,239.5C 113.314,241.815 112.98,244.149 112.5,246.5C 111.52,243.914 111.187,241.247 111.5,238.5 Z"/></g>
<g><path style="opacity:1" fill="#7f7f7f" d="M 102.5,244.5 C 103.609,244.557 104.609,244.89 105.5,245.5C 101.317,246.811 96.9838,246.811 92.5,245.5C 95.9301,244.991 99.2635,244.657 102.5,244.5 Z"/></g>
<g><path style="opacity:1" fill="#531515" d="M 193.5,154.5 C 192.432,155.434 191.099,155.768 189.5,155.5C 188.337,175.857 188.171,196.191 189,216.5C 194.082,217.637 199.249,217.804 204.5,217C 205.19,214.304 206.69,212.137 209,210.5C 209.667,214.5 210.333,214.5 211,210.5C 214.022,213.891 215.689,217.891 216,222.5C 216.801,229.889 216.467,237.223 215,244.5C 214.623,245.942 213.79,246.942 212.5,247.5C 211.745,249.466 210.579,249.8 209,248.5C 207.798,246.323 207.298,243.989 207.5,241.5C 205.325,241.682 203.325,242.349 201.5,243.5C 197.201,242.458 192.868,242.291 188.5,243C 193.321,244.279 198.321,244.946 203.5,245C 198.845,245.499 194.179,245.666 189.5,245.5C 189.437,266.834 189.437,288.167 189.5,309.5C 189.485,311.634 188.985,313.634 188,315.5C 187.833,291.493 187.333,267.493 186.5,243.5C 185.796,268.517 185.463,293.517 185.5,318.5C 180.477,319.047 175.477,319.714 170.5,320.5C 166.954,318.372 163.288,318.039 159.5,319.5C 159.414,320.496 159.748,321.329 160.5,322C 172.197,323.898 183.864,323.731 195.5,321.5C 195.469,317.724 196.136,317.557 197.5,321C 197.22,322.395 196.553,323.562 195.5,324.5C 192.891,325.23 190.224,325.73 187.5,326C 179.235,326.295 171.069,326.461 163,326.5C 161.209,324.487 159.875,324.487 159,326.5C 155.733,324.899 152.233,324.066 148.5,324C 152.19,323.576 152.357,322.742 149,321.5C 144.252,322.635 139.419,322.802 134.5,322C 137.226,321.818 139.893,321.318 142.5,320.5C 141.271,319.719 139.938,319.219 138.5,319C 139.094,318.536 139.761,318.369 140.5,318.5C 142.857,318.337 145.19,318.503 147.5,319C 146.328,319.419 145.328,320.085 144.5,321C 147.172,321.485 148.505,320.318 148.5,317.5C 151.588,316.106 154.755,314.772 158,313.5C 158.103,290.945 158.27,268.612 158.5,246.5C 153.523,246.242 148.523,245.908 143.5,245.5C 147.589,245.112 151.256,244.112 154.5,242.5C 156.126,244.243 158.126,244.743 160.5,244C 160.043,243.586 159.709,243.086 159.5,242.5C 162.227,238.431 161.893,237.931 158.5,241C 156.618,241.198 154.952,241.698 153.5,242.5C 151.871,244.06 150.704,243.727 150,241.5C 147.598,244.258 145.598,243.925 144,240.5C 143.365,242.618 142.531,244.618 141.5,246.5C 142.785,249.89 141.451,251.223 137.5,250.5C 138.551,249.778 139.218,248.778 139.5,247.5C 140.284,243.534 141.117,239.534 142,235.5C 142.249,236.624 142.749,237.624 143.5,238.5C 145.133,236.497 147.133,235.164 149.5,234.5C 148.859,235.482 148.193,236.482 147.5,237.5C 147.833,237.833 148.167,238.167 148.5,238.5C 149.622,237.37 150.956,236.703 152.5,236.5C 152.56,237.043 152.893,237.376 153.5,237.5C 155.5,236.167 157.5,234.833 159.5,233.5C 160.107,233.624 160.44,233.957 160.5,234.5C 161.091,231.265 161.424,227.931 161.5,224.5C 161.444,223.263 160.944,222.263 160,221.5C 157.978,222.786 155.811,223.786 153.5,224.5C 152.803,222.615 151.803,222.282 150.5,223.5C 148.23,221.6 145.897,220.933 143.5,221.5C 147.136,219.793 147.136,218.626 143.5,218C 148.489,217.501 153.489,217.334 158.5,217.5C 158.821,198.453 158.487,179.453 157.5,160.5C 157.833,160.167 158.167,159.833 158.5,159.5C 159.167,160.5 159.833,161.5 160.5,162.5C 160.736,161.753 161.07,160.92 161.5,160C 159.665,159.072 159.332,157.906 160.5,156.5C 157.553,155.679 154.553,155.179 151.5,155C 148.494,152.365 148.828,150.365 152.5,149C 158.213,149.954 160.546,147.62 159.5,142C 158.974,131.492 158.307,120.992 157.5,110.5C 151.396,105.797 148.729,99.4632 149.5,91.5C 151.056,82.5025 152.722,73.5025 154.5,64.5C 152.924,57.6125 150.091,56.9459 146,62.5C 145.667,68.5 145.333,74.5 145,80.5C 144.313,82.5547 143.146,84.2214 141.5,85.5C 140.522,85.0233 139.689,84.3567 139,83.5C 137.754,75.567 139.587,68.4003 144.5,62C 143.35,59.5378 142.017,57.2045 140.5,55C 138.455,54.5099 136.455,54.6765 134.5,55.5C 137.201,51.5329 140.034,51.5329 143,55.5C 143.739,57.2205 144.573,58.8872 145.5,60.5C 151.705,54.3073 155.372,55.6407 156.5,64.5C 155.088,73.8899 153.422,83.2232 151.5,92.5C 151.048,98.7379 153.214,103.738 158,107.5C 158.185,89.3911 158.352,71.0578 158.5,52.5C 167.921,48.4501 177.088,48.7834 186,53.5C 187.149,85.1565 188.149,116.823 189,148.5C 191.562,148.262 193.896,149.262 196,151.5C 196.519,153.489 195.686,154.489 193.5,154.5 Z"/></g>
<g><path style="opacity:1" fill="#ebebeb" d="M 161.5,244.5 C 162.376,244.369 163.043,244.702 163.5,245.5C 160.725,250.796 160.059,250.462 161.5,244.5 Z"/></g>
<g><path style="opacity:1" fill="#f2f2f2" d="M 154.5,242.5 C 154.167,242.5 153.833,242.5 153.5,242.5C 154.952,241.698 156.618,241.198 158.5,241C 161.893,237.931 162.227,238.431 159.5,242.5C 159.709,243.086 160.043,243.586 160.5,244C 158.126,244.743 156.126,244.243 154.5,242.5 Z"/></g>
<g><path style="opacity:1" fill="#e8e8e8" d="M 207.5,236.5 C 209.337,236.639 209.67,237.306 208.5,238.5C 207.702,238.043 207.369,237.376 207.5,236.5 Z"/></g>
<g><path style="opacity:1" fill="#ededed" d="M 160.5,234.5 C 160.114,237.262 158.781,238.262 156.5,237.5C 157.852,236.476 159.185,235.476 160.5,234.5 Z"/></g>
<g><path style="opacity:1" fill="#737373" d="M 152.5,234.5 C 154.933,234.786 154.933,235.452 152.5,236.5C 152.5,235.833 152.5,235.167 152.5,234.5 Z"/></g>
<g><path style="opacity:1" fill="#e4e4e4" d="M 205.5,218.5 C 207.975,218.747 207.975,219.413 205.5,220.5C 204.537,220.03 204.537,219.363 205.5,218.5 Z"/></g>
<g><path style="opacity:1" fill="#f7f7f7" d="M 198.5,233.5 C 195.868,235.113 193.202,236.78 190.5,238.5C 189.713,237.758 189.047,236.925 188.5,236C 188.658,232.28 188.825,228.446 189,224.5C 190.333,223.167 191.667,223.167 193,224.5C 196.274,222.241 196.107,221.408 192.5,222C 193.696,221.346 193.696,220.846 192.5,220.5C 189.147,222.976 188.814,222.476 191.5,219C 195.167,219.166 198.834,219.333 202.5,219.5C 201.167,220.5 199.833,221.5 198.5,222.5C 199.391,223.59 200.391,223.59 201.5,222.5C 204.806,224.738 207.306,224.405 209,221.5C 212.67,229.423 210.67,235.089 203,238.5C 202.5,238.167 202,237.833 201.5,237.5C 204.133,236.682 205.3,235.016 205,232.5C 203.247,233.627 201.413,234.627 199.5,235.5C 198.702,235.043 198.369,234.376 198.5,233.5 Z"/></g>
<g><path style="opacity:1" fill="#c8c8c8" d="M 195.5,236.5 C 197.337,236.639 197.67,237.306 196.5,238.5C 195.702,238.043 195.369,237.376 195.5,236.5 Z"/></g>
<g><path style="opacity:1" fill="#6c6c6c" d="M 198.5,233.5 C 199.002,231.915 200.002,231.415 201.5,232C 200.756,233.039 199.756,233.539 198.5,233.5 Z"/></g>
<g><path style="opacity:1" fill="#efefef" d="M 212.5,247.5 C 211.448,247.649 210.448,247.483 209.5,247C 211.584,242.077 212.584,236.91 212.5,231.5C 211.921,225.797 211.421,220.13 211,214.5C 212.252,216.001 213.252,217.668 214,219.5C 214.541,223.662 215.041,227.828 215.5,232C 214.942,237.289 213.942,242.455 212.5,247.5 Z"/></g>
<g><path style="opacity:1" fill="#818181" d="M 174.5,214.5 C 174.715,216.179 174.048,217.179 172.5,217.5C 172.932,216.29 173.599,215.29 174.5,214.5 Z"/></g>
<g><path style="opacity:1" fill="#efefef" d="M 161.5,212.5 C 162.737,213.743 162.404,214.743 160.5,215.5C 160.167,215.167 159.833,214.833 159.5,214.5C 160.243,213.818 160.909,213.151 161.5,212.5 Z"/></g>
<g><path style="opacity:1" fill="#bebebe" d="M 174.5,214.5 C 173.599,215.29 172.932,216.29 172.5,217.5C 171.542,217.953 170.708,218.619 170,219.5C 170.027,217.583 170.861,215.916 172.5,214.5C 171.242,215.016 170.242,214.35 169.5,212.5C 170.781,212.984 171.781,212.317 172.5,210.5C 173.203,206.663 174.536,206.497 176.5,210C 175.901,211.622 175.234,213.122 174.5,214.5 Z"/></g>
<g><path style="opacity:1" fill="#e8e8e8" d="M 160.5,200.5 C 161.653,201.313 161.653,202.313 160.5,203.5C 161.311,204.216 161.978,205.05 162.5,206C 161.305,207.533 161.305,209.033 162.5,210.5C 161.635,211.583 160.635,211.749 159.5,211C 159.339,207.55 159.673,204.05 160.5,200.5 Z"/></g>
<g><path style="opacity:1" fill="#ededed" d="M 160.5,195.5 C 162.646,195.696 162.812,196.696 161,198.5C 160.517,197.552 160.351,196.552 160.5,195.5 Z"/></g>
<g><path style="opacity:1" fill="#b5b5b5" d="M 172.5,192.5 C 172.289,190.289 172.289,187.956 172.5,185.5C 173.871,182.19 175.204,182.023 176.5,185C 175.313,186.019 174.313,187.186 173.5,188.5C 175.762,190.03 175.428,191.363 172.5,192.5 Z"/></g>
<g><path style="opacity:1" fill="#f3f3f3" d="M 160.5,188.5 C 161.773,189.077 161.773,189.743 160.5,190.5C 159.537,190.03 159.537,189.363 160.5,188.5 Z"/></g>
<g><path style="opacity:1" fill="#ececec" d="M 160.5,183.5 C 162.656,183.872 162.656,184.872 160.5,186.5C 159.438,185.575 159.438,184.575 160.5,183.5 Z"/></g>
<g><path style="opacity:1" fill="#e8e8e8" d="M 159.5,179.5 C 161.973,179.947 162.14,180.947 160,182.5C 159.517,181.552 159.351,180.552 159.5,179.5 Z"/></g>
<g><path style="opacity:1" fill="#e1e1e1" d="M 160.5,175.5 C 162.975,175.747 162.975,176.413 160.5,177.5C 159.537,177.03 159.537,176.363 160.5,175.5 Z"/></g>
<g><path style="opacity:1" fill="#f7f7f7" d="M 160.5,164.5 C 160.795,165.897 161.129,167.397 161.5,169C 161,169.5 160.5,170 160,170.5C 159.322,168.402 159.489,166.402 160.5,164.5 Z"/></g>
<g><path style="opacity:1" fill="#b6b6b6" d="M 171.5,166.5 C 169.876,166.36 168.71,167.027 168,168.5C 167.308,167.975 166.808,167.308 166.5,166.5C 166.833,165.167 167.167,163.833 167.5,162.5C 168.251,163.376 168.751,164.376 169,165.5C 169.903,164.299 171.069,163.465 172.5,163C 171.376,162.751 170.376,162.251 169.5,161.5C 169.624,160.893 169.957,160.56 170.5,160.5C 172.379,160.607 172.712,160.107 171.5,159C 172.833,157 174.167,157 175.5,159C 176.061,160.566 175.394,161.899 173.5,163C 174.167,163.333 174.833,163.667 175.5,164C 174.529,165.481 173.196,166.315 171.5,166.5 Z"/></g>
<g><path style="opacity:1" fill="#ededed" d="M 166.5,159.5 C 169.001,159.511 169.168,160.178 167,161.5C 166.536,160.906 166.369,160.239 166.5,159.5 Z"/></g>
<g><path style="opacity:1" fill="#f4f4f4" d="M 181.5,269.5 C 181.335,272.518 181.502,275.518 182,278.5C 182.232,277.263 182.732,276.263 183.5,275.5C 183.9,281.641 183.233,287.641 181.5,293.5C 182.469,301.444 182.802,309.444 182.5,317.5C 180.901,317.768 179.568,317.434 178.5,316.5C 181.338,314.694 181.005,313.694 177.5,313.5C 178.303,312.577 178.47,311.577 178,310.5C 177.107,311.711 176.274,311.711 175.5,310.5C 176.167,309.5 176.833,308.5 177.5,307.5C 176.975,306.808 176.308,306.308 175.5,306C 178.078,303.843 178.078,302.677 175.5,302.5C 175.808,301.692 176.308,301.025 177,300.5C 177.225,289.977 177.725,279.477 178.5,269C 178.887,251.362 178.387,233.529 177,215.5C 176.667,216.833 176.333,218.167 176,219.5C 175.667,219.167 175.333,218.833 175,218.5C 174.833,223.667 174.667,228.833 174.5,234C 174.527,239.58 175.194,244.914 176.5,250C 175.106,250.956 174.439,252.289 174.5,254C 175.239,263.533 175.572,273.033 175.5,282.5C 175.023,283.478 174.357,284.311 173.5,285C 173.807,286.682 174.14,288.348 174.5,290C 174.022,291.303 173.355,292.469 172.5,293.5C 171.756,290.64 171.089,287.64 170.5,284.5C 170.17,280.274 170.837,276.107 172.5,272C 170.219,270.518 170.219,268.851 172.5,267C 171.643,266.311 170.977,265.478 170.5,264.5C 170.717,254.136 171.05,243.636 171.5,233C 170.833,232.667 170.167,232.333 169.5,232C 168.911,230.127 169.578,228.46 171.5,227C 170.426,226.261 169.759,225.261 169.5,224C 170.391,221.721 171.391,219.554 172.5,217.5C 174.048,217.179 174.715,216.179 174.5,214.5C 175.234,213.122 175.901,211.622 176.5,210C 174.536,206.497 173.203,206.663 172.5,210.5C 171.711,210.217 171.044,209.717 170.5,209C 172.439,206.063 173.772,203.229 174.5,200.5C 171.837,199.121 172.504,197.621 176.5,196C 174.776,195.552 174.109,194.718 174.5,193.5C 173.056,194.981 172.389,194.648 172.5,192.5C 175.428,191.363 175.762,190.03 173.5,188.5C 174.313,187.186 175.313,186.019 176.5,185C 175.204,182.023 173.871,182.19 172.5,185.5C 171.779,182.48 173.112,180.314 176.5,179C 174.726,178.119 174.06,176.953 174.5,175.5C 171.902,176.68 170.236,178.68 169.5,181.5C 169.167,181.333 168.833,181.167 168.5,181C 169.833,179.667 169.833,178.333 168.5,177C 170.332,176.252 171.999,175.252 173.5,174C 172.551,173.383 171.718,173.549 171,174.5C 168.893,171.629 169.059,168.963 171.5,166.5C 173.196,166.315 174.529,165.481 175.5,164C 174.833,163.667 174.167,163.333 173.5,163C 175.394,161.899 176.061,160.566 175.5,159C 174.167,157 172.833,157 171.5,159C 172.712,160.107 172.379,160.607 170.5,160.5C 170.023,158.662 169.69,156.828 169.5,155C 175.569,154.196 181.569,154.529 187.5,156C 187.229,180.71 187.229,205.71 187.5,231C 187.333,233.833 187.167,236.667 187,239.5C 186.667,238.833 186.333,238.167 186,237.5C 184.106,217.15 183.106,196.817 183,176.5C 182.548,195.771 182.381,214.938 182.5,234C 185.159,243.392 184.825,252.725 181.5,262C 182.517,264.473 182.517,266.973 181.5,269.5 Z"/></g>
<g><path style="opacity:1" fill="#787878" d="M 181.5,170.5 C 182.649,170.791 183.316,171.624 183.5,173C 183.333,173.833 183.167,174.667 183,175.5C 181.731,174.095 181.231,172.429 181.5,170.5 Z"/></g>
<g><path style="opacity:1" fill="#531515" d="M 181.5,164.5 C 183.225,164.843 183.725,165.843 183,167.5C 181.961,166.756 181.461,165.756 181.5,164.5 Z"/></g>
<g><path style="opacity:1" fill="#e9e9e9" d="M 167.5,153.5 C 168.773,154.077 168.773,154.743 167.5,155.5C 166.537,155.03 166.537,154.363 167.5,153.5 Z"/></g>
<g><path style="opacity:1" fill="#efefef" d="M 193.5,154.5 C 190.562,153.372 187.562,152.205 184.5,151C 178.804,150.83 173.138,150.33 167.5,149.5C 168,149.167 168.5,148.833 169,148.5C 175.129,149.273 181.296,149.773 187.5,150C 189.556,150.311 191.556,150.811 193.5,151.5C 194.562,152.425 194.562,153.425 193.5,154.5 Z"/></g>
<g><path style="opacity:1" fill="#e9e9e9" d="M 153.5,150.5 C 159.906,150.649 159.739,151.315 153,152.5C 152.5,152.333 152,152.167 151.5,152C 152.416,151.722 153.082,151.222 153.5,150.5 Z"/></g>
<g><path style="opacity:1" fill="#ebebeb" d="M 161.5,141.5 C 161.623,143.208 161.956,145.041 162.5,147C 162,147.5 161.5,148 161,148.5C 160.297,146.071 160.463,143.738 161.5,141.5 Z"/></g>
<g><path style="opacity:1" fill="#f6f6f6" d="M 166.5,121.5 C 166.483,123.028 165.816,123.528 164.5,123C 165.044,122.283 165.711,121.783 166.5,121.5 Z"/></g>
<g><path style="opacity:1" fill="#898989" d="M 168.5,110.5 C 166.973,110.573 165.973,109.906 165.5,108.5C 166.117,106.771 167.117,105.271 168.5,104C 168.272,103.601 167.938,103.435 167.5,103.5C 167.672,102.508 167.338,101.842 166.5,101.5C 166.866,100.305 167.699,99.6387 169,99.5C 169.349,100.473 170.182,101.306 171.5,102C 170.465,104.93 169.465,107.764 168.5,110.5 Z"/></g>
<g><path style="opacity:1" fill="#dedede" d="M 167.5,103.5 C 167.938,103.435 168.272,103.601 168.5,104C 167.117,105.271 166.117,106.771 165.5,108.5C 164.651,106.49 165.318,104.823 167.5,103.5 Z"/></g>
<g><path style="opacity:1" fill="#f0f0f0" d="M 160.5,103.5 C 161.598,104.601 161.765,105.934 161,107.5C 159.232,106.318 159.065,104.985 160.5,103.5 Z"/></g>
<g><path style="opacity:1" fill="#cacaca" d="M 159.5,99.5 C 161.337,99.6395 161.67,100.306 160.5,101.5C 159.702,101.043 159.369,100.376 159.5,99.5 Z"/></g>
<g><path style="opacity:1" fill="#f5f5f5" d="M 160.5,85.5 C 161.566,89.4309 161.566,93.4309 160.5,97.5C 159.235,93.4539 159.235,89.4539 160.5,85.5 Z"/></g>
<g><path style="opacity:1" fill="#b9b9b9" d="M 168.5,93.5 C 166.318,92.1767 165.651,90.5101 166.5,88.5C 166.435,88.9382 166.601,89.2716 167,89.5C 170.179,85.7058 171.679,86.2058 171.5,91C 170.627,92.045 169.627,92.8783 168.5,93.5 Z"/></g>
<g><path style="opacity:1" fill="#bababa" d="M 166.5,87.5 C 165.885,84.8551 165.885,82.5217 166.5,80.5C 167.847,79.9717 169.181,79.805 170.5,80C 169.788,81.425 169.621,82.925 170,84.5C 168.961,85.7101 167.794,86.7101 166.5,87.5 Z"/></g>
<g><path style="opacity:1" fill="#f0f0f0" d="M 143.5,68.5 C 144.124,68.9169 144.457,69.5836 144.5,70.5C 144.072,74.7706 142.906,78.7706 141,82.5C 140.333,79.8333 140.333,77.1667 141,74.5C 142.319,72.7128 143.152,70.7128 143.5,68.5 Z"/></g>
<g><path style="opacity:1" fill="#f1f1f1" d="M 160.5,56.5 C 161.006,61.5298 161.34,66.8632 161.5,72.5C 161.636,76.6787 161.136,80.6787 160,84.5C 159.195,75.0891 159.362,65.7557 160.5,56.5 Z"/></g>
<g><path style="opacity:1" fill="#f7f7f7" d="M 168.5,130.5 C 167.399,131.8 166.066,132.3 164.5,132C 166.291,129.586 167.957,127.086 169.5,124.5C 169.154,123.304 168.654,123.304 168,124.5C 167.768,123.263 167.268,122.263 166.5,121.5C 166.5,120.833 166.5,120.167 166.5,119.5C 165.624,119.631 164.957,119.298 164.5,118.5C 165.93,115.567 167.93,113.067 170.5,111C 169.906,110.536 169.239,110.369 168.5,110.5C 169.465,107.764 170.465,104.93 171.5,102C 170.182,101.306 169.349,100.473 169,99.5C 167.699,99.6387 166.866,100.305 166.5,101.5C 166.103,102.525 165.437,102.692 164.5,102C 165.711,100.887 165.711,99.7202 164.5,98.5C 165.857,96.8144 167.19,95.1477 168.5,93.5C 169.627,92.8783 170.627,92.045 171.5,91C 171.679,86.2058 170.179,85.7058 167,89.5C 166.601,89.2716 166.435,88.9382 166.5,88.5C 166.5,88.1667 166.5,87.8333 166.5,87.5C 167.794,86.7101 168.961,85.7101 170,84.5C 169.621,82.925 169.788,81.425 170.5,80C 169.181,79.805 167.847,79.9717 166.5,80.5C 167.058,79.2101 168.058,78.3768 169.5,78C 168.09,77.6322 167.09,76.7989 166.5,75.5C 167.833,74.5 167.833,73.5 166.5,72.5C 167.313,71.1861 168.313,70.0195 169.5,69C 168.551,68.3828 167.718,68.5494 167,69.5C 165,68.1667 165,66.8333 167,65.5C 167.957,67.7092 169.124,67.5425 170.5,65C 169.02,62.3321 167.52,62.1655 166,64.5C 165.333,63.8333 165.333,63.1667 166,62.5C 167.983,61.2343 168.983,59.5676 169,57.5C 166.649,60.4328 165.649,60.0994 166,56.5C 170.412,51.6053 175.579,50.6053 181.5,53.5C 180.212,56.0335 180.212,58.5335 181.5,61C 181.167,61.1667 180.833,61.3333 180.5,61.5C 179.749,60.624 179.249,59.624 179,58.5C 178.752,62.7624 179.252,66.9291 180.5,71C 179.483,72.0495 179.316,73.2161 180,74.5C 180.333,73.8333 180.667,73.1667 181,72.5C 181.333,75.1667 181.667,77.8333 182,80.5C 181.774,88.1891 181.941,95.8558 182.5,103.5C 184.02,88.6748 184.353,73.8415 183.5,59C 183.833,57.5 184.167,56 184.5,54.5C 185.769,56.6948 185.769,58.8615 184.5,61C 185.247,73.6041 185.914,86.2708 186.5,99C 186.335,115.123 186.335,131.29 186.5,147.5C 179.492,147.666 172.492,147.5 165.5,147C 166.931,146.535 168.097,145.701 169,144.5C 169.375,142 170.208,139.667 171.5,137.5C 171.167,137.167 170.833,136.833 170.5,136.5C 169.333,138.167 168.167,139.833 167,141.5C 166.399,139.863 165.899,138.197 165.5,136.5C 166.519,134.489 167.519,132.489 168.5,130.5 Z"/></g>
<g><path style="opacity:1" fill="#a7a7a7" d="M 182.5,134.5 C 183.117,134.611 183.617,134.944 184,135.5C 184.821,138.554 184.655,141.554 183.5,144.5C 182.513,141.232 182.18,137.898 182.5,134.5 Z"/></g>
<g><path style="opacity:1" fill="#6c6c6c" d="M 169.5,132.5 C 170.713,133.497 170.546,134.497 169,135.5C 168.53,134.423 168.697,133.423 169.5,132.5 Z"/></g>
<g><path style="opacity:1" fill="#878787" d="M 168.5,130.5 C 169.122,129.373 169.955,128.373 171,127.5C 171.519,129.489 170.686,130.489 168.5,130.5 Z"/></g>
<g><path style="opacity:1" fill="#747474" d="M 166.5,119.5 C 166.461,118.244 166.961,117.244 168,116.5C 168.585,117.998 168.085,118.998 166.5,119.5 Z"/></g>
<g><path style="opacity:1" fill="#bababa" d="M 181.5,106.5 C 182.167,107.167 182.833,107.833 183.5,108.5C 183.785,110.288 183.452,111.955 182.5,113.5C 181.526,111.257 181.192,108.924 181.5,106.5 Z"/></g>
<g><path style="opacity:1" fill="#801c1c" d="M 181.5,106.5 C 181.56,105.957 181.893,105.624 182.5,105.5C 183.386,106.325 183.719,107.325 183.5,108.5C 182.833,107.833 182.167,107.167 181.5,106.5 Z"/></g>
<g><path style="opacity:1" fill="#b6b6b6" d="M 170.5,93.5 C 171.525,93.8966 171.692,94.5632 171,95.5C 169.887,97.3293 168.387,98.1626 166.5,98C 168.041,96.6288 169.375,95.1288 170.5,93.5 Z"/></g>
<g><path style="opacity:1" fill="#ebebeb" d="M 160.5,253.5 C 161.844,255.185 161.677,256.852 160,258.5C 160.019,256.893 160.185,255.226 160.5,253.5 Z"/></g>
<g><path style="opacity:1" fill="#ededed" d="M 160.5,259.5 C 161.797,260.849 161.63,262.182 160,263.5C 159.805,262.181 159.972,260.847 160.5,259.5 Z"/></g>
<g><path style="opacity:1" fill="#a3a3a3" d="M 181.5,269.5 C 183.308,270.918 183.975,272.918 183.5,275.5C 182.732,276.263 182.232,277.263 182,278.5C 181.502,275.518 181.335,272.518 181.5,269.5 Z"/></g>
<g><path style="opacity:1" fill="#f0f0f0" d="M 160.5,278.5 C 162.807,279.405 162.807,280.738 160.5,282.5C 160.094,281.443 160.094,280.109 160.5,278.5 Z"/></g>
<g><path style="opacity:1" fill="#e8e8e8" d="M 161.5,287.5 C 162.797,288.849 162.63,290.182 161,291.5C 160.805,290.181 160.972,288.847 161.5,287.5 Z"/></g>
<g><path style="opacity:1" fill="#f6f6f6" d="M 172.5,293.5 C 173.376,293.369 174.043,293.702 174.5,294.5C 170.389,299.929 169.722,299.596 172.5,293.5 Z"/></g>
<g><path style="opacity:1" fill="#ebebeb" d="M 174.5,296.5 C 175.376,296.369 176.043,296.702 176.5,297.5C 174.833,299.5 173.167,301.5 171.5,303.5C 171.167,303.167 170.833,302.833 170.5,302.5C 171.467,300.21 172.8,298.21 174.5,296.5 Z"/></g>
<g><path style="opacity:1" fill="#eaeaea" d="M 160.5,300.5 C 161.598,301.601 161.765,302.934 161,304.5C 159.232,303.318 159.065,301.985 160.5,300.5 Z"/></g>
<g><path style="opacity:1" fill="#f1f1f1" d="M 171.5,304.5 C 173.337,304.639 173.67,305.306 172.5,306.5C 171.702,306.043 171.369,305.376 171.5,304.5 Z"/></g>
<g><path style="opacity:1" fill="#f2f2f2" d="M 160.5,312.5 C 162.465,312.948 162.798,313.948 161.5,315.5C 160.614,314.675 160.281,313.675 160.5,312.5 Z"/></g>
<g><path style="opacity:1" fill="#6a6a6a" d="M 177.5,313.5 C 181.005,313.694 181.338,314.694 178.5,316.5C 177.89,315.609 177.557,314.609 177.5,313.5 Z"/></g>
<g><path style="opacity:1" fill="#dadada" d="M 170.5,315.5 C 172.337,315.639 172.67,316.306 171.5,317.5C 170.702,317.043 170.369,316.376 170.5,315.5 Z"/></g>
<g><path style="opacity:1" fill="#f0f0f0" d="M 159.5,319.5 C 156.295,321.021 153.295,320.688 150.5,318.5C 153.193,316.73 156.193,316.063 159.5,316.5C 159.5,317.5 159.5,318.5 159.5,319.5 Z"/></g>
<g><path style="opacity:1" fill="#eeeeee" d="M 177.5,313.5 C 177.557,314.609 177.89,315.609 178.5,316.5C 177.577,317.303 176.577,317.47 175.5,317C 176.085,315.698 176.751,314.531 177.5,313.5 Z"/></g>
<g><path style="opacity:1" fill="#a2a2a2" d="M 140.5,318.5 C 142.948,317.527 145.615,317.194 148.5,317.5C 148.505,320.318 147.172,321.485 144.5,321C 145.328,320.085 146.328,319.419 147.5,319C 145.19,318.503 142.857,318.337 140.5,318.5 Z"/></g>
</svg>
